<svg enable-background="new 0 0 512 512" height="512" viewBox="0 0 512 512" width="512" xmlns="http://www.w3.org/2000/svg"><g id="_x33_2_x2C__apps_x2C__app_x2C__android_x2C__digital_x2C__interaction"><g id="XMLID_747_"><g id="XMLID_757_"><path id="XMLID_308_" d="m356 496h-200c-27.57 0-50-22.43-50-50v-380c0-27.57 22.43-50 50-50h200c27.57 0 50 22.43 50 50v380c0 27.57-22.43 50-50 50z" fill="#3d6d93"/><path id="XMLID_307_" d="m126 86h260v320h-260z" fill="#fbf3f3"/><g id="XMLID_758_"><path id="XMLID_306_" d="m276 451h-40c-2.761 0-5-2.238-5-5s2.239-5 5-5h40c2.762 0 5 2.238 5 5s-2.238 5-5 5z" fill="#2c5977"/></g></g><path id="XMLID_305_" d="m286 146h60v60h-60z" fill="#53e261"/><path id="XMLID_304_" d="m286 266h60v60h-60z" fill="#fd3"/><path id="XMLID_303_" d="m166 266h60v60h-60z" fill="#ff884d"/><path id="XMLID_302_" d="m166 146h60v60h-60z" fill="#80aaff"/></g></g></svg>