<svg xmlns="http://www.w3.org/2000/svg" version="1.1" xmlns:xlink="http://www.w3.org/1999/xlink" width="512" height="512" x="0" y="0" viewBox="0 0 512 512" style="enable-background:new 0 0 512 512" xml:space="preserve" class=""><g><path d="M13.59 63.761c-3.88 6.97-6.09 14.99-6.09 23.54a48.24 48.24 0 0 0 10.59 30.24c4.71 5.9 4.71 14.4 0 20.3-6.63 8.28-10.59 18.8-10.59 30.24 0 10.7 3.47 20.6 9.36 28.62 4.27 5.82 4.27 13.7 0 19.52-5.89 8.02-9.36 17.91-9.36 28.63 0 10.71 3.47 20.61 9.36 28.63a16.458 16.458 0 0 1 0 19.51c-5.89 8.02-9.36 17.91-9.36 28.63 0 19.1 11.05 35.62 27.11 43.53a32.23 32.23 0 0 0-4.83 19.11c.97 15.86 13.65 28.85 29.49 30.17 5.55.47 10.83-.47 15.54-2.5 4.08 44.11 19.36 74.94 46.37 66.24 15-4.84 23.33-36.3-.28-49.38-9.17-5.08-14.47-17.59-17.37-27.67.16-.02.32-.03.49-.06 14.21-2 25.54-13.45 27.42-27.68.68-5.27.08-10.33-1.51-14.93 10.39-8.89 16.97-22.08 16.97-36.83 0-10.72-3.47-20.61-9.36-28.63a16.49 16.49 0 0 1 0-19.51c5.89-8.02 9.36-17.92 9.36-28.63 0-10.72-3.47-20.61-9.36-28.63a16.505 16.505 0 0 1 0-19.52c5.89-8.02 9.36-17.92 9.36-28.62 0-7.67-1.79-14.91-4.95-21.36 2.47-3.44 4.5-7.23 5.99-11.27 8.45 7.14 19.36 11.45 31.29 11.45 8.47 0 16.44-2.18 23.38-6.01 6.54-3.6 14.58-2.39 19.98 2.76 8.7 8.27 20.46 13.35 33.41 13.35 12.95 0 24.71-5.08 33.41-13.35 5.4-5.15 13.44-6.36 19.98-2.76a48.244 48.244 0 0 0 23.38 6.01c11.93 0 22.84-4.31 31.29-11.45 1.49 4.04 3.52 7.83 5.99 11.27a48.398 48.398 0 0 0-4.95 21.36c0 10.7 3.47 20.6 9.36 28.62 4.26 5.82 4.26 13.7 0 19.52-5.89 8.02-9.36 17.91-9.36 28.63 0 6.25 1.18 12.22 3.35 17.72M496.73 60.971a48.273 48.273 0 0 1 7.77 26.33 48.24 48.24 0 0 1-10.59 30.24c-4.71 5.9-4.71 14.4 0 20.3 6.63 8.28 10.59 18.8 10.59 30.24 0 10.7-3.47 20.6-9.36 28.62a16.474 16.474 0 0 0 0 19.52c5.89 8.02 9.36 17.91 9.36 28.63 0 10.71-3.47 20.61-9.36 28.63a16.458 16.458 0 0 0 0 19.51c5.89 8.02 9.36 17.91 9.36 28.63 0 19.1-11.05 35.62-27.11 43.53a32.23 32.23 0 0 1 4.83 19.11c-.97 15.86-13.65 28.85-29.49 30.17-5.98.51-11.66-.62-16.64-2.99M40.02 41.521c5-1.75 10.37-2.7 15.97-2.7.37 0 .74.02 1.11.03 6.92-18.32 24.62-31.35 45.36-31.35 10.48 0 20.18 3.33 28.11 8.99a17.63 17.63 0 0 0 20.54 0 48.222 48.222 0 0 1 28.12-8.99c12.92 0 24.66 5.06 33.35 13.3 5.45 5.18 13.52 6.39 20.11 2.77 6.9-3.81 14.85-5.97 23.31-5.97 8.46 0 16.41 2.16 23.31 5.97 6.59 3.62 14.66 2.41 20.11-2.77 8.69-8.24 20.43-13.3 33.35-13.3 10.49 0 20.19 3.33 28.12 8.99a17.63 17.63 0 0 0 20.54 0 48.214 48.214 0 0 1 28.11-8.99c20.74 0 38.44 13.03 45.36 31.35.37-.01.74-.03 1.11-.03 4.46 0 8.78.6 12.88 1.73" style="stroke-width:15;stroke-linecap:round;stroke-linejoin:round;stroke-miterlimit:10;" fill="none" stroke="#ffffff" stroke-width="15" stroke-linecap="round" stroke-linejoin="round" stroke-miterlimit="10" data-original="#000000" opacity="1" class=""></path><path d="M294.41 342.459c-3.306 11.511-9.353 14.331-24.638 9.236-13.652-4.551-14.979 8.438-14.232 17.465" style="stroke-width:15;stroke-linecap:round;stroke-linejoin:round;stroke-miterlimit:10;" fill="none" stroke="#ffffff" stroke-width="15" stroke-linecap="round" stroke-linejoin="round" stroke-miterlimit="10" data-original="#000000" opacity="1" class=""></path><path d="M240.929 272.898c1.902 28.331 16.164 195.326 88.14 195.326 41.663 0 68.202-56.843 9.314-86.793-56.189-28.577-74.901-101.813-78.651-119.38" style="stroke-width:15;stroke-linecap:round;stroke-linejoin:round;stroke-miterlimit:10;" fill="none" stroke="#ffffff" stroke-width="15" stroke-linecap="round" stroke-linejoin="round" stroke-miterlimit="10" data-original="#000000" opacity="1" class=""></path><path d="M335.73 252.051c60.07 10.54 105.63 63.26 105.03 126.49-.66 68.88-56.83 125.17-125.71 125.95-41.1.47-77.77-18.56-101.35-48.41l-33.74-1.63c-7.15-.35-10.35-9.14-5.1-14l19.68-18.24c-5.39-14.28-8.29-29.77-8.16-45.96.54-65.16 50.74-119.06 114.39-125.49" style="stroke-width:15;stroke-linecap:round;stroke-linejoin:round;stroke-miterlimit:10;" fill="none" stroke="#ffffff" stroke-width="15" stroke-linecap="round" stroke-linejoin="round" stroke-miterlimit="10" data-original="#000000" opacity="1" class=""></path><path d="M300.761 392.652s9.02 20.478 30.446 20.478M394.381 352.331l-7.143 7.143M400.911 384.474H390.81M362.238 345.801v10.101M111.181 141.442c0 8.423-6.828 15.252-15.252 15.252M106.573 300.882c0 8.423-6.828 15.252-15.252 15.252M63.448 279.184c-9.358 0-16.945-7.586-16.945-16.945M68.567 202.628c-15.013 0-27.184-12.171-27.184-27.184M78.603 362.934c-9.358 0-16.945-7.586-16.945-16.945M18.087 117.541s12.747 16.476 32.277 23.901M151.118 16.486s-14.29 7.886-30.786 28.222M222.596 143.649s-12.767-14.183-19.782-31.248M299.421 20.807C285.1 35.128 273.918 52.957 256 52.957M309.39 140.897c-13.429-7.023-11.153-20.153-31.68-20.153-18.866 0-22.753-13.652-22.753-13.652M374.461 196.707s13.796 20.077 34.463 23.49M495.137 196.707s-12.074 17.324-41.653 26.805M454.904 38.844s-27.397 0-42.756 23.214" style="stroke-width:15;stroke-linecap:round;stroke-linejoin:round;stroke-miterlimit:10;" fill="none" stroke="#ffffff" stroke-width="15" stroke-linecap="round" stroke-linejoin="round" stroke-miterlimit="10" data-original="#000000" opacity="1" class=""></path></g></svg>