<svg xmlns="http://www.w3.org/2000/svg" version="1.1" xmlns:xlink="http://www.w3.org/1999/xlink" width="512" height="512" x="0" y="0" viewBox="0 0 512 512" style="enable-background:new 0 0 512 512" xml:space="preserve"><g><path d="M118.043 393.406a7.503 7.503 0 0 0-9.47-4.777l-29.502 9.72c-3.934 1.296-6.246 5.598-4.777 9.47 1.956 5.155 5.654 5.96 9.47 4.777l29.502-9.72a7.5 7.5 0 0 0 4.777-9.47zM105.94 367.142c3.636.272 8.058-1.893 8.037-6.921-.017-4.142-2.791-7.729-6.921-8.037l-30.976-2.31c-4.139-.314-7.729 2.79-8.037 6.921a7.5 7.5 0 0 0 6.921 8.037zM123.921 421.72l-23.537 20.269a7.5 7.5 0 0 0-.789 10.577c3.417 3.188 6.943 3.451 10.577.789l23.537-20.269a7.5 7.5 0 0 0 .789-10.577 7.498 7.498 0 0 0-10.577-.789zM216.364 307.929a7.498 7.498 0 0 0-10.577-.789l-23.537 20.27a7.5 7.5 0 0 0-.789 10.577c3.417 3.188 6.943 3.451 10.577.789l23.537-20.27a7.5 7.5 0 0 0 .789-10.577zM21.214.228a7.5 7.5 0 0 0-5.457 9.095c40.921 163.633 40.921 329.621 0 493.355a7.5 7.5 0 0 0 5.458 9.095c3.786.905 6.818-.914 9.095-5.458 41.058-164.283 41.083-336.348 0-500.63A7.504 7.504 0 0 0 21.214.228zM496.243 502.68c-18.411-73.684-28.682-148.331-30.529-221.868-.104-4.141-3.581-7.403-7.685-7.31a7.5 7.5 0 0 0-7.31 7.685c1.874 74.635 12.293 150.379 30.971 225.128 2.277 4.544 5.308 6.364 9.094 5.458a7.497 7.497 0 0 0 5.459-9.093zM457.869 255.82h.059a7.5 7.5 0 0 0 7.499-7.442c.612-79.314 10.98-159.744 30.816-239.056a7.5 7.5 0 0 0-14.552-3.64c-20.124 80.464-30.642 162.08-31.264 242.58a7.5 7.5 0 0 0 7.442 7.558z" fill="#3d2b99" opacity="1" data-original="#000000"></path><path d="M293.662 315.008c26.394 18.115 78.596 14.651 78.596-27.188V148.161c-1.27-6.529-5.04-8.683-11.31-6.46-28.278 16.675-58.508 26.56-89.851 29.38-36.595 3.289-75.668-2.983-116.141-18.644-5.058-1.281-8.41.554-10.057 5.505-9.336 46.074-6.351 91.003 9.127 137.354a23.54 23.54 0 0 1-3.365 21.368c-2.097 2.144-2.916 4.905-2.456 8.282l13.636 44.097c2.954 9.629-12.237 14.879-15.356 4.771l-13.24-42.809a7.5 7.5 0 0 0-5.796-5.158 23.519 23.519 0 0 1-18.005-15.661c-20.319-60.858-22.102-122.699-5.302-183.806 6.067-22.074 31.145-33.799 51.994-24.391 29.45 13.285 57.741 20.855 84.086 22.499 4.123.271 7.695-2.884 7.953-7.018s-2.884-7.695-7.018-7.953c-24.53-1.531-51.06-8.664-78.851-21.201-28.954-13.064-64.315 3.847-72.626 34.088-17.603 64.025-15.74 128.802 5.538 192.534a38.533 38.533 0 0 0 24.942 24.521l11.994 38.782c5.401 13.029 15.005 18.098 28.809 15.204 11.341-3.502 18.666-17.588 15.212-28.822l-12.494-40.404c6.638-9.885 8.359-22.339 4.573-33.675-13.651-40.88-17.025-80.547-10.255-120.971 39.652 14.181 78.109 19.713 114.443 16.447 29.422-2.647 57.895-11.086 84.817-25.12v126.92c0 31.565-39.986 22.835-56.503 13.971-37.659-20.205-83.689 8.885-83.276 50.958l-14.786 4.871a7.5 7.5 0 0 0-4.777 9.47c2.497 4.368 5.654 5.96 9.47 4.777l10.092-3.325v25.368l-7.459-.556a7.486 7.486 0 0 0-8.037 6.921 7.5 7.5 0 0 0 6.921 8.037l11.098.828c2.584 6.885 7.055 12.987 12.947 17.486v77.872a7.5 7.5 0 0 0 15 0v-81.839a7.498 7.498 0 0 0-3.664-6.444 23.908 23.908 0 0 1-6.54-5.751c4.068.816 9.739-.959 10.171-6.762a7.5 7.5 0 0 0-6.921-8.037l-8.517-.635v-31.429c5.601-.693 10.808-5.287 9.187-10.923-1.417-4.928-9-4.914-9-4.914.208-30.264 38.583-48.139 60.997-32.756z" fill="#3d2b99" opacity="1" data-original="#000000"></path><path d="M271.508 473.478a7.5 7.5 0 0 0-7.5 7.5v23.52a7.5 7.5 0 0 0 15 0v-23.52a7.5 7.5 0 0 0-7.5-7.5zM349.2 74.858c-23.598 19.815-49.514 29.827-76.847 33.562a7.5 7.5 0 0 0-6.415 8.447c.561 4.103 4.332 6.969 8.447 6.415 29.589-4.043 57.848-16.343 83.993-36.559 24.92-19.283 60.88.486 60.88 30.668V310.66c0 39.464-55.501 62.299-88.009 62.299-13.458 0-27.451-2.741-41.592-8.146-5.848-1.231-9.24 1.104-10.178 7.006v24.11c0 8.353-4.495 16.147-11.73 20.34a7.501 7.501 0 0 0-3.74 6.489v25.53a7.5 7.5 0 0 0 15 0v-21.512c9.639-7.212 15.47-18.666 15.47-30.848v-13.621c12.423 3.753 24.751 5.651 36.77 5.651 41.805 0 103.009-28.737 103.009-77.299V117.391c-.001-52.39-54.265-68.389-85.058-42.533z" fill="#3d2b99" opacity="1" data-original="#000000"></path></g></svg>