<svg xmlns="http://www.w3.org/2000/svg" version="1.1" xmlns:xlink="http://www.w3.org/1999/xlink" width="512" height="512" x="0" y="0" viewBox="0 0 24 24" style="enable-background:new 0 0 512 512" xml:space="preserve" class=""><g><g fill="#000" fill-rule="evenodd" clip-rule="evenodd"><path d="M5.646 3.646a.5.5 0 0 1 .708 0l4.951 4.952a3.5 3.5 0 0 1 .995 2.938l-.753 5.644 1.307.523a1.45 1.45 0 0 1-.539 2.797H8.133a1.5 1.5 0 0 1-1.489-1.686l.83-6.633-3.828-3.827a.5.5 0 1 1 .708-.708l4 4a.5.5 0 0 1 .142.416l-.86 6.876a.5.5 0 0 0 .497.562h4.182a.45.45 0 0 0 .167-.869l-1.668-.667a.5.5 0 0 1-.31-.53l.805-6.03a2.5 2.5 0 0 0-.71-2.099L5.645 4.354a.5.5 0 0 1 0-.708z" fill="#3d2b99" opacity="1" data-original="#000000" class=""></path><path d="M10.017 11.132a.5.5 0 0 1 .354-.613l2.897-.776a.5.5 0 1 1 .26.966l-2.899.776a.5.5 0 0 1-.612-.353z" fill="#3d2b99" opacity="1" data-original="#000000" class=""></path><path d="M12.517 8.424a.5.5 0 0 1 .354-.613l1.931-.517a.5.5 0 0 1 .613.353l1.294 4.83a.5.5 0 0 1-.354.612l-1.932.518a.5.5 0 0 1-.612-.354zm1.095.224 1.036 3.863.966-.258-1.036-3.864z" fill="#3d2b99" opacity="1" data-original="#000000" class=""></path><path d="M12.934 9.98a.5.5 0 0 1 .354-.613l1.932-.517a.5.5 0 0 1 .612.353l.46 1.717a.5.5 0 0 1-.354.613l-1.931.517a.5.5 0 0 1-.613-.353zm1.095.224.202.751.966-.259-.202-.75z" fill="#3d2b99" opacity="1" data-original="#000000" class=""></path><path d="m14.87 8.26 2.898-.777.26.966-2.899.776zm3.675 2.12-2.898.777-.259-.966 2.898-.776z" fill="#3d2b99" opacity="1" data-original="#000000" class=""></path><path d="M17.37 6.517a.5.5 0 0 1 .613.354l1.035 3.863a.5.5 0 1 1-.966.26l-1.035-3.865a.5.5 0 0 1 .354-.612z" fill="#3d2b99" opacity="1" data-original="#000000" class=""></path></g></g></svg>