<svg xmlns="http://www.w3.org/2000/svg" version="1.1" xmlns:xlink="http://www.w3.org/1999/xlink" width="512" height="512" x="0" y="0" viewBox="0 0 24 24" style="enable-background:new 0 0 512 512" xml:space="preserve" class=""><g><path fill="#3d2b99" fill-rule="evenodd" d="M8.91 20.048H13.432c.27 0 .506-.161.592-.41.097-.322-.054-.656-.355-.764l-1.799-.722a.43.43 0 0 1-.258-.43l.872-6.463c.01-.043-.01-.086-.043-.118s-.118-.032-.118-.032l-.722.183c-.043.01-.075.01-.119.01a.543.543 0 0 1-.14-1.066l.884-.237a.134.134 0 0 0 .086-.064c0-.01 0-.022.002-.034a.186.186 0 0 0-.002-.074c-.14-.366-.356-.7-.636-.98L6.863 4.043C6.83 4 6.787 4 6.744 4c-.043.01-.097.075-.097.075L5.01 7.371c-.032.043.022.151.022.151L9.06 11.55a.444.444 0 0 1 .108.345l-.916 7.4a.65.65 0 0 0 .162.538c.118.14.301.215.495.215zm6.03-7.54c.022.022.065.022.065.022v-.01h.033l1.044-.28c.043-.011.076-.033.087-.065.01-.032.01-.108.01-.108l-.172-.635c-.022-.076-.086-.119-.162-.097l-1.044.27a.133.133 0 0 0-.086.064c-.011.032-.011.107-.011.107l.172.647c.01.043.032.064.065.086zm-1-3.607c.01.054.075.097.128.097h.033l1.044-.28c.044-.011.076-.033.087-.065s.01-.108.01-.108l-.172-.635c-.021-.076-.086-.119-.162-.097l-1.044.28c-.043.01-.076.032-.086.065-.011.032-.011.107-.011.107zm.56 1.928c.02.021.064.021.064.021v-.01h.032l1.034-.28c.075-.022.119-.087.097-.162l-.215-.808a.134.134 0 0 0-.065-.086c-.032-.01-.097-.01-.097-.01l-1.034.28c-.075.02-.118.085-.097.16l.216.809c.01.043.032.064.064.086zm2.002-.668c.011.054.076.097.13.097h.032l1.716-.462.309 1.151c.075.29.342.494.643.496h-.008.011-.004a.555.555 0 0 0 .166-.022.64.64 0 0 0 .42-.323.616.616 0 0 0 .054-.495l-1.11-4.169a.679.679 0 0 0-.818-.474.658.658 0 0 0-.41.313.688.688 0 0 0-.064.506l.348 1.294-1.716.462c-.075.021-.118.086-.097.161z" clip-rule="evenodd" opacity="1" data-original="#000000" class=""></path></g></svg>