<svg xmlns="http://www.w3.org/2000/svg" version="1.1" xmlns:xlink="http://www.w3.org/1999/xlink" width="512" height="512" x="0" y="0" viewBox="0 0 2500 2500" style="enable-background:new 0 0 512 512" xml:space="preserve" class=""><g><g fill="#ff1a63"><path d="M1669.41 1769.62c0-2.56-.52-4.94-1.04-7.41-.33-1.56-.12-3.1-.66-4.64-.23-.63-.73-1.04-.98-1.65-.98-2.37-2.42-4.38-3.89-6.5-1.27-1.84-2.36-3.72-3.91-5.27-1.52-1.52-3.37-2.6-5.18-3.85-2.16-1.49-4.21-2.96-6.63-3.95-.59-.24-.98-.74-1.59-.95l-165.12-58.14 123.09-169.63c10.32-14.26 8.96-33.85-3.26-46.5-12.19-12.73-31.79-14.8-46.34-4.96l-146.68 98.41 9.75-157.38c1.22-19.99-13.98-37.22-34-38.47-20.14-.28-37.24 14.01-38.49 34l-14.29 230.66c-.85 13.78 6.21 26.85 18.18 33.71s26.83 6.32 38.29-1.33l38.31-25.72-31.88 43.94c-6.72 9.3-8.68 21.18-5.27 32.13 3.4 10.94 11.8 19.61 22.61 23.42l113.83 40.09-113.83 40.09a36.28 36.28 0 0 0-22.61 23.42 36.37 36.37 0 0 0 5.27 32.12l31.85 43.88-38.29-25.68c-11.46-7.69-26.29-8.25-38.29-1.34-11.97 6.86-19.03 19.93-18.18 33.71l14.29 230.69c1.19 19.25 17.19 34.05 36.21 34.05.74 0 1.5-.02 2.27-.05 20.02-1.25 35.22-18.49 34-38.47l-9.75-157.38 146.68 98.41c14.55 9.78 34.18 7.77 46.34-4.96 12.23-12.65 13.59-32.24 3.26-46.5l-123.09-169.63 165.12-58.14c.64-.23 1.05-.74 1.66-.99 3.3-1.36 6.34-3.16 9.12-5.44 1.12-.91 2.07-1.88 3.06-2.91 1.99-2.07 3.66-4.36 5.14-6.92.76-1.31 1.54-2.54 2.13-3.94.3-.7.81-1.24 1.06-1.97.54-1.54.33-3.08.66-4.64.52-2.47 1.03-4.85 1.04-7.41zM1151.63 1657.09c11.97-6.86 19.03-19.93 18.18-33.71l-14.27-230.66c-1.25-19.99-17.87-34.42-38.49-34-20.03 1.25-35.23 18.46-34.01 38.47l9.76 157.38-146.71-98.41c-14.6-9.84-34.18-7.77-46.34 4.96-12.23 12.65-13.59 32.24-3.26 46.5l123.09 169.63-165.12 58.14c-.58.21-.96.69-1.53.91-2.52 1.04-4.69 2.56-6.94 4.14-1.68 1.19-3.44 2.2-4.88 3.64-1.62 1.61-2.77 3.56-4.08 5.48-1.4 2.07-2.81 4.03-3.76 6.34-.25.61-.77 1.03-.99 1.66-.53 1.54-.33 3.08-.65 4.64-.52 2.47-1.03 4.85-1.04 7.41 0 2.56.52 4.94 1.04 7.41.33 1.56.12 3.1.65 4.64.26.73.77 1.27 1.07 1.97.59 1.4 1.37 2.62 2.13 3.94 1.48 2.55 3.15 4.85 5.14 6.92.99 1.03 1.94 2 3.06 2.91 2.78 2.28 5.81 4.08 9.12 5.44.61.26 1.02.77 1.66.99l165.12 58.14-123.09 169.63c-10.32 14.26-8.96 33.85 3.26 46.5 12.16 12.68 31.74 14.71 46.34 4.96l146.71-98.43-9.76 157.41c-1.22 20.01 13.98 37.22 34.01 38.47.77.03 1.53.05 2.27.05 19.03 0 35.03-14.79 36.22-34.05l14.27-230.69c.85-13.78-6.21-26.85-18.18-33.71-12.02-6.94-26.83-6.35-38.29 1.34l-38.29 25.68 31.85-43.88c6.72-9.3 8.68-21.18 5.27-32.12-3.4-10.94-11.8-19.62-22.61-23.42l-113.83-40.09 113.83-40.09a36.28 36.28 0 0 0 22.61-23.42 36.396 36.396 0 0 0-5.27-32.13l-31.88-43.94 38.32 25.72c11.46 7.68 26.27 8.25 38.29 1.33z" fill="#3d2b99" opacity="1" data-original="#ff1a63" class=""></path></g><g fill="#0034d1"><path d="M756.82 1561.72c-9.16-42.01-17.04-78.3-21.95-121.51-4.97-43.41-6.1-88.28-3.35-133.39 1.13-18.8-12.34-35.38-31-38.11-18.89-2.46-36.33 9.36-40.58 27.67-9.7 41.53-16.45 83.18-20.03 123.78l-1.96 25.61c-1.61 23.07-2.58 37.03-8.59 55.31-7.71 23.45-20.96 45.42-39.34 65.29-6.27 6.75-9.72 15.65-9.67 24.89.12 16.41.23 41.08 0 71.13-.48 76.18-2.58 141.67-3.43 159.08-4.14 83.15-37.38 156.69-87.98 268.74-65.2 144.28-97.96 216.71-141.23 277.9-7.12 10.09-28.81 40.74-42.46 84.88-5.92 19.17 4.82 39.47 23.96 45.39 3.57 1.1 7.17 1.61 10.72 1.61 15.51 0 29.86-10.01 34.68-25.57 10.24-33.11 26.32-55.85 32.36-64.42 47.3-66.85 81-141.41 148.47-290.66 51.76-114.59 89.14-197.38 93.96-294.25.91-17.75 3.06-84.55 3.54-162.2.17-22.93.15-42.81.09-58.35 11.46-13.75 21.24-28.29 29.33-43.49 1.22 5.53 2.41 11.11 3.63 16.73 15.32 70.14 50.06 288.7 27.48 455.38 0 .02.01.05 0 .07 0 .04-.03.06-.03.1-2.92 22.17-9.81 37.51-26.54 73.09-31.23 66.31-56.18 117.18-66.19 137.53-25.47 52.34-36.42 105.04-45.01 216.98-1.53 19.99 13.41 37.42 33.41 38.95.94.08 1.87.11 2.81.11 18.8 0 34.72-14.46 36.16-33.51 8.71-113.32 19.6-153.15 39.9-194.86 7.97-16.19 33.12-67.45 64.61-134.33 17.66-37.52 28.32-60.2 32.81-94.35v-.08c.01-.05.02-.08.02-.12v-.05c23.96-177.06-12.43-406.8-28.62-480.99zM1017.43 0h-.48c-19.83 0-36.05 15.93-36.31 35.81l-1.53 127.52c.68 10.03-.2 19.9-2.61 29.43-.51 2.1-5.7 21.29-24.82 43.97-15.57 18.46-43.53 35.44-83.18 50.44-30.29 11.48-50.88 15.59-82.02 21.83l-20.14 4.09c-82.5 17.06-123.91 25.63-162.08 41.47-105.02 43.69-162.79 130.9-182.73 166.34-36.1 63.96-43 119.89-53.46 204.69-9.28 74.99-7.32 141.81-6.24 177.74 1.02 34.65 2.92 55.25 4.48 71.93 1.81 19.82 2.92 31.78 1.53 56.47-1.9 33.94-6.18 49.16-12.1 70.23-5.16 18.46-11.63 41.39-17.44 80.74-11.49 77.46-9.22 138.55-6.35 215.9 1.39 37.87 4.05 76.21 7.97 114.11-5.33 5.95-11.31 12.81-17.67 20.55-52.13 63.28-90.16 132.57-113.08 205.94-17.27 55.31-22.26 101.3-31.36 185.08-5.42 50.24-6.7 81.22-7.77 107.76-1.31 31.78-2.24 54.72-9.84 97.98-1.02 5.93-1.31 6.72-5.67 23.73-4.59 17.92-13.33 51.94-30.86 121.94-19.65 78.54-32.53 115.62-41.91 142.69-4.4 12.7-8.14 23.53-11.55 35.19-5.61 19.25 5.48 39.38 24.7 44.99 3.4.99 6.81 1.45 10.18 1.45 15.71 0 30.2-10.29 34.83-26.14 3.07-10.52 6.47-20.24 10.44-31.7 9.85-28.35 23.31-67.19 43.76-148.84 17.44-69.77 26.15-103.65 30.74-121.54 5.39-21.01 5.59-22 6.87-29.26 8.42-47.94 9.56-75.56 10.86-107.54 1.02-25.34 2.21-54.92 7.46-103.22 8.82-81.48 13.27-122.36 28.45-170.93 20.11-64.39 53.69-125.42 99.77-181.42 10.16-12.3 19.17-22.2 25.78-29.11 7.43-7.8 11-18.46 9.81-29.12-4.68-41.5-7.82-83.66-9.36-125.25-2.72-73.63-4.88-131.75 5.62-202.6 5.16-34.79 10.44-53.58 15.54-71.75 6.35-22.57 12.34-43.92 14.69-85.77 1.7-30.08.17-46.47-1.73-67.22-1.45-15.65-3.24-34.98-4.22-67.42-.99-33.97-2.87-97.19 5.76-166.85 10.07-81.45 15.6-126.3 44.67-177.82 12.68-22.53 60.81-98.95 147.33-134.92 31.77-13.21 70.93-21.29 148.9-37.42l19.68-4c32.19-6.43 57.63-11.51 93.5-25.12 52.07-19.7 89.03-43.12 112.99-71.56 28.3-33.57 37.54-64.47 39.71-73.03 4.25-16.84 5.81-34.33 4.7-49.07l1.61-124.6c.25-20.07-15.8-36.53-35.82-36.79zM2427.95 2448.6c-17.02-37.17-23.4-60.22-51.62-172.92-17.52-69.97-26.23-103.96-30.85-121.91-4.37-17.09-4.62-17.89-5.67-23.81-7.6-43.18-8.53-66.15-9.84-97.9-1.08-26.53-2.35-57.52-7.77-107.79-9.05-83.61-14.04-129.68-31.34-185.05-22.95-73.49-61-142.78-113.1-205.97-6.35-7.71-12.31-14.6-17.67-20.55 3.89-37.51 6.58-75.84 8.03-114.51 2.83-77.28 5.08-138.32-6.38-215.5-5.84-39.35-12.28-62.28-17.47-80.71-5.92-21.07-10.21-36.29-12.11-70.26-1.39-24.69-.28-36.66 1.53-56.47 1.56-16.68 3.46-37.28 4.48-71.9 1.02-33.2 3.09-102.24-6.24-177.93-10.46-84.63-17.36-140.54-53.43-204.52-20.02-35.47-77.91-122.73-182.76-166.34-38.11-15.85-79.52-24.41-162.08-41.5l-20.14-4.06c-31.14-6.24-51.7-10.35-82.02-21.83-39.68-15.03-67.64-31.98-83.15-50.44-19.14-22.68-24.34-41.88-24.88-44.09-2.38-9.41-3.26-19.28-2.49-32.23l-1.62-124.6c-.25-20.05-15.54-35.1-36.79-35.81-20.02.26-36.07 16.72-35.82 36.77l1.7 121.68c-1.19 17.66.37 35.15 4.59 51.88 2.18 8.67 11.46 39.58 39.73 73.12 23.88 28.43 60.84 51.83 112.99 71.59 35.91 13.61 61.32 18.68 93.54 25.12l19.66 3.97c78.02 16.16 117.18 24.27 148.89 37.45 86.39 35.92 134.66 112.39 147.39 134.95 29.02 51.48 34.55 96.34 44.64 177.96 8.65 70 6.66 135.29 5.73 166.68-.99 32.43-2.78 51.77-4.22 67.42-1.9 20.75-3.43 37.14-1.73 67.22 2.35 41.88 8.36 63.22 14.72 85.82 5.11 18.14 10.38 36.95 15.54 71.73 10.47 70.54 8.33 128.63 5.62 202.54-1.59 42.16-4.74 84.28-9.39 125.25-1.22 10.69 2.39 21.35 9.82 29.15 6.61 6.92 15.62 16.78 25.75 29.08 46.11 55.94 79.69 116.98 99.83 181.48 15.2 48.59 19.63 89.59 28.44 171.24 5.22 47.97 6.41 77.57 7.46 102.92 1.3 31.95 2.41 59.57 10.83 107.51 1.3 7.31 1.5 8.3 6.89 29.29 4.57 17.89 13.28 51.77 30.71 121.51 29.16 116.41 36.56 142.95 56.04 185.51 6.1 13.33 19.25 21.18 33.04 21.18 5.05 0 10.18-1.05 15.09-3.29 18.21-8.34 26.24-29.89 17.9-48.11zM2152.31 2368.11c-43.42-61.35-76.2-133.96-141.63-278.77-50.25-111.25-83.47-184.77-87.61-267.86-.85-17.41-2.92-82.9-3.43-159.08-.2-30.02-.11-54.72 0-71.13.06-9.24-3.4-18.14-9.67-24.89-18.38-19.88-31.59-41.82-39.3-65.29-6.04-18.34-7-32.32-8.63-55.46l-1.95-25.43c-3.61-40.8-10.33-82.44-20.03-123.84-4.28-18.31-22.04-30.48-40.58-27.61-18.69 2.72-32.13 19.28-31 38.11 2.75 44.88 1.64 89.76-3.32 133.39-3.24 28.46-8.51 53.92-13.78 79.58-2.95 14.4-5.93 28.86-8.6 43.88-43.43 243.83-51.69 388.15-27.6 482.22 4.5 30.99 14.24 53.18 32.25 91.41a8696.356 8696.356 0 0 0 63.41 131.95l3.15 6.46c18.32 37.54 29.18 77.34 37.92 190.75 1.45 19.05 17.36 33.51 36.16 33.51.94 0 1.87-.03 2.81-.11 20-1.53 34.94-18.97 33.41-38.95-8.59-112.02-19.54-164.73-44.98-216.95l-3.26-6.66c-8.96-18.29-33.13-67.5-62.93-130.9-17.78-37.79-23.77-51.8-26.55-73.06-.1-.77-.58-1.36-.72-2.11-.16-.79.08-1.56-.13-2.35-21.39-82.16-12.59-221.7 28.53-452.51.96-5.39 1.99-10.75 3.01-16.02 8.14 15.45 18.06 30.19 29.69 44.17-.06 15.54-.06 35.38.08 58.29.51 77.71 2.64 144.51 3.55 162.26 4.82 96.79 42.2 179.55 93.98 294.25 67.27 148.9 101.02 223.64 148.41 290.6 6.1 8.62 22.23 31.56 32.39 64.44 4.8 15.59 19.17 25.6 34.69 25.6 3.52 0 7.15-.51 10.69-1.61 19.17-5.9 29.89-26.23 23.99-45.36-13.53-43.88-34.49-73.65-42.43-84.91zM1268.03 223.04c1.16 0 2.35-.06 3.51-.17 19.97-1.9 34.6-19.61 32.67-39.58l-5.79-57.92c-2.1-19.93-20.05-34.64-39.87-32.32-19.94 2.07-34.4 19.93-32.33 39.86l5.73 57.3c1.79 18.77 17.61 32.83 36.08 32.83zM1245.28 1599.91c.8.05 1.61.08 2.41.08 18.98 0 34.94-14.71 36.19-33.91 2.61-39.26 5.56-77.03 8.74-113.91 1.73-19.96-13.07-37.54-33.04-39.27-20.42-1.33-37.55 13.1-39.28 33.03-3.23 37.34-6.24 75.61-8.85 115.39-1.34 19.99 13.81 37.28 33.83 38.59zM1275.12 265.02c-20 1.53-34.94 18.97-33.41 38.95 2.7 35.33 5.36 73.43 7.79 114.2 1.17 19.25 17.16 34.11 36.22 34.11.74 0 1.48-.03 2.21-.06 20.02-1.22 35.25-18.4 34.06-38.41-2.5-41.17-5.16-79.67-7.91-115.39-1.53-19.93-18.95-35.18-38.97-33.4zM1290.15 494.61c-20.06.88-35.56 17.83-34.69 37.85 1.61 36.54 3.06 74.73 4.22 114.45.57 19.67 16.7 35.24 36.25 35.24.37 0 .74 0 1.07-.03 20.05-.57 35.82-17.29 35.23-37.31a7836.61 7836.61 0 0 0-4.23-115.53c-.85-20.01-17.19-35.67-37.86-34.68zM1281.27 1183.97c-20.02-1.42-37.63 12.9-39.48 32.83l-10.86 114.31c-1.93 19.96 12.71 37.68 32.67 39.58 1.16.12 2.36.17 3.49.17 18.49 0 34.32-14.06 36.1-32.83l10.92-114.59c1.81-19.96-12.88-37.62-32.85-39.47zM1296.19 954.55c-19.68-1.28-37.01 14.54-37.97 34.56-1.85 39.33-4.2 77.06-6.92 113.8-1.45 19.99 13.56 37.39 33.55 38.87.91.06 1.82.09 2.7.09 18.86 0 34.77-14.54 36.19-33.62 2.72-37.37 5.13-75.73 7.03-115.73.94-20.01-14.55-37-34.57-37.96zM1298.03 724.62c-20.05.26-36.1 16.7-35.85 36.75.2 15.93.31 31.55.28 46.97 0 22.94-.2 45.2-.57 66.94-.34 20.04 15.66 36.57 35.71 36.91h.59c19.77 0 35.96-15.85 36.3-35.69.37-22.12.57-44.82.57-68.1.03-15.71-.09-31.67-.28-47.94-.28-20.01-14.92-36.2-36.75-35.84zM1241.68 2059.77c.42 0 .88 0 1.3-.03 20.06-.71 35.71-17.52 35-37.54-1.28-36.68-2.24-74.79-2.75-114.2-.26-20.04-19.34-36.46-36.75-35.84-20.05.26-36.1 16.73-35.85 36.74.51 39.98 1.48 78.65 2.81 115.84.68 19.59 16.79 35.02 36.24 35.02zM1238.36 1829.73h.42c19.85 0 36.05-15.96 36.3-35.87.48-39.75 1.45-77.6 2.86-113.97.77-20.01-14.83-36.89-34.88-37.65-19.14-1.17-36.89 14.79-37.66 34.87-1.42 36.95-2.44 75.47-2.92 115.9-.23 20.02 15.82 36.46 35.88 36.72zM1254.95 2289.52c.96 0 1.96-.03 2.95-.11 19.96-1.62 34.88-19.11 33.26-39.1-2.86-35.69-5.56-73.74-7.88-113.97-1.16-20.01-18.57-35.04-38.35-34.14-20.02 1.16-35.31 18.32-34.15 38.33 2.39 40.8 5.08 79.41 8 115.62 1.53 18.97 17.41 33.37 36.16 33.37zM1261.99 2333.32c-19.94 2.07-34.43 19.93-32.33 39.86 2.13 20.5 4.31 39.78 6.38 57.87 2.15 18.49 17.84 32.12 36.02 32.12 1.39 0 2.81-.08 4.23-.23 19.91-2.29 34.2-20.3 31.9-40.23-2.07-17.8-4.2-36.85-6.33-57.07-2.1-19.96-20.42-34.44-39.87-32.32z" fill="#3d2b99" opacity="1" data-original="#0034d1" class=""></path></g></g></svg>