<svg xmlns="http://www.w3.org/2000/svg" version="1.1" xmlns:xlink="http://www.w3.org/1999/xlink" width="512" height="512" x="0" y="0" viewBox="0 0 682.667 682.667" style="enable-background:new 0 0 512 512" xml:space="preserve" class=""><g><defs><clipPath id="a" clipPathUnits="userSpaceOnUse"><path d="M0 512h512V0H0Z" fill="#3d2b99" opacity="1" data-original="#000000"></path></clipPath></defs><g clip-path="url(#a)" transform="matrix(1.33333 0 0 -1.33333 0 682.667)"><path d="m0 0 37.168 14.477v41.415h107.595V14.477l88.318-34.399c27.564-10.735 53.782-24.214 53.796-53.796l.057-127.026m-391.936 0 .057 127.026c.013 29.582 26.232 43.061 53.796 53.796L-13.98-5.445m82.446-435.663H-74.945l-26.739 169.218m200.15-169.218h-15M283.615-271.89l-26.738-169.218H113.466" style="stroke-width:15;stroke-linecap:butt;stroke-linejoin:miter;stroke-miterlimit:22.926;stroke-dasharray:none;stroke-opacity:1" transform="translate(165.034 448.608)" fill="none" stroke="#3d2b99" stroke-width="15" stroke-linecap="butt" stroke-linejoin="miter" stroke-miterlimit="22.926" stroke-dasharray="none" stroke-opacity="" data-original="#000000" opacity="1"></path><path d="M0 0c-3.859-49.81 20.664-86.752 20.664-139.159m6.79 323.976C25.345 123.04 15.61 82.066 8.214 48.35" style="stroke-width:15;stroke-linecap:butt;stroke-linejoin:miter;stroke-miterlimit:22.926;stroke-dasharray:none;stroke-opacity:1" transform="translate(367.498 146.66)" fill="none" stroke="#3d2b99" stroke-width="15" stroke-linecap="butt" stroke-linejoin="miter" stroke-miterlimit="22.926" stroke-dasharray="none" stroke-opacity="" data-original="#000000" opacity="1"></path><path d="M0 0c-4.852-50.13.574-86.058 41.065-93.98M-96.196 0c4.851-50.13-.574-86.058-41.065-93.98" style="stroke-width:15;stroke-linecap:butt;stroke-linejoin:miter;stroke-miterlimit:22.926;stroke-dasharray:none;stroke-opacity:1" transform="translate(304.098 401.629)" fill="none" stroke="#3d2b99" stroke-width="15" stroke-linecap="butt" stroke-linejoin="miter" stroke-miterlimit="22.926" stroke-dasharray="none" stroke-opacity="" data-original="#000000" opacity="1"></path><path d="M0 0v-241.249" style="stroke-width:15;stroke-linecap:butt;stroke-linejoin:miter;stroke-miterlimit:22.926;stroke-dasharray:none;stroke-opacity:1" transform="translate(256 293.5)" fill="none" stroke="#3d2b99" stroke-width="15" stroke-linecap="butt" stroke-linejoin="miter" stroke-miterlimit="22.926" stroke-dasharray="none" stroke-opacity="" data-original="#000000" opacity="1"></path><path d="M0 0c3.859-49.81-20.664-86.752-20.664-139.159m-6.79 323.976C-25.345 123.04-15.61 82.066-8.214 48.35" style="stroke-width:15;stroke-linecap:butt;stroke-linejoin:miter;stroke-miterlimit:22.926;stroke-dasharray:none;stroke-opacity:1" transform="translate(144.502 146.66)" fill="none" stroke="#3d2b99" stroke-width="15" stroke-linecap="butt" stroke-linejoin="miter" stroke-miterlimit="22.926" stroke-dasharray="none" stroke-opacity="" data-original="#000000" opacity="1"></path><path d="m0 0-69.972-48.638L-25.421 64.03 8.217 48.347l46 68.914 72.7-38.581-89.919-95.54zm-222.988 0 69.972-48.638-44.551 112.668-33.638-15.683-46 68.914-72.7-38.581 89.919-95.54z" style="stroke-width:15;stroke-linecap:butt;stroke-linejoin:miter;stroke-miterlimit:22.926;stroke-dasharray:none;stroke-opacity:1" transform="translate(367.494 146.661)" fill="none" stroke="#3d2b99" stroke-width="15" stroke-linecap="butt" stroke-linejoin="miter" stroke-miterlimit="22.926" stroke-dasharray="none" stroke-opacity="" data-original="#000000" opacity="1"></path><path d="m0 0 13.977-5.444m13.978-5.445 13.977-5.444" style="stroke-width:15;stroke-linecap:butt;stroke-linejoin:miter;stroke-miterlimit:2.613;stroke-dasharray:none;stroke-opacity:1" transform="translate(338.976 419.525)" fill="none" stroke="#3d2b99" stroke-width="15" stroke-linecap="butt" stroke-linejoin="miter" stroke-miterlimit="2.613" stroke-dasharray="none" stroke-opacity="" data-original="#000000" opacity="1"></path></g></g></svg>