<svg xmlns="http://www.w3.org/2000/svg" version="1.1" xmlns:xlink="http://www.w3.org/1999/xlink" width="512" height="512" x="0" y="0" viewBox="0 0 512 512" style="enable-background:new 0 0 512 512" xml:space="preserve" class=""><g><path d="M495.316 152.859c-20.381-59.669-67.472-104.565-119.97-114.38-44.829-8.38-88.729 9.288-123.944 49.794-36.704-1.889-59.103-27.618-68.423-78.534a7.003 7.003 0 0 0-8.584-5.531l-53.2 13.3a7 7 0 0 0-5.292 7.155c1.978 38.019 15.462 73.521 37.97 99.965 22.685 26.653 52.762 42.773 87.28 46.857a67.488 67.488 0 0 0 26.84 45.418 83.436 83.436 0 0 0-1.737 12.356L53.685 106.533c-11.432-6.596-26.094-2.667-32.691 8.76s-2.667 26.092 8.761 32.691l132.142 76.292.5 8.226c.562 9.261 5.494 17.233 13.528 21.872l64.826 37.427a51.479 51.479 0 0 0-3.911 12.337c-24.964-4.693-50.443.667-75.918 15.987-32.93-23.304-69.589-28.591-101.23-14.428-29.954 13.408-50.95 42.464-53.488 74.023-2.518 31.3 12.696 59.446 42.839 79.254 2.31 1.519 4.64 3.013 6.956 4.499 17.978 11.53 33.504 21.487 33.948 37.719a7 7 0 0 0 6.997 6.809h48.747a7 7 0 0 0 7-7c0-48.19-36.657-71.265-60.913-86.533-2.906-1.83-5.652-3.558-8.187-5.227-10.777-7.099-15.473-14.694-12.254-19.822 3.081-4.91 13.337-8.198 23.041-2.399 1.291.771 2.61 1.599 3.972 2.452 12.264 7.688 28.89 18.111 57.24 10.85 37.157 26.564 81.32 40.65 126.619 40.648 7.521 0 15.083-.389 22.64-1.173 54.205-5.626 104.02-31.136 140.268-71.83 29.952-33.625 49.137-70.735 57.021-110.297 6.985-35.052 4.627-71.294-6.821-104.808zM33.117 122.292a9.937 9.937 0 0 1 8.618-4.963c1.684 0 3.39.428 4.949 1.328l112.749 65.095 1.444 23.769-124.123-71.663c-4.742-2.739-6.374-8.825-3.637-13.567zm143.253 109.36-.729-11.982-1.672-27.524 109.383 63.152c18.462 11.214 28.615 26.294 30.248 44.89-13.972 2.393-26.162 2.404-42.712-7.151l-87.965-50.787c-4.007-2.313-6.273-5.978-6.554-10.597zm258.292 127.001c-56.035 62.905-141.691 83.555-217.326 57.854l3.646-.183c3.86-.193 6.834-3.48 6.641-7.341s-3.474-6.822-7.342-6.641l-20.224 1.013a6.987 6.987 0 0 0-5.816 3.695 207.932 207.932 0 0 1-33.105-20.005 7.002 7.002 0 0 0-6.147-1.081c-24.362 7.219-37.56-1.057-49.204-8.355a231.504 231.504 0 0 0-4.226-2.608c-16.404-9.801-35.002-4.306-42.08 6.974-6.043 9.626-4.904 24.916 16.41 38.957 2.655 1.749 5.46 3.515 8.43 5.384 22.782 14.34 50.804 31.978 54.059 67.685h-35.203c-3.933-19.423-22.045-31.041-39.618-42.312a705.616 705.616 0 0 1-6.826-4.414c-25.673-16.871-38.661-40.464-36.573-66.433 2.135-26.537 19.898-51.017 45.254-62.367 16.508-7.39 50.276-15.181 90.962 15.671a7.001 7.001 0 0 0 8.017.309c26.452-17.018 51.555-21.913 76.75-14.96a6.999 6.999 0 0 0 8.862-6.638 37.625 37.625 0 0 1 2.959-14.006l10.93 6.31c13.575 7.837 25.073 10.363 35.988 10.363 7.558 0 14.836-1.211 22.329-2.708a7 7 0 0 0 5.628-6.833c.082-18.238-6.319-43.919-37.287-62.695l-.129-.076-10.288-5.94a69.733 69.733 0 0 1 2.568-21.507 6.998 6.998 0 0 0-3.022-7.83 53.492 53.492 0 0 1-25.066-43.138 7 7 0 0 0-6.453-6.689c-64.079-4.965-111.883-57.435-117.883-128.437l40.395-10.099c11.814 54.364 39.974 82.214 83.775 82.805h.095a7.001 7.001 0 0 0 5.359-2.497c32.188-38.311 72.272-55.233 112.876-47.64 1.416.265 2.827.562 4.234.884a6.953 6.953 0 0 0 1.053 2.874l10.99 17.008a6.993 6.993 0 0 0 9.678 2.081 6.999 6.999 0 0 0 2.08-9.678l-3.634-5.624c37.456 16.208 69.395 52.227 84.893 97.6 23.23 68.008 5.951 141.368-47.405 201.269zm-149.681 35.292a6.999 6.999 0 0 1-4.515 8.81l-19.272 6.213c-.714.23-1.438.34-2.149.34a7.004 7.004 0 0 1-6.66-4.854 6.999 6.999 0 0 1 4.515-8.81l19.272-6.213a7.002 7.002 0 0 1 8.81 4.514zm51.512-29.371a6.999 6.999 0 0 1-2.08 9.678l-17.008 10.989a6.996 6.996 0 0 1-9.679-2.081 7 7 0 0 1 2.081-9.678l17.008-10.989a7 7 0 0 1 9.678 2.081zm68.504-257.933a7 7 0 0 1 4.515-8.81 7 7 0 0 1 8.81 4.515l6.213 19.273a7 7 0 0 1-4.515 8.81c-.714.23-1.438.34-2.149.34a7.004 7.004 0 0 1-6.66-4.854l-6.213-19.273zm26.895 55.19 1.013 20.224a7 7 0 0 1-13.982.7l-1.013-20.224a7 7 0 0 1 6.642-7.341c3.842-.182 7.147 2.78 7.341 6.641zm-2.289 60.97-4.256 19.797a7.003 7.003 0 0 1-8.315 5.372 7 7 0 0 1-5.373-8.315l4.256-19.797a7 7 0 1 1 13.687 2.942zm-50.955 100.07a7 7 0 0 1 .496 9.887l-13.584 15.018a6.984 6.984 0 0 1-5.193 2.304 7 7 0 0 1-5.189-11.696l13.584-15.018a7.001 7.001 0 0 1 9.887-.496zm32.963-41.77-9.234 18.021a6.999 6.999 0 1 1-12.459-6.383l9.234-18.021a7 7 0 0 1 12.459 6.383z" fill="#ffffff" opacity="1" data-original="#000000"></path></g></svg>