<svg xmlns="http://www.w3.org/2000/svg" version="1.1" xmlns:xlink="http://www.w3.org/1999/xlink" width="512" height="512" x="0" y="0" viewBox="0 0 48 48" style="enable-background:new 0 0 512 512" xml:space="preserve" class=""><g><path d="M41.85 20.55c1.44-7.17-6.85-11.41-10.5-8.81.29-1 .21-.74 3.27-7.49A3 3 0 0 0 31.89 0h-3.2a3 3 0 0 0-3 2.51l-.39 2.36a1.36 1.36 0 0 1-2.68 0l-.39-2.36a3 3 0 0 0-3-2.51h-3.2a3 3 0 0 0-2.73 4.24c3.08 6.8 3 6.55 3.28 7.5C13 9.14 4.7 13.33 6.15 20.55a8 8 0 0 0 0 10.89c-1.3 6.42 5.21 11.34 11.21 9a2.87 2.87 0 0 0 .42.61c-1 1.09-.78 2.13-.78 4a3 3 0 0 0 3 3h8a3 3 0 0 0 3-3c0-1.91.19-2.93-.78-4a2.55 2.55 0 0 0 .42-.61c6 2.39 12.5-2.55 11.21-8.94a8 8 0 0 0 0-10.95zM15.2 3.41A1 1 0 0 1 16.11 2h3.2a1 1 0 0 1 1 .83l.39 2.36a3.37 3.37 0 0 0 6.64 0l.39-2.36a1 1 0 0 1 1-.83h3.2a1 1 0 0 1 .91 1.42C30 9.66 29 11.12 29 14.17c0 .89.05.67-.14 1-.64-.2-.22-.14-8.86-.14-1.05 0-.72.36-1-.09 0-3.76-.28-3.76-3.8-11.53zM27.7 17c-.75 1.2-1.1 2-2.36 2-3.94 0-3.63.26-5-2zm.3 23c-8.84 0-8.42.16-8.83-.47 4.84-2.42 5.89-1.88 9.66 0A1 1 0 0 1 28 40zm1 5a1 1 0 0 1-1 1h-8a1 1 0 0 1-1-1v-2a1 1 0 0 1 1-1h8a1 1 0 0 1 1 1zm11.07-14.61c-.86.78.45 1.65-.32 4.34-1 3.56-5.37 5.34-8.88 3.59C28 36.88 26.61 36 24 36s-4.13 1-6.89 2.38a6.31 6.31 0 0 1-8.86-3.6c-.78-2.7.57-3.53-.32-4.34a6 6 0 0 1 0-8.78c.84-.76-.29-1.38.19-3.8A6.13 6.13 0 0 1 14.34 13a2 2 0 0 1 1.69.94c4.6 7.35 3.62 7.06 9.31 7.06a4 4 0 0 0 3.39-1.88L32 13.94c1.27-2 7-.66 7.91 3.87.47 2.37-.64 3.05.19 3.8a6 6 0 0 1-.03 8.78z" fill="#3d2b99" opacity="1" data-original="#000000"></path><path d="M25.84 26.35a2.92 2.92 0 0 1-3.68 0 1 1 0 0 0-1.51 1.32 4.87 4.87 0 0 0 6.7 0 1 1 0 0 0-1.51-1.32zM34.84 22.35a2.92 2.92 0 0 1-3.68 0 1 1 0 0 0-1.51 1.31 4.86 4.86 0 0 0 6.7 0 1 1 0 0 0-1.51-1.31zM34.84 31.35a2.92 2.92 0 0 1-3.68 0 1 1 0 0 0-1.51 1.31 4.86 4.86 0 0 0 6.7 0 1 1 0 0 0-1.51-1.31zM16.84 22.35a2.92 2.92 0 0 1-3.68 0 1 1 0 0 0-1.51 1.32 4.87 4.87 0 0 0 6.69 0 1 1 0 0 0-1.5-1.32zM16.84 31.35a2.92 2.92 0 0 1-3.68 0 1 1 0 0 0-1.51 1.32 4.87 4.87 0 0 0 6.69 0 1 1 0 0 0-1.5-1.32z" fill="#3d2b99" opacity="1" data-original="#000000"></path></g></svg>