<svg xmlns="http://www.w3.org/2000/svg" version="1.1" xmlns:xlink="http://www.w3.org/1999/xlink" width="512" height="512" x="0" y="0" viewBox="0 0 512 512" style="enable-background:new 0 0 512 512" xml:space="preserve"><g><path d="M344.356 210.674a6.934 6.934 0 0 1-.081 9.801 6.924 6.924 0 0 1-4.86 1.986 6.912 6.912 0 0 1-4.941-2.067c-12.758-12.972-35.253-23.283-60.171-27.58a6.928 6.928 0 0 1-5.651-8.004c.649-3.775 4.234-6.292 8.006-5.653 13.289 2.293 46.483 9.95 67.698 31.517zM511.88 60.96c-15.776 84.42-65.031 153.966-122.56 173.051-.271.089-.543.078-.815.133a76.812 76.812 0 0 1 1.77 16.299c0 54.862-51.887 119.098-108.256 135.557v54.547c0 14.707-12.024 26.67-26.803 26.67h-6.015c-14.779 0-26.803-11.963-26.803-26.67v-54.534c-56.374-16.337-108.256-80.573-108.256-135.57 0-6.407.837-12.668 2.363-18.753C61.635 209.797 15.321 142.3.12 60.96a6.925 6.925 0 0 1 5.538-8.085c3.768-.698 7.383 1.779 8.083 5.536 14.305 76.538 56.973 139.791 107.288 160.158 2.156-4.866 4.791-9.568 7.865-14.083-44.512-28.262-81.437-85.272-97.32-151.147a6.935 6.935 0 0 1 5.112-8.364c3.714-.887 7.464 1.396 8.36 5.112 15.219 63.12 50.385 117.375 92.472 143.432 24.805-27.385 66.953-45.445 114.689-45.445 49.469 0 92.923 19.4 117.307 48.466h.001c44.406-24.733 81.742-80.843 97.437-146.439.89-3.725 4.637-6.013 8.351-5.126a6.927 6.927 0 0 1 5.126 8.351c-16.401 68.553-55.702 127.523-102.757 154.465 2.658 4.282 4.936 8.717 6.787 13.29.168-.071.321-.163.497-.222 52.889-17.549 98.421-82.83 113.303-162.448a6.929 6.929 0 0 1 8.083-5.536 6.925 6.925 0 0 1 5.538 8.085zM355.46 311.468c-24.374-.33-28.791-14.767-31.999-25.36-3.007-9.927-4.664-15.4-19.215-15.4-14.749 0-16.416 5.509-19.443 15.504-3.234 10.671-7.662 25.287-32.595 25.287-25.03 0-29.467-14.643-32.706-25.341-3.018-9.959-4.68-15.45-19.33-15.45s-16.312 5.491-19.33 15.45c-3.204 10.584-7.614 25.006-31.945 25.313 19.647 29.875 50.644 55.103 82.013 62.449l5.349 1.252v65.375c0 7.067 5.806 12.815 12.943 12.815h6.015c7.137 0 12.943-5.747 12.943-12.815v-65.362l5.335-1.261c31.341-7.418 62.312-32.637 81.965-62.456zm20.956-61.025c0-48.804-55.72-88.514-124.208-88.514-45.32 0-85.031 17.396-106.723 43.301-.103.249-.187.501-.321.742-.525.941-1.266 1.665-2.092 2.245-4.958 6.482-8.795 13.454-11.364 20.782-.048.204-.069.409-.136.611-.039.117-.121.205-.166.319-2.203 6.589-3.404 13.451-3.404 20.514 0 14.964 4.564 30.904 12.311 46.234 2.097.636 4.709.966 7.823.966 14.747 0 16.416-5.509 19.443-15.504 3.232-10.671 7.66-25.287 32.593-25.287s29.361 14.616 32.593 25.287c3.027 9.995 4.696 15.504 19.443 15.504 14.65 0 16.312-5.491 19.33-15.45 3.239-10.698 7.675-25.341 32.708-25.341 24.834 0 29.253 14.585 32.48 25.238 3.036 10.027 4.709 15.553 19.555 15.553 2.982 0 5.544-.257 7.672-.75 7.84-15.407 12.463-31.429 12.463-46.45z" fill="#3d2b99" opacity="1" data-original="#000000"></path></g></svg>