<svg xmlns="http://www.w3.org/2000/svg" version="1.1" xmlns:xlink="http://www.w3.org/1999/xlink" width="512" height="512" x="0" y="0" viewBox="0 0 75 75" style="enable-background:new 0 0 512 512" xml:space="preserve" class=""><g><path d="M34.12 49.073a21.853 21.853 0 0 1 4.525 4.07c.879 1.056 2.488 1.056 3.352 0 .982-1.202 2.562-2.88 4.518-4.048 2.446-1.462 3.648-3.722 3.47-6.589-.515-3.911-3.932-5.993-9.635-5.886-5.716-.117-9.15 1.974-9.67 5.938-.166 2.71.959 4.84 3.44 6.515zm11.625-1.266c-2.142 1.28-3.852 3.092-4.91 4.386-.324.397-.812.263-1.037-.01a23.379 23.379 0 0 0-4.839-4.353c-1.222-.826-2.022-1.753-2.442-2.82 2.688 1.284 5.677 1.29 8.27-.44.04-.032 4.095-3.08 7.43-.994.08.049.166.077.252.094-.165 1.758-1.071 3.15-2.724 4.137zM40.35 38.12c3.222-.064 7.101.58 8 3.83-4.04-1.917-8.286 1.284-8.436 1.4-3.62 2.418-7.276.039-7.44-.07a.736.736 0 0 0-.301-.114c-.002-.154-.01-.305 0-.464.494-3.759 4.405-4.661 8.177-4.582z" fill="#ffffff" opacity="1" data-original="#000000"></path><path d="M29.729 47.836a.75.75 0 1 0-1.158.954c1.928 2.34 3.836 2.57 6.239 4.973 3.044 3.044 2.386 5.411 2.47 10.81 0 .612.454 1.13 1.033 1.2.684.108 3.363.106 4.033.003a1.21 1.21 0 0 0 1.044-1.203c0-5.193-.187-6.766.929-8.812.489-.9 1.201-1.704 1.961-2.398a.75.75 0 0 0-1.02-1.1c-.886.814-1.682 1.719-2.259 2.78-1.111 2.039-1.111 3.769-1.111 5.96v3.312c-.713.05-2.397.051-3.11 0 0-5.086.543-8.16-2.91-11.612-2.564-2.564-4.395-2.746-6.141-4.867zM27.25 38.797a.75.75 0 1 0 1.34.672c2.032-4.052 7.504-4.812 11.764-4.726C45.592 34.642 52 35.809 52.8 41.844c.046.836 0 1.622-.137 2.337a.75.75 0 1 0 1.472.283c.16-.836.216-1.745.157-2.76-.74-5.61-5.694-8.604-13.939-8.461-6.68-.115-11.22 1.794-13.104 5.554zM57.325 16.228 54.4 18.054c-1.75 1.072-2.68 3.061-2.18 5.361.16 1.259 1.898 5.685.239 11.584a.75.75 0 0 0 1.444.407c1.778-6.327-.064-11.09-.217-12.313-.215-.985-.082-1.923.377-2.646.683-1.09 1.459-1.23 4.056-2.947a.75.75 0 1 0-.794-1.272zM58.99 13.039a.751.751 0 0 0-.638 1.357c1.478.696 2.198 1.973 2.026 3.598a.75.75 0 0 0 1.492.157c.236-2.241-.84-4.152-2.88-5.112zM61.535 25.132a.75.75 0 0 0 .914.536c1.524-.396 2.51-1.57 2.635-3.14a.75.75 0 0 0-.688-.808.756.756 0 0 0-.807.688c-.075.931-.614 1.574-1.518 1.81a.75.75 0 0 0-.536.914z" fill="#ffffff" opacity="1" data-original="#000000"></path><path d="M55.095 6.284c-2.621 1.076-5.067 3.8-4.545 6.537.256 1.34.976 2.376 2.142 3.079.514.309 1.047.538 1.65.798l.297-.69.208-.726c-.491-.211-.955-.41-1.38-.667-1.392-.839-1.994-2.58-.973-4.254 1.387-2.275 4.033-3.623 7.125-3.017 2.564.5 5.582 2.728 7.251 6.504.715 1.613.997 3.418.96 5.197-.077 3.833-1.74 7.048-5.285 8.552l-.15.064c-2.769 1.165-5.796-1.177-5.305-4.178l.353-2.152a.75.75 0 0 0-1.48-.244l-.353 2.154c-.686 4.184 3.531 7.42 7.368 5.801l.153-.064c4.08-1.73 6.108-5.459 6.199-9.902.184-8.99-7.837-15.42-14.235-12.792zM28.449 23.413c.498-2.29-.424-4.282-2.175-5.356l-2.93-1.83a.75.75 0 0 0-.794 1.273l2.935 1.832c1.224.751 1.858 2.109 1.498 3.76-.155 1.242-1.996 5.984-.217 12.314a.75.75 0 0 0 1.444-.407 19.222 19.222 0 0 1-.262-9.318zM22.319 14.396a.75.75 0 1 0-.639-1.357c-2.04.96-3.116 2.87-2.88 5.112a.75.75 0 0 0 1.493-.157c-.172-1.625.548-2.903 2.026-3.598zM18.6 24.217c-.905-.235-1.444-.878-1.518-1.809a.75.75 0 1 0-1.495.12c.125 1.57 1.11 2.744 2.634 3.14a.75.75 0 1 0 .378-1.45z" fill="#ffffff" opacity="1" data-original="#000000"></path><path d="M16.587 7.846c-4.91 3.846-6.393 10.317-4.415 15.65.9 2.419 2.857 4.418 5.367 5.482l.154.064c3.862 1.63 8.048-1.649 7.368-5.801l-.353-2.153a.75.75 0 0 0-1.48.242l.352 2.153c.49 2.99-2.523 5.35-5.304 4.178a20.94 20.94 0 0 0-.151-.064c-2.132-.904-3.79-2.59-4.546-4.624-1.788-4.812-.401-10.552 3.933-13.947 3.84-3.004 8.549-2.134 10.665 1.335.435.714.602 1.488.47 2.178-.321 1.684-1.486 2.168-2.912 2.78-.38.165-.512.587-.348.967.164.381.65.539 1.029.374.516-.222 1.049-.451 1.563-.76 2.113-1.274 2.93-3.941 1.478-6.32-2.557-4.192-8.282-5.328-12.87-1.734zM56.69 45.814c-5.045 0-9.15 4.104-9.15 9.15 0 5.045 4.105 9.15 9.15 9.15s9.15-4.105 9.15-9.15c0-5.046-4.105-9.15-9.15-9.15zm0 16.8c-4.218 0-7.65-3.432-7.65-7.65s3.432-7.65 7.65-7.65 7.65 3.432 7.65 7.65-3.432 7.65-7.65 7.65zM25.41 48.339a.75.75 0 0 0 1.142.972c.401-.587 1.434-1.24 1.32-2.672a2.463 2.463 0 0 0-.378-1.11l2.104-2.47a.75.75 0 0 0-1.143-.973l-2.104 2.472a2.477 2.477 0 0 0-2.847.67l-.735.863a.75.75 0 0 0 1.143.973l.734-.863a.985.985 0 0 1 1.386-.112h.002a.983.983 0 0 1 .11 1.387zM9.924 68.839a1.983 1.983 0 0 0 2.79-.226c.06-.1.654-.601.577-1.57a1.961 1.961 0 0 0-.651-1.308l2.784-3.269a.75.75 0 1 0-1.142-.972l-2.781 3.265-1.368-1.164 2.783-3.266a.75.75 0 1 0-1.142-.973l-2.787 3.272a1.979 1.979 0 0 0-2.738.261l-.11.13a1.982 1.982 0 0 0 .224 2.79zM7.28 63.99l.11-.13a.48.48 0 0 1 .676-.054l3.561 3.03a.478.478 0 0 1 .053.676l-.11.13a.48.48 0 0 1-.675.053l-3.561-3.029a.48.48 0 0 1-.054-.676zM17.597 62.422a.751.751 0 0 0 .972-1.142l-.644-.548 6.837-8.032a2.01 2.01 0 0 0-.228-2.83l-1.97-1.678a2.01 2.01 0 0 0-2.83.228l-6.837 8.031-.529-.45a.75.75 0 0 0-.973 1.143l6.202 5.278zm3.279-13.03a.508.508 0 0 1 .715-.057l1.97 1.677c.214.181.24.503.058.716l-2.454 2.883c-.15-.039-1.462-.962-3.081-.162-.43.214-.924.22-1.358.021l-.124-.057zm-5.285 6.209c.23.06 1.539.996 3.158.193.433-.214.93-.22 1.367-.017l.04.019-3.373 3.963-2.744-2.335z" fill="#ffffff" opacity="1" data-original="#000000"></path><path d="M54.336 51.542c-2.082.312-3.537 1.732-3.312 3.233.356 2.379 4.41 2.927 6.517 1.057 2.181-1.935.314-4.816-3.205-4.29zm2.209 3.169c-1.368 1.214-3.896.784-4.037-.158-.086-.57.936-1.57 2.61-1.57 1.354 0 2.5.775 1.427 1.728zM61.568 54.257c-.371 1.058-1.608 2.074-2.714 2.09-.413.041-.754.33-.758.743a.75.75 0 0 0 .743.758h.029c1.71 0 3.53-1.432 4.115-3.093a.75.75 0 0 0-1.415-.498z" fill="#ffffff" opacity="1" data-original="#000000"></path></g></svg>