<svg xmlns="http://www.w3.org/2000/svg" version="1.1" xmlns:xlink="http://www.w3.org/1999/xlink" width="512" height="512" x="0" y="0" viewBox="0 0 198.885 254.572" style="enable-background:new 0 0 512 512" xml:space="preserve"><g><path d="M41.639 106.567a24.855 24.855 0 0 1-4.515 1.846c-5.305 1.58-10.804 1.256-15.715-.597l-1.207 1.137c1.751 10.271 2.979 16.945 3.83 21.276 6.936 3.875 12.656 7.954 17.248 13.974 3.55 4.654 6.429 10.465 8.67 18.254L20.625 188.29a12.5 12.5 0 0 0-3.264 14.215l18.628 44.398c2.008 4.787 6.646 7.667 11.531 7.667 1.612 0 3.252-.314 4.831-.977 6.366-2.671 9.361-9.997 6.69-16.362l-15.153-36.119 17.893-15.763-6.879 15.009a12.502 12.502 0 0 0 1.455 12.83l27.5 35.75a12.481 12.481 0 0 0 9.917 4.879c2.66 0 5.341-.845 7.612-2.593 5.473-4.209 6.496-12.057 2.287-17.529L80.77 203.921l16.108-35.146c.223-.487.4-.981.557-1.479.919-2.076 1.115-4.681.306-7.275-4.483-14.422-9.24-28.741-15.603-42.137-3.01-6.336-6.387-12.461-10.267-18.292 8.765 2.507 17.439 7.975 22.484 11.77l2.611 36.354a616.581 616.581 0 0 1 2.017 6.248l2.326-2.423 1.992.301 5.473 1.616 3.729-2.551 8.761 24.75-4.197.763-3.035 2.818-3.048-1.642-4.626 2.721h-2.092l-3.334.535-2.007-9.34-2.089 4.558 1.764 8.212 5.79-.965h2.784l3.874-2.279 3.452 1.858 3.965-3.682 6.803-1.237-11.239-31.75-1.074.735-2.891-40.244a8 8 0 0 0-2.783-5.51c-1.1-.939-27.202-22.953-51.081-18.313a8 8 0 0 0-1.455.433c.517 9.343-4.309 18.59-13.106 23.239z" fill="#3d2b99" opacity="1" data-original="#000000"></path><path d="M198.885 167.025a5.445 5.445 0 0 0-5.443-5.443h-23.396a5.442 5.442 0 0 0-5.443 5.443v26.002c0 4.422-5.744 5.783-5.744 5.783H97.626v7.257c0 14.364 19.05 17.69 19.05 17.69l6.047 29.029h76.162zM8.809 80.742a4.766 4.766 0 0 1 3.22 1.769 4.78 4.78 0 0 1-.415 6.46 5.487 5.487 0 0 1-.3.267 5.73 5.73 0 0 0-.265.243c-.485.468-1.357 1.435-2.138 2.812.042.116.087.232.131.348 2.69-.214 5.365.064 7.098 1.17 1.415.903 1.877 2.091 2.016 2.928.461 2.797.893 5.385 1.302 7.818 6.375 3.414 14.278 3.699 21.153.064 10.982-5.804 15.18-19.414 9.375-30.399-5.806-10.982-19.417-15.18-30.4-9.376-6.351 3.358-10.427 9.326-11.618 15.885.278-.017.558-.02.841.011zm36.052 8.397-1.053 2.809c-7.137-2.675-17.229 4.725-17.329 4.8l-1.79-2.407c.466-.348 11.501-8.455 20.172-5.202zM113.174 171.157c.231.828 1.097 1.316 1.925 1.085s1.316-1.097 1.085-1.925l-3.562-12.762c-.231-.828-1.097-1.316-1.925-1.085s-1.316 1.097-1.085 1.925zM109.48 164.128c-.231-.828-1.097-1.316-1.925-1.085s-1.316 1.097-1.085 1.925l2.704 9.689c.231.828 1.097 1.316 1.925 1.085s1.316-1.097 1.085-1.925zM103.792 162.315c-.231-.828-1.097-1.316-1.925-1.085s-1.316 1.097-1.085 1.925l2.704 9.689c.231.828 1.097 1.316 1.925 1.085s1.316-1.097 1.085-1.925z" fill="#3d2b99" opacity="1" data-original="#000000"></path><circle cx="103.867" cy="157.575" r="1.781" fill="#3d2b99" opacity="1" data-original="#000000"></circle><path d="M.721 103.469c5.239 31.507 6.968 38.503 7.958 41.092 1.578 4.127 6.205 6.201 10.332 4.624a7.993 7.993 0 0 0 4.619-10.322c-.369-1.02-2.018-7.043-7.744-41.749-.428-2.592-6.182-2.722-10.627-1.485.94-5.069 4.384-7.996 4.599-8.172a2.5 2.5 0 0 0-3.137-3.894c-.382.305-9.259 7.601-6.005 19.89l.005.016zM52.947 62.521c1.68.366 2.911-.64 3.215-2.035.311-1.43-.448-2.756-2.201-3.138-1.573-.342-2.911.64-3.199 1.962-.312 1.431.361 2.813 2.185 3.211zM59.338 44.176l.864-3.969c.241-1.109-.151-2.055-1.868-2.429-1.68-.366-2.438.367-2.657 1.369l-.88 4.04-1.784 11.97 2.968.646zM67.507 44.831c.109-.5.35-.748.687-.749.497-.043 1.069.082 1.677.214 1.394.303 2.14 1.178 1.829 2.609-.405 1.859-1.567 2.205-3.353 3.014-2.487 1.107-3.786 1.911-4.154 4.976l-.31 2.629 3.755.818.374-1.717c.498-2.288 1.071-2.688 3.544-3.722 3.007-1.256 4.434-2.818 5.017-5.499.537-2.467-.505-5.764-5.368-6.823-2.467-.537-5.24-.355-6.855.005l-1.129 5.185 3.835 1.134zM64.395 64.975c1.68.366 2.919-.675 3.207-1.999.319-1.465-.45-2.757-2.165-3.13-1.574-.343-2.895.569-3.199 1.962-.311 1.432.404 2.786 2.157 3.167zM135.025 89.222l-9.131 58.007 18.308-55.422c2.571.443 5.21.687 7.908.687 25.542 0 46.247-20.706 46.247-46.247S177.651 0 152.109 0s-46.247 20.706-46.247 46.247c0 19.505 12.081 36.178 29.163 42.975zm15.427-80.655c21.787 0 39.448 17.662 39.448 39.448 0 21.787-17.662 39.448-39.448 39.448-21.787 0-39.448-17.662-39.448-39.448s17.662-39.448 39.448-39.448z" fill="#3d2b99" opacity="1" data-original="#000000"></path><path fill="#c00000" d="M150.981 73.794c9.596 0 17.374-7.779 17.374-17.374s-17.374-36.13-17.374-36.13-17.374 26.535-17.374 36.13 7.779 17.374 17.374 17.374z" opacity="1" data-original="#c00000"></path></g></svg>