<svg xmlns="http://www.w3.org/2000/svg" version="1.1" xmlns:xlink="http://www.w3.org/1999/xlink" width="512" height="512" x="0" y="0" viewBox="0 0 512 512" style="enable-background:new 0 0 512 512" xml:space="preserve"><g><path d="m29.991 109.937 46.986 46.983c14.454 14.454 21.268 34.315 18.23 53.13a59.98 59.98 0 0 0 2.939 30.341 5.663 5.663 0 0 0 7.271 3.345 5.66 5.66 0 0 0 3.345-7.271 48.648 48.648 0 0 1-2.387-24.609c3.621-22.392-4.38-45.918-21.397-62.936l-46.983-46.983a4.12 4.12 0 0 1 0-5.816l58.129-58.129a4.113 4.113 0 0 1 5.816 0l46.983 46.983c17.018 17.021 40.533 25.022 62.943 21.397 17.684-2.858 35.472 4.284 46.43 18.627 21.154 27.712 6.274 69.579-29.133 76.631-13.942 2.77-24.746 13.574-27.523 27.516-5.189 26.054-30.293 42.781-56.471 37.958-3.094-.593-6.026 1.459-6.593 4.534a5.66 5.66 0 0 0 4.538 6.59 60.057 60.057 0 0 0 10.947 1.002c28.988 0 53.167-20.195 58.674-47.874a23.657 23.657 0 0 1 18.638-18.631c43.702-8.697 62.017-60.399 35.918-94.592-13.493-17.67-35.42-26.462-57.23-22.93-18.815 3.032-38.684-3.776-53.138-18.23L109.94 29.99c-6.011-6.019-15.806-6.022-21.817 0L29.995 88.12c-6.015 6.011-6.015 15.798-.004 21.817zM482.019 423.874l-58.125 58.125a15.4 15.4 0 0 1-10.901 4.526c-3.96 0-7.921-1.509-10.939-4.526l-46.96-46.96c-14.446-14.446-34.324-21.273-53.146-18.256-21.802 3.546-43.754-5.243-57.219-22.933-26.328-34.475-7.431-85.961 35.908-94.561a23.695 23.695 0 0 0 18.633-18.633c8.902-44.697 63.217-63.518 97.767-33.343 15.691 13.692 23.084 34.135 19.765 54.654-3.055 18.784 3.772 38.662 18.218 53.108l46.997 46.997c5.999 5.998 5.999 15.804.002 21.802zM354.17 75.128a5.654 5.654 0 0 0-7.411 3.02l-24.178 57.429c-1.569 3.728 1.177 7.853 5.212 7.853 2.21 0 4.306-1.3 5.219-3.462l24.178-57.429a5.66 5.66 0 0 0-3.02-7.411zM389.705 118.074l-40.802 40.806a5.657 5.657 0 0 0 0 8.001 5.655 5.655 0 0 0 8 0l40.802-40.806c2.21-2.21 2.21-5.79 0-8.001s-5.79-2.21-8 0zM372.79 190.178a5.666 5.666 0 0 0 7.411 3.02l57.429-24.178a5.66 5.66 0 0 0 3.02-7.411 5.655 5.655 0 0 0-7.411-3.02l-57.429 24.178a5.66 5.66 0 0 0-3.02 7.411zM163.278 438.985a5.666 5.666 0 0 0 7.411-3.02l24.178-57.433a5.66 5.66 0 0 0-3.02-7.411 5.653 5.653 0 0 0-7.411 3.02l-24.178 57.433a5.657 5.657 0 0 0 3.02 7.411zM127.743 396.036l40.802-40.802c2.21-2.21 2.21-5.79 0-8.001s-5.79-2.21-8.001 0l-40.802 40.802a5.655 5.655 0 0 0 0 8 5.656 5.656 0 0 0 8.001.001zM144.658 323.936a5.65 5.65 0 0 0-7.411-3.02L79.818 345.09a5.66 5.66 0 0 0-3.02 7.411 5.666 5.666 0 0 0 7.411 3.02l57.429-24.175a5.658 5.658 0 0 0 3.02-7.41z" fill="#3d2b99" opacity="1" data-original="#000000"></path><path d="M258.724 214.874c-23.272 0-42.17 18.935-42.17 42.207 0 23.235 18.897 42.17 42.17 42.17s42.207-18.935 42.207-42.17c0-23.272-18.935-42.207-42.207-42.207zm0 73.061c-17.011 0-30.854-13.843-30.854-30.854 0-17.049 13.843-30.892 30.854-30.892 17.049 0 30.892 13.843 30.892 30.892-.001 17.011-13.843 30.854-30.892 30.854z" fill="#3d2b99" opacity="1" data-original="#000000"></path></g></svg>