<svg xmlns="http://www.w3.org/2000/svg" version="1.1" xmlns:xlink="http://www.w3.org/1999/xlink" width="512" height="512" x="0" y="0" viewBox="0 0 512.01 512.01" style="enable-background:new 0 0 512 512" xml:space="preserve"><g><path d="M321.466 57.468c-5.486-.64-10.449 3.292-11.088 8.778-.078.675-7.79 65.375-27.417 103.903-11.08 1.925-21.219 7.852-28.437 16.778a46.792 46.792 0 0 0-10.358 31.388 166.076 166.076 0 0 1-6.112 4.917c-12.526 9.588-23.065 18.576-31.95 27.321-12.938 12.579-24.342 27.029-32.067 43.408-1.062 2.248-1.927 5.27-4.969 5.27-15.201 0-28.383 12.059-29.093 27.361-.577 12.71 7.378 24.372 19.377 28.47a140.959 140.959 0 0 0 4.098 15.794c17.479 54.354 66.477 93.176 124.25 96.499 1.032.06 2.073.112 3.121.157v34.499c0 5.523 4.478 10 10 10s10-4.477 10-10v-34.779c15.315-1.534 45.348-7.588 75.402-30.903 4.363-3.385 5.156-9.667 1.771-14.031-3.387-4.365-9.667-5.157-14.031-1.772-35.949 27.889-72.275 27.228-72.81 27.205-.055-.002-.109.004-.164.003-.057-.001-.112-.009-.169-.009-4.058 0-8.086-.113-11.973-.337-36.402-2.094-68.721-20.686-89.225-48.922 18.983-21.472 29.247-49.101 30.526-82.267.9-23.356-3.022-43.849-5.877-55.33 7.044-6.595 15.552-13.806 25.937-21.756a189.148 189.148 0 0 0 11.097-9.199 9.999 9.999 0 0 0 3.191-9.116c-1.297-7.682.684-15.244 5.577-21.294 4.878-6.031 12.039-9.68 19.647-10.011.148-.006.292-.034.439-.047l.001.018c1.902-.149 18.862-.902 26.395 17.684a10 10 0 0 0 9.271 6.246c1.25 0 2.521-.236 3.752-.735 5.119-2.074 7.586-7.905 5.512-13.024-6.852-16.908-19.422-24.956-30.592-28.264 18.481-41.737 25.428-100.092 25.745-102.818.638-5.486-3.292-10.448-8.777-11.085zM188.724 380.233a119.97 119.97 0 0 1-9.813-29.369c-1.341-6.864-6.324-12.498-13.006-14.702-3.682-1.214-6.128-4.774-5.949-8.659.21-4.56 4.299-8.27 9.115-8.27 9.409 0 18.161-5.773 21.967-14.365 4.214-9.538 9.863-18.348 16.49-26.383 4.32 25.092 6.623 68.472-18.804 101.748zM489.023 67.4c0-5.523-4.478-10-10-10s-10 4.477-10 10v390.388c0 5.523 4.478 10 10 10s10-4.477 10-10z" fill="#3d2b99" opacity="1" data-original="#000000"></path><path d="M208.653 38.591C191.022 16.922 166.008 3.415 138.218.56 110.43-2.298 83.19 5.843 61.522 23.474c-44.732 36.397-51.515 102.4-15.12 147.132 17.631 21.669 42.646 35.176 70.435 38.031 27.489 2.827 55.263-5.474 76.696-22.913a105.39 105.39 0 0 0 10.728-10.053l29.956.101c7.208 0 12.176-7.729 9.071-14.281l-14.394-30.39c7.729-32.361.122-67.483-20.241-92.51zm-8.84 117.065a10 10 0 0 0-7.665 3.537 85.328 85.328 0 0 1-11.237 11.017c-17.525 14.26-39.558 20.84-62.03 18.532-22.475-2.309-42.705-13.233-56.965-30.758-29.436-36.178-23.949-89.56 12.229-118.996 15.229-12.392 33.857-18.985 53.227-18.985 25.384 0 49.744 11.516 65.768 31.211 17.117 21.038 23.068 51.014 15.531 78.23a9.992 9.992 0 0 0 .601 6.95l9.152 19.325z" fill="#3d2b99" opacity="1" data-original="#000000"></path><path d="M127.347 43.792c-19.639-.388-36.251 15.862-36.251 35.516 0 5.523 4.478 10 10 10s10-4.477 10-10c0-8.595 7.251-15.71 15.849-15.52 8.091.163 14.757 6.611 15.176 14.681.455 8.769-6.709 16.362-15.502 16.362-5.522 0-10 4.477-10 10v19.048c0 5.523 4.478 10 10 10s10-4.477 10-10v-10.498c15.643-4.612 26.319-19.673 25.475-35.95-.961-18.49-16.223-33.266-34.747-33.639zM132.171 147.629c-7.551-5.032-17.608 2.267-15.185 10.984 1.142 4.11 4.878 7.102 9.142 7.323 4.26.221 8.285-2.429 9.812-6.395 1.672-4.344.049-9.295-3.769-11.912zM477.071 492.21c-5.319 1.07-8.943 6.408-7.85 11.75 1.081 5.328 6.405 8.938 11.76 7.85 5.332-1.083 8.913-6.402 7.84-11.75-1.07-5.332-6.401-8.926-11.75-7.85z" fill="#3d2b99" opacity="1" data-original="#000000"></path></g></svg>