<svg xmlns="http://www.w3.org/2000/svg" version="1.1" xmlns:xlink="http://www.w3.org/1999/xlink" width="512" height="512" x="0" y="0" viewBox="0 0 64 64" style="enable-background:new 0 0 512 512" xml:space="preserve" class=""><g><path d="M31.29 11.23c-5.92-4.15-5.27-9.26-5.24-9.48.03-.19-.03-.38-.15-.53s-.31-.23-.5-.23h-9.19c-.01 0-.02 0-.03.01-.07.01-.14.04-.2.08h-.01a.65.65 0 0 0-.28.35l-.58 1.7-2.65-2.02c-.21-.16-.51-.18-.74-.04s-.35.4-.31.67c.31 1.94.6 4.57.88 8.03.03.36.35.64.71.6a.66.66 0 0 0 .6-.71c-.21-2.63-.43-4.78-.66-6.53l2.1 1.6c.17.13.39.17.59.1.2-.06.35-.21.42-.41 1.24 8.98 4.83 38.46 1.67 57.24h-2.21c-.05-3.77-.35-23.25-1.14-39.6a.68.68 0 0 0-.69-.63c-.36.02-.64.33-.63.69.88 18.07 1.15 39.98 1.15 40.2 0 .36.3.65.66.65h10.51c.23 0 .45-.12.57-.33.72-1.23 1.69-2.2 3.05-3.06.31-.19.4-.6.21-.91s-.6-.4-.91-.21c-1.43.9-2.48 1.92-3.29 3.19h-5.95c.92-5.56 1.26-12.02 1.25-18.61.14 0 .28-.03.43-.08 2.83-1.1 3.35-14.79 1.56-40.68h2.42c-.01 1.77.53 6.27 5.84 10 1.66 1.16 3.65 2.86 5.64 4.81l.4-1.43c-1.86-1.79-3.71-3.36-5.28-4.45zm-11 30.53c-.15-17.57-2.65-35.62-3.21-39.44h3.9c2.54 36.63-.26 39.26-.68 39.44zM47.79 35.27c.21.99.93 1.73 1.88 1.95.65.14 1.43.55 1.43 1.74 0 1.06-.55 1.67-1.64 1.81-.97.12-1.79.86-2.09 1.88-1.6 5.58-5.95 9.93-12.93 12.93l-.46.2c-.51.21-1 .42-1.47.63-.33.14-.49.53-.34.86a.66.66 0 0 0 .86.35c.47-.2.95-.41 1.46-.62l.46-.2c7.26-3.11 12-7.88 13.68-13.77.15-.51.54-.88.99-.94 1.75-.22 2.79-1.39 2.79-3.11 0-1.57-.92-2.7-2.46-3.03-.44-.1-.78-.46-.88-.94-1.13-5.52-5.14-11.1-8.02-14.53l-1.86-.15c4.66 5.3 7.7 10.6 8.59 14.95zM37.55 17.11v-.02l-.48 1.74zM39.57 19.03l-2.5-.2 2.52.2h-.02z" fill="#ffffff" opacity="1" data-original="#000000"></path><path d="M13.49 18.12c.36-.02.64-.33.62-.69l-.18-3.08a.66.66 0 1 0-1.32.08l.18 3.07c.02.35.31.62.65.62h.04zM28.38 54.74c.09 0 .18-.02.27-.06 1.68-.76 3.36-1.56 4.99-2.38.33-.17 3.22-1.67 3.2-3.45 0-.51-.25-1.22-1.38-1.76-2.09-.99-4.55 1.63-5.82 3.28a11.87 11.87 0 0 0-1.88 3.5c-.08.25 0 .52.18.7.12.11.28.17.44.17zm2.29-3.56c1.45-1.87 2.89-2.98 3.82-2.98.15 0 .28.03.4.08.23.11.62.33.63.58 0 .59-1.3 1.66-2.48 2.25-1.11.56-2.25 1.11-3.4 1.65.29-.55.63-1.09 1.03-1.59zM26.31 44.96c.08.26.32.45.59.46l6.24.34c.4.02.77.03 1.12.03 2.03 0 3.35-.36 4.01-1.08.38-.42.54-.95.46-1.54-.18-1.27-1.72-1.52-2.55-1.66l-.18-.03c-1.1-.2-2.24-.2-3.38-.01-2.08.34-4.13 1.28-6.09 2.79-.22.17-.31.45-.23.72zm6.53-2.21a8.79 8.79 0 0 1 2.94.01l.19.03c.35.06 1.42.24 1.46.55.04.25-.04.38-.12.47-.22.24-1.06.78-4.09.62l-4.3-.23c1.29-.75 2.6-1.24 3.92-1.46zM38.48 50.95c0 .25.15.47.38.57.09.04.19.06.28.06.14 0 .28-.05.4-.14 1.16-.89 2.48-1.9 3.26-3.34.65-1.2 1.06-3.12.44-4.49-.35-.76-.92-.9-1.23-.91-1.07-.03-2.13 1.16-2.47 1.76-.51.88-.7 1.86-.83 2.71-.19 1.25-.26 2.52-.22 3.78zM40 47.36c.11-.72.27-1.55.67-2.24.32-.55 1.07-1.14 1.27-1.1 0 0 .04.03.1.15.41.91.1 2.39-.4 3.32-.44.81-1.11 1.48-1.84 2.09.03-.74.09-1.48.2-2.21zM39.47 41.2c.38.33.83.46 1.3.46 1.05 0 2.19-.67 2.88-1.3a5.22 5.22 0 0 0 1.64-4.2.654.654 0 0 0-.74-.6c-1.2.15-2.84.36-3.95 1.46-1.16 1.14-1.74 2.15-1.71 2.99.02.47.22.88.58 1.19zm2.05-3.24c.6-.59 1.46-.83 2.45-.99-.1.91-.53 1.8-1.21 2.42-.67.61-1.92 1.26-2.43.81a.281.281 0 0 1-.12-.24c-.01-.33.33-1.04 1.31-2.01zM36.69 36.66a8.35 8.35 0 0 0-3.73-1.06c-1.84-.09-3.69.45-5.2 1.51a.658.658 0 0 0 .15 1.16c.1.05.39.19.74.36 1.17.58 1.62.8 1.79.85.97.3 1.98.45 3 .45h.04c1.21 0 2.26-.17 3.12-.51.92-.35 1.1-.93 1.12-1.25.04-.57-.33-1.12-1.03-1.51zm-.56 1.53c-.71.27-1.6.41-2.66.42a8.36 8.36 0 0 1-2.64-.39c-.14-.05-.8-.38-1.31-.63a7.13 7.13 0 0 1 3.37-.68c1.1.05 2.19.36 3.15.9.22.12.32.23.36.23-.03.03-.12.09-.28.15zM42.89 34.59c.11 0 .21-.01.3-.03.5-.09.91-.35 1.18-.75.35-.52.46-1.28.29-2.04-.47-2.15-1.87-4.09-3.74-5.18a.668.668 0 0 0-.67 0c-.21.13-.33.36-.31.6.1 1.67.2 3.39.72 5.06.61 1.94 1.57 2.33 2.23 2.33zm.49-2.54c.09.4.05.81-.1 1.03-.07.11-.17.17-.32.19-.55.11-.95-1.05-1.06-1.4-.33-1.07-.48-2.21-.57-3.34 1.01.92 1.75 2.17 2.04 3.53zM37.27 26.99c.5-.68.55-1.56.13-2.19-.08-.12-.19-.24-.29-.34-.04-.04-.08-.08-.12-.13-.14-.17-.24-.43-.34-.71-.21-.55-.47-1.24-1.21-1.53-.28-.11-.55-.12-.77-.13h-.12c-.46-.03-.91-.16-1.32-.37-.18-.09-.35-.21-.53-.32-.44-.28-.95-.6-1.56-.7-1.14-.18-2.32.53-2.69 1.62-.04.1-.06.21-.09.32-.04.14-.08.29-.12.35-.1.13-.22.22-.36.33-.28.23-.63.51-.84 1.05-.17.45-.26.94-.35 1.38l-.08.41c-.1.47-.21 1-.13 1.53.09.62.43 1.1.73 1.52.11.16.22.31.32.47.05.09.1.19.15.29.15.3.33.65.63.93.32.3.77.46 1.2.42.17.37.37.73.66 1.04.5.55 1.15.86 1.8.86.09 0 .18 0 .27-.02 1.08-.15 1.75-1.14 2.08-1.61.05-.07.15-.23.2-.25.03-.01.12-.02.18-.02.07 0 .15 0 .22-.02.85-.11 1.57-.81 1.71-1.66l.03-.22c0-.04.01-.09.02-.14.06-.01.12-.02.18-.04.57-.16.98-.7.98-1.29 0-.3-.2-.55-.48-.63a1.45 1.45 0 0 1-.19-.06c0-.01.02-.02.02-.03l.09-.12zm-1.06-.78-.07.09c-.16.2-.4.51-.38.94 0 .19.06.46.3.72-.05.02-.09.04-.14.07-.49.29-.55.81-.59 1.12l-.02.15c-.05.28-.31.53-.59.57h-.14c-.17.02-.38.04-.6.13-.4.17-.62.51-.77.73-.34.51-.72.99-1.16 1.05-.29.04-.65-.13-.91-.42-.3-.33-.49-.8-.66-1.25-.08-.23-.25-.42-.49-.45h-.11c-.19 0-.36.08-.48.24-.03 0-.14-.02-.2-.08-.13-.13-.24-.34-.36-.56-.06-.12-.12-.24-.18-.35-.11-.2-.25-.39-.39-.58-.24-.34-.45-.63-.5-.94-.04-.3.04-.69.11-1.08l.08-.43c.07-.4.15-.81.28-1.14.08-.21.2-.31.44-.5.17-.14.36-.29.55-.52.23-.28.32-.6.38-.86.02-.08.04-.15.06-.22.16-.48.73-.83 1.24-.74.35.06.7.28 1.06.51.2.13.41.26.62.37.57.3 1.21.48 1.85.51h.14c.14.01.28.02.36.05.18.07.29.34.46.77.13.35.28.74.55 1.07.06.07.12.14.19.21.05.05.11.11.15.17.11.16.06.46-.1.68zM48.88 13.41c.21.3.62.37.92.16l2.54-1.77c.14-.1.24-.25.27-.42s0-.35-.11-.49l-2.67-3.82a.658.658 0 0 0-.92-.16l-7.79 5.44-1.79-2.57a.645.645 0 0 0-.65-.27c-.25.04-.46.23-.52.47l-1.58 5.71-.4 1.43-.59 2.12c-.05.19-.02.39.09.55s.29.26.49.28l3.04.25 1.86.15 4.68.38h.05c.23 0 .45-.13.57-.33.13-.22.11-.49-.03-.7l-1.8-2.57 1.45-1.01c.3-.21.37-.62.16-.91a.647.647 0 0 0-.91-.16l-1.99 1.39c-.14.1-.24.25-.27.42s0 .35.11.49l1.37 1.97-4.87-.4-2.52-.2.48-1.74 1.5-5.4 1.36 1.96c.1.14.25.24.42.27s.35 0 .49-.11l7.79-5.44 1.92 2.74-2 1.39c-.3.21-.37.62-.16.92z" fill="#ffffff" opacity="1" data-original="#000000"></path></g></svg>