<svg xmlns="http://www.w3.org/2000/svg" version="1.1" xmlns:xlink="http://www.w3.org/1999/xlink" width="512" height="512" x="0" y="0" viewBox="0 0 16.933 16.933" style="enable-background:new 0 0 512 512" xml:space="preserve" class=""><g><path d="M11.906.53c-.72 0-1.359.36-1.74.912-.201.29.234.591.435.3a1.581 1.581 0 0 1 1.305-.685c.88 0 1.588.708 1.588 1.588a.83.83 0 0 0 .795.795c.88 0 1.585.706 1.585 1.586 0 .88-.706 1.588-1.585 1.588-.413 0-.76-.137-1.13-.219-.541-.12-.879 0-1.175.297L10.32 8.356v-.418a.265.265 0 0 0-.266-.266h-.793v-.793a.265.265 0 0 0-.266-.265h-.418l1.665-1.664c.385-.385.378-.745.296-1.178-.07-.371-.218-.715-.218-1.127.008-.36-.537-.36-.53 0 0 .525.152.94.23 1.242.078.298.033.5-.153.688L7.75 6.692a.265.265 0 0 0 .186.45h.795v.796c0 .145.118.263.263.264h.795v.792c0 .236.284.354.451.188l2.118-2.115c.215-.215.411-.213.685-.155.308.066.72.23 1.245.23a2.12 2.12 0 0 0 2.115-2.116c0-1.166-.95-2.115-2.115-2.115-.15-.01-.263-.18-.266-.266A2.12 2.12 0 0 0 11.906.53zM7.144 3.174v1.852c-.008.36.537.36.529 0V3.174c0-.349-.53-.36-.53 0zM4.31 4.684l1.324 1.324c.25.27.645-.126.373-.375L4.685 4.311c-.254-.254-.622.127-.375.373zM3.175 7.143c-.36-.008-.36.537 0 .529h1.852c.36 0 .345-.53 0-.53zm3.252.871L4.575 9.868c-.233.234-.448.2-.687.152-.316-.064-.717-.23-1.242-.23a2.122 2.122 0 0 0-2.117 2.117 2.12 2.12 0 0 0 2.117 2.115.307.307 0 0 1 .263.266A2.116 2.116 0 0 0 6.76 15.5c.234-.293-.233-.622-.43-.305a1.587 1.587 0 0 1-2.891-.908c-.006-.45-.4-.789-.793-.796-.88 0-1.588-.705-1.588-1.585s.708-1.588 1.588-1.588c.412 0 .758.137 1.127.219.548.12.88 0 1.178-.297l1.773-1.774h.684v.793c0 .146.12.264.265.264h.793v.685l-1.773 1.774c-.35.35-.404.708-.297 1.178.084.368.219.714.219 1.127-.009.36.537.36.529 0 0-.526-.16-.94-.233-1.243-.085-.35-.01-.522.155-.687l1.853-1.852a.265.265 0 0 0 .076-.187V9.26a.265.265 0 0 0-.263-.266h-.795v-.792a.265.265 0 0 0-.264-.264H6.6a.267.267 0 0 0-.174.076zm7.332 1.776c.353 0 .353-.53 0-.53h-1.866c-.366.017-.34.547.013.53zm-2.834 1.51 1.322 1.322c.249.26.634-.123.375-.374L11.3 10.924c-.248-.248-.631.12-.375.375zm-1.664.607v1.851c0 .354.53.354.53 0v-1.851c0-.366-.53-.347-.53 0z" fill="#ffffff" opacity="1" data-original="#000000"></path></g></svg>