<svg xmlns="http://www.w3.org/2000/svg" version="1.1" xmlns:xlink="http://www.w3.org/1999/xlink" width="512" height="512" x="0" y="0" viewBox="0 0 511.714 511.714" style="enable-background:new 0 0 512 512" xml:space="preserve" class=""><g><path d="m495.102 286.893-180.614 4.809c-47.278 1.259-86.704-36.082-87.802-83.364-1.656-71.275 7.747-141.354 25.936-200.838M183.29 264.192c7.41-5.85 12.423-14.63 13.213-24.533 1.054-13.206-5.252-25.019-15.255-31.782-12.583-8.507-20.234-22.682-21.159-37.842-3.204-52.538 1.818-113.782 15.065-161.659M99.986 8.375c13.247 47.877 18.268 109.121 15.065 161.658-.924 15.161-8.576 29.336-21.159 37.844-10.002 6.763-16.308 18.577-15.254 31.783.752 9.421 5.325 17.825 12.148 23.657M244.79 350.946a189.375 189.375 0 0 1 111.352-29.883l138.96 6.551M400.429 362.005c-32.94 3.469-55.087 9.086-68.817 16.377M495.102 358.024c-24.817-.03-46.615.54-65.672 1.655M154.954 345.508c-7.782 4.507-13.89 12.034-16.349 21.714-4.087 16.087 4.022 33.065 19.072 40.063 13.077 6.08 27.67 3.406 37.664-5.262 8.896-7.715 21.378-9.778 32.496-5.9 70.856 24.718 186.242 71.669 229.228 103.133" style="stroke-width:15;stroke-linecap:round;stroke-linejoin:round;stroke-miterlimit:10;" fill="none" stroke="#3d2b99" stroke-width="15" stroke-linecap="round" stroke-linejoin="round" stroke-miterlimit="10" data-original="#000000" opacity="1" class=""></path><path d="M495.101 409.634c-53.255-4.913-181.99-27.732-251.186-58.122-10.756-4.724-18.068-14.698-19.858-26.308-1.995-12.942-11.224-24.358-25.007-28.291-3.856-1.1-7.923-1.388-11.962-.975M151.696 253.444l-14.145-51.774-14.14 51.758M159.036 347.048l71.35 26.879-43.297-43.821" style="stroke-width:15;stroke-linecap:round;stroke-linejoin:round;stroke-miterlimit:10;" fill="none" stroke="#3d2b99" stroke-width="15" stroke-linecap="round" stroke-linejoin="round" stroke-miterlimit="10" data-original="#000000" opacity="1" class=""></path><path d="M20.18 115.554c-4.798 61.897-4.446 128.815-.79 198.952 5.224 100.222 89.939 177.91 190.235 174.39 95.268-3.343 190.426 1.804 285.477 15.318M35.301 7.5c-5.408 25.159-9.502 51.599-12.459 79.147M128.703 284.638h17.967M128.703 315.93h17.967" style="stroke-width:15;stroke-linecap:round;stroke-linejoin:round;stroke-miterlimit:10;" fill="none" stroke="#3d2b99" stroke-width="15" stroke-linecap="round" stroke-linejoin="round" stroke-miterlimit="10" data-original="#000000" opacity="1" class=""></path><path d="M90.787 314.785v12.764c0 9.479 7.684 17.164 17.163 17.164h59.472c9.479 0 17.163-7.685 17.163-17.164V273.02c0-9.479-7.684-17.163-17.163-17.163H107.95c-9.479 0-17.163 7.684-17.163 17.163v12.765" style="stroke-width:15;stroke-linecap:round;stroke-linejoin:round;stroke-miterlimit:10;" fill="none" stroke="#3d2b99" stroke-width="15" stroke-linecap="round" stroke-linejoin="round" stroke-miterlimit="10" data-original="#000000" opacity="1" class=""></path></g></svg>