<svg xmlns="http://www.w3.org/2000/svg" version="1.1" xmlns:xlink="http://www.w3.org/1999/xlink" width="512" height="512" x="0" y="0" viewBox="0 0 60 60" style="enable-background:new 0 0 512 512" xml:space="preserve" class=""><g><g fill="#000" fill-rule="nonzero"><path d="M59.024 27.933a1.978 1.978 0 0 0-1.968-.042 81.466 81.466 0 0 0-12.7 8.341c-1.256 1.047-3.487 1.734-5.849 2.462a32.139 32.139 0 0 0-7.969 3.28 57.885 57.885 0 0 0-6.834-7.681 21.428 21.428 0 0 1-3.967-6.619c2.342-1.668 2.989-5.139 3.13-6.158.11-.86.373-1.695.774-2.464l2.877-5.428a3 3 0 0 0-5.013-3.286l-1.579 2.367 1.044-8.326a2.977 2.977 0 0 0-.612-2.223 2.995 2.995 0 0 0-5.332 1.461l-.339 2.45-.739-3.625a3.004 3.004 0 0 0-5.9 1.132l.593 2.9-.887-1.66a3.027 3.027 0 0 0-3.943-1.567 3.033 3.033 0 0 0-1.557 3.97l1.873 4.005a3.035 3.035 0 0 0-3.24.66 2.973 2.973 0 0 0 0 4.239l4.8 4.8a4.974 4.974 0 0 1 1.163 1.832c.909 2.523 2.071 5.228 3.721 6.114.552 2.6 1.992 9.217 3.467 14.408.428 1.5.875 2.972 1.345 4.393a11.007 11.007 0 0 0 .83 11.936 1 1 0 0 0 1.594-1.204 8.966 8.966 0 0 1-1.428-7.936C18.484 55.93 21.137 60 25 60a37.2 37.2 0 0 0 7.01-1.043.98.98 0 0 0 .377.84 1 1 0 0 0 1.4-.193c.303-.405.577-.83.821-1.274 8.325-2.158 19.292-6.362 24.859-12.357A2 2 0 0 0 60 44.6V29.654a1.987 1.987 0 0 0-.976-1.721zM35.572 55.994A11 11 0 0 0 33.8 46.4a1 1 0 0 0-1.6 1.2 8.98 8.98 0 0 1 1.005 9.018A40.834 40.834 0 0 1 25 58c-1.922 0-3.57-1.811-4.936-4.26a4.989 4.989 0 0 1 1.4-4.273 1 1 0 0 0-1.414-1.414 6.984 6.984 0 0 0-1.548 2.378 51.788 51.788 0 0 1-.937-2.5 8.948 8.948 0 0 1 1.068-1.288 1 1 0 1 0-1.412-1.416c-.141.14-.267.289-.4.435a132.638 132.638 0 0 1-.864-2.93c-1.458-5.13-2.887-11.691-3.43-14.255a1.894 1.894 0 0 0-.945-1.322c-1.274-.69-2.465-3.991-2.857-5.076A6.947 6.947 0 0 0 7.1 19.506l-4.8-4.8A1 1 0 0 1 3 13c.277.003.541.121.729.325l2.589 2.41a1 1 0 0 0 1.588-1.155L4.082 6.405a1.016 1.016 0 0 1 .518-1.32 1.044 1.044 0 0 1 1.359.6l4.16 7.79a1 1 0 0 0 1.861-.672l-1.965-9.61a1.004 1.004 0 0 1 1.976-.36L13.9 12.2c.105.473.528.807 1.012.8a1 1 0 0 0 .958-.863l1.143-8.267a.98.98 0 0 1 .379-.663 1.008 1.008 0 0 1 1.393.177c.164.21.236.478.2.742l-1.57 12.53a1 1 0 0 0 1.824.679l3.931-5.892a1 1 0 1 1 1.658 1.108c-.019.029-.038.06-.055.091l-2.9 5.463a9.342 9.342 0 0 0-.99 3.128c-.226 1.62-.965 3.851-2.3 4.8a1.994 1.994 0 0 0-.724 2.411 23.979 23.979 0 0 0 4.425 7.259 55.8 55.8 0 0 1 6.636 7.454 12.325 12.325 0 0 0-2.8 3.344 1 1 0 1 0 1.738.99 10.6 10.6 0 0 1 2.978-3.291l.023-.018c2.383-1.774 5.495-2.732 8.24-3.578 2.559-.788 4.976-1.532 6.542-2.837A79.476 79.476 0 0 1 58 29.654V44.61c-4.921 5.302-14.625 9.202-22.428 11.384z" fill="#ffffff" opacity="1" data-original="#000000" class=""></path><path d="M25 50a3 3 0 1 0 0 6 3 3 0 0 0 0-6zm0 4a1 1 0 1 1 0-2 1 1 0 0 1 0 2zM29.06 48.472a1 1 0 0 0-.155 1.406 4.975 4.975 0 0 1 .839 4.7 1 1 0 1 0 1.899.63 6.974 6.974 0 0 0-1.177-6.587 1 1 0 0 0-1.406-.149zM33.293 37.707a1 1 0 0 0 1.414 0l3-3A1 1 0 0 0 37 33h-.586l1.293-1.293a1 1 0 0 0-1.414-1.414l-3 3A1 1 0 0 0 34 35h.586l-1.293 1.293a1 1 0 0 0 0 1.414zM26.887 33.28a1 1 0 0 0 1.113.029l.493-.309-.4 1.784a1 1 0 1 0 1.951.444l.935-4.138a1 1 0 0 0-1.51-1.066l-.494.313.4-1.784a1 1 0 0 0-1.951-.44l-.935 4.138a1 1 0 0 0 .398 1.029z" fill="#ffffff" opacity="1" data-original="#000000" class=""></path></g></g></svg>