<svg xmlns="http://www.w3.org/2000/svg" version="1.1" xmlns:xlink="http://www.w3.org/1999/xlink" width="512" height="512" x="0" y="0" viewBox="0 0 512 512" style="enable-background:new 0 0 512 512" xml:space="preserve" class=""><g><path d="m492.312 137.368-13.144-26.523-.049-.1c-23.864-46.558-58.526-67.886-100.266-61.676a33.431 33.431 0 0 1-27.222-8.351l-24.3-21.739A22.022 22.022 0 0 1 320 2.585V0h-16v2.585a38.042 38.042 0 0 0 12.664 28.321l24.3 21.738A49.381 49.381 0 0 0 381.208 64.9c34.772-5.175 62.92 12.692 83.647 53.1L478 144.523l.049.1c18.952 36.974 22.933 81.957 11.834 133.7l15.644 3.356c11.89-55.426 7.444-103.979-13.215-144.311zM484.3 299.826c-.053.153-.1.307-.145.462L472.3 342.806c-17.483 61.746-57.25 109.8-111.977 135.3a190.656 190.656 0 0 1-106.3 16.172c-29.962-4.054-69.618-17.922-87.441-36.585L135.846 425.5A18.481 18.481 0 0 0 104 438.266V512h16v-73.734a2.481 2.481 0 0 1 4.275-1.714l30.744 32.19c21.312 22.316 65.152 37.1 96.865 41.39a206.641 206.641 0 0 0 115.2-17.526 215.22 215.22 0 0 0 76.144-59.242c20.346-24.841 35.308-53.843 44.478-86.229l11.8-42.319a101.7 101.7 0 0 0 2.125-6.932l-15.463-4.113a84.63 84.63 0 0 1-1.868 6.055z" fill="#ffffff" opacity="1" data-original="#000000" class=""></path><path d="M286.446 324.992c14.573-21.912 16.986-48.657 6.621-73.377l-15.3-36.487a111.7 111.7 0 0 1 3.117-93.234 8 8 0 0 0 .074-7L238.974 26.3a6.56 6.56 0 0 0-.262-.5A52.112 52.112 0 0 1 232 .24V0h-16v.24a68.137 68.137 0 0 0 8.633 33.16l40.234 84.892a127.681 127.681 0 0 0-1.853 103.021l15.3 36.489c8.257 19.695 6.367 40.955-5.189 58.33a62.924 62.924 0 0 1-52.685 27.79L101.164 344A69.242 69.242 0 0 0 32 413.164V512h16v-98.836A53.226 53.226 0 0 1 101.169 360l119.273-.078a78.886 78.886 0 0 0 66.004-34.93z" fill="#ffffff" opacity="1" data-original="#000000" class=""></path><path d="m264.129 9.431.6 3.314a238 238 0 0 0 85.485 143.273l32.238 25.791a72.01 72.01 0 0 1 16.288 94.054 32.034 32.034 0 0 0-38.722 8.912l-50 62.45a32 32 0 0 0 24.918 52 32.484 32.484 0 0 0 3.583-.2 31.784 31.784 0 0 0 21.459-11.8l50-62.45a32.059 32.059 0 0 0 1.115-38.527 88.009 88.009 0 0 0-18.646-116.934l-32.238-25.791A221.987 221.987 0 0 1 280.474 9.884l-.5-2.755-.283-7.429L263.7.3l.3 8a8.209 8.209 0 0 0 .129 1.131zm72.632 373.7a16 16 0 0 1-14.251-25.9l10-12.49 24.98 20-10 12.49a15.894 15.894 0 0 1-10.729 5.897zm60.729-68.353-30 37.47-24.98-20 30-37.47a15.894 15.894 0 0 1 10.729-5.9 16.387 16.387 0 0 1 1.792-.1 16 16 0 0 1 12.459 26zM256 368h32v16h-32zM344.391 417.707l15.52-3.888 8.015 31.995-15.52 3.888zM282.872 432.226l22.847-29.142 12.592 9.872-22.847 29.142zM120 320a119.433 119.433 0 0 0 42.42-7.719l76.78 7.679a7.906 7.906 0 0 0 .8.04 8 8 0 0 0 7.717-10.1l-17.2-63.071A120.059 120.059 0 0 0 120 80a119.1 119.1 0 0 0-85.714 36.017l11.428 11.2A104.023 104.023 0 0 1 214.769 242.9a8 8 0 0 0-.432 5.409l14.884 54.576-67.113-6.711a8 8 0 0 0-3.748.524A104.025 104.025 0 0 1 34.637 140.577l-13.123-9.154A120.013 120.013 0 0 0 120 320z" fill="#ffffff" opacity="1" data-original="#000000" class=""></path><path d="M144 120H96a8 8 0 0 0-8 8v40H48a8 8 0 0 0-8 8v48a8 8 0 0 0 8 8h40v40a8 8 0 0 0 8 8h48a8 8 0 0 0 8-8v-40h40a8 8 0 0 0 8-8v-48a8 8 0 0 0-8-8h-40v-40a8 8 0 0 0-8-8zm40 64v32h-40a8 8 0 0 0-8 8v40h-32v-40a8 8 0 0 0-8-8H56v-32h40a8 8 0 0 0 8-8v-40h32v40a8 8 0 0 0 8 8z" fill="#ffffff" opacity="1" data-original="#000000" class=""></path></g></svg>