<svg xmlns="http://www.w3.org/2000/svg" version="1.1" xmlns:xlink="http://www.w3.org/1999/xlink" width="512" height="512" x="0" y="0" viewBox="0 0 64 64" style="enable-background:new 0 0 512 512" xml:space="preserve" class=""><g><g data-name="16-healthy"><path d="M60.677 30H45.323A3.326 3.326 0 0 0 42 33.322v4.016a21.705 21.705 0 0 0 10.485 18.519 1 1 0 0 0 1.03 0A21.705 21.705 0 0 0 64 37.338v-4.016A3.326 3.326 0 0 0 60.677 30zM62 37.338a19.7 19.7 0 0 1-9 16.484 19.7 19.7 0 0 1-9-16.484v-4.016A1.324 1.324 0 0 1 45.323 32h15.354A1.324 1.324 0 0 1 62 33.322z" fill="#3d2b99" opacity="1" data-original="#000000" class=""></path><path d="M57.743 36.551a1 1 0 0 0-1.414 0l-4.243 4.242-1.415-1.414a1 1 0 0 0-1.414 0l-2.828 2.828a1 1 0 0 0 0 1.414l4.95 4.95a1 1 0 0 0 1.414 0l7.778-7.778a1 1 0 0 0 0-1.414zm-5.657 9.9-3.536-3.537 1.414-1.414 1.415 1.414a1 1 0 0 0 1.414 0l4.243-4.242 1.414 1.414zM23.445 23.832l1.11-1.664a6.4 6.4 0 0 0-7.11 0l1.11 1.664a4.4 4.4 0 0 1 4.89 0zM33.445 23.832l1.11-1.664a6.4 6.4 0 0 0-7.11 0l1.11 1.664a4.4 4.4 0 0 1 4.89 0zM51 19h2v2h-2zM49 21h2v2h-2zM53 21h2v2h-2zM51 23h2v2h-2zM2 26h2v2H2zM0 28h2v2H0zM4 28h2v2H4zM2 30h2v2H2z" fill="#3d2b99" opacity="1" data-original="#000000" class=""></path><path d="m38.625 48.219-.005.006a.964.964 0 0 0-.3-.173L30 45.279V42.3A12.01 12.01 0 0 0 38 31a3.982 3.982 0 0 0 3.392-6.1l3.028-3.578a5.425 5.425 0 0 0 1.022-4.68 3.4 3.4 0 0 1 .469-2.708l2.921-4.382a1 1 0 0 0-1-1.541l-4.29.715 2.392-6.377a1 1 0 0 0-1.279-1.291l-4.869 1.774a18.993 18.993 0 0 1-11.781.415 20.518 20.518 0 0 0-15.543 1.725l-.762.417a4.734 4.734 0 0 0-1.975 6.3.412.412 0 0 1-.034.425L8.3 14.057a7.3 7.3 0 0 0 .784 9.443l1.477 1.477A3.964 3.964 0 0 0 10 27a4 4 0 0 0 4 4 12.01 12.01 0 0 0 8 11.3v2.979l-8.316 2.773a.964.964 0 0 0-.3.173l-.005-.006A14.252 14.252 0 0 0 8 59.4V63a1 1 0 0 0 1 1h34a1 1 0 0 0 1-1v-3.6a14.252 14.252 0 0 0-5.375-11.181zm-28.695-33 1.388-1.945a2.407 2.407 0 0 0 .2-2.483 2.74 2.74 0 0 1 1.144-3.646l.763-.417a18.511 18.511 0 0 1 14.031-1.557 21 21 0 0 0 13.014-.46l2.83-1.029-2.237 5.966a1 1 0 0 0 1.1 1.338l3.723-.62-1.641 2.461a5.4 5.4 0 0 0-.746 4.3 3.4 3.4 0 0 1-.625 2.925l-2.933 3.465a4 4 0 0 0-.941-.39V15a1 1 0 0 0-1-1H14a1 1 0 0 0-1 1v8.127a3.969 3.969 0 0 0-1.023.436L10.5 22.084a5.311 5.311 0 0 1-.57-6.865zM12 27a2 2 0 0 1 2-2 1 1 0 0 0 1-1v-8h22v8a1 1 0 0 0 1 1 2 2 0 0 1 0 4v-1a1 1 0 0 0-1-1H15a1 1 0 0 0-1 1v1a2 2 0 0 1-2-2zm6.019 10H31v-2H16.841a9.843 9.843 0 0 1-.639-2H33v-2H16v-2h20v2a9.987 9.987 0 0 1-17.981 6zm5.3 9.948A1 1 0 0 0 24 46v-3.181a11.14 11.14 0 0 0 4 0V46a1 1 0 0 0 .684.948l7.561 2.521-1.593 1.793a11.575 11.575 0 0 1-17.3 0l-1.594-1.794zM42 62H10v-2.6a12.238 12.238 0 0 1 3.919-8.989l1.935 2.178a13.578 13.578 0 0 0 20.292 0l1.935-2.177A12.238 12.238 0 0 1 42 59.4z" fill="#3d2b99" opacity="1" data-original="#000000" class=""></path></g></g></svg>