<svg xmlns="http://www.w3.org/2000/svg" version="1.1" xmlns:xlink="http://www.w3.org/1999/xlink" width="512" height="512" x="0" y="0" viewBox="0 0 512 512" style="enable-background:new 0 0 512 512" xml:space="preserve" class=""><g><path d="M377.32 363.236s-103.099-45.768-103.099-102.227V138.601l102.714-36.575 102.714 36.575v122.408c0 56.459-102.329 102.227-102.329 102.227z" style="stroke-width:15;stroke-linecap:round;stroke-linejoin:round;stroke-miterlimit:10" fill="none" stroke="#3d2b99" stroke-width="15" stroke-linecap="round" stroke-linejoin="round" stroke-miterlimit="1" data-original="#474747" opacity="1"></path><path d="m335.108 242.417 23.103 23.103 73.354-73.354" style="stroke-width:15;stroke-linecap:round;stroke-linejoin:round;stroke-miterlimit:10" fill="none" stroke="#3d2b99" stroke-width="15" stroke-linecap="round" stroke-linejoin="round" stroke-miterlimit="1" data-original="#474747" opacity="1"></path><g style="fill:none;stroke:#474747;stroke-width:15;stroke-linecap:round;stroke-linejoin:round;stroke-miterlimit:10"><path d="M420.767 380.602c10.23 13.36 7.693 32.484-5.667 42.714l-4.571 3.5-.117.089c-5.165 3.916-11.732 5.57-18.154 4.686-6.091-.838-24.729-4.557-34.343 2.804M84.541 50.184l1.423-3.696a33.553 33.553 0 0 1 10.911-14.583l.937-.718c16.318-12.495 39.675-9.396 52.17 6.922a37.217 37.217 0 0 1 5.623 34.79l-6.1 17.634 90.862 118.654M372.135 456.553l-1.423 3.696a33.553 33.553 0 0 1-10.911 14.583l-.937.718c-16.318 12.495-39.675 9.396-52.17-6.922a37.217 37.217 0 0 1-5.623-34.79l6.1-17.634L91.686 134.807l-27.171 2.951a30.468 30.468 0 0 1-28.606-11.623c-10.23-13.36-7.693-32.484 5.667-42.714l1.973-1.511.117-.089c5.165-3.916 11.732-5.57 18.154-4.686 6.091.838 22.484 6.998 32.097-.363" fill="#3d2b99" opacity="1" data-original="#000000" class=""></path></g></g></svg>