<svg xmlns="http://www.w3.org/2000/svg" version="1.1" xmlns:xlink="http://www.w3.org/1999/xlink" width="512" height="512" x="0" y="0" viewBox="0 0 512 512" style="enable-background:new 0 0 512 512" xml:space="preserve" class=""><g><path d="M468.912 388.974 462.088 504.5M415.33 432.545l12.836-49.934M396.834 504.5l11.042-42.955M377.736 256l40.453 23.356c4.775 2.757 6.411 8.862 3.654 13.637l-12.916 22.371c-2.757 4.775-8.862 6.411-13.637 3.654l-28.225-16.296M139.229 254.77l-25.288 10.245a14.814 14.814 0 0 0-8.76 9.945h0a14.817 14.817 0 0 1-12.236 10.882l-42.3 6.02a20.419 20.419 0 0 0-17.029 15.666l-3.879 16.969a20.42 20.42 0 0 0 .768 11.669l11.592 31.161a20.42 20.42 0 0 0 21.745 13.133l7.33-.943c11.706-1.507 22.473 6.612 24.244 18.281l16.19 106.702" style="stroke-width:15;stroke-linecap:round;stroke-linejoin:round;stroke-miterlimit:10;" fill="none" stroke="#3d2b99" stroke-width="15" stroke-linecap="round" stroke-linejoin="round" stroke-miterlimit="10" data-original="#000000" opacity="1" class=""></path><path d="m157.716 504.5 13.569-112.811a20.061 20.061 0 0 0-8.092-18.6h0a20.058 20.058 0 0 0-15.101-3.586h0a11.505 11.505 0 0 1-13-8.398l-5.058-19.041a25.656 25.656 0 0 1 9.494-27.18l12.061-8.962M215.365 83.249l-36.395-53.24c-13.01-19.032-37.057-27.138-58.934-19.868h0C75.573 24.916 53.297 74.478 71.564 117.623c11.215 26.489 24.828 50.943 40.866 73.342 19.264 26.904 31.114 58.399 33.865 91.374h0c2.234 26.777 26.576 46.449 53.136 42.385 11.973-1.832 23.919-5.904 35.842-11.794 14.227-7.027 23.174-21.592 23.174-37.459v-34.878h-58.229c-13.507 0-25.217-9.344-28.215-22.515l-3.16-13.885c-3.085-13.553 3.903-27.384 16.643-32.943l3.764-1.642m30.932 108.733-4.661 10.905a7.568 7.568 0 0 1-8.699 4.391l-18.119-4.278a7.569 7.569 0 0 1-5.829-7.366v-6.627a7.57 7.57 0 0 1 7.568-7.569h22.781c5.43.001 9.094 5.551 6.959 10.544zM327.19 169.409l4.218 1.841c12.74 5.559 19.727 19.39 16.642 32.943l-3.16 13.885c-2.997 13.17-14.708 22.515-28.215 22.515h-58.228v34.878c0 15.868 8.948 30.432 23.174 37.459 11.924 5.89 23.869 9.962 35.842 11.794 26.56 4.064 50.902-15.608 53.136-42.385 2.751-32.975 14.601-64.469 33.865-91.374 16.038-22.398 29.651-46.853 40.866-73.342 10.04-23.714 7.829-49.364-3.578-70.113m-18.358-22.49c-7.571-6.419-16.483-11.541-26.533-14.88h0c-21.877-7.27-45.924.836-58.934 19.868l-36.395 53.24m32.49 198.746a7.569 7.569 0 0 1-5.829 7.366l-18.119 4.278a7.57 7.57 0 0 1-8.699-4.391l-4.661-10.905c-2.134-4.993 1.529-10.543 6.959-10.543h22.78a7.568 7.568 0 0 1 7.568 7.569v6.626zM242.996 130.807c10.301 2.495 20.602 2.495 30.904 0M242.996 160.506c10.301 2.495 20.602 2.495 30.904 0" style="stroke-width:15;stroke-linecap:round;stroke-linejoin:round;stroke-miterlimit:10;" fill="none" stroke="#3d2b99" stroke-width="15" stroke-linecap="round" stroke-linejoin="round" stroke-miterlimit="10" data-original="#000000" opacity="1" class=""></path><path d="M242.996 190.206c10.301 2.495 20.602 2.495 30.904 0" style="stroke-width:15;stroke-linecap:round;stroke-linejoin:round;stroke-miterlimit:10;" fill="none" stroke="#3d2b99" stroke-width="15" stroke-linecap="round" stroke-linejoin="round" stroke-miterlimit="10" data-original="#000000" opacity="1" class=""></path><circle cx="451.731" cy="360.589" r="31.046" style="stroke-width:15;stroke-linecap:round;stroke-linejoin:round;stroke-miterlimit:10;" fill="none" stroke="#3d2b99" stroke-width="15" stroke-linecap="round" stroke-linejoin="round" stroke-miterlimit="10" data-original="#000000" opacity="1" class=""></circle><path d="m415.272 304.374 24.342 27.624M222.301 208.971a91.16 91.16 0 0 1 4.19 12.258h0a25.971 25.971 0 0 0 25.117 19.363h13.68a25.971 25.971 0 0 0 25.117-19.363h0a91.161 91.161 0 0 1 28.822-46.007l23.866-20.462c12.218-10.476 14.569-28.479 5.451-41.74l-14.167-20.607c-9.733-14.157-30.141-15.492-41.635-2.723h0a37.88 37.88 0 0 1-28.152 12.536h-12.284a37.881 37.881 0 0 1-28.152-12.536h0c-11.494-12.769-31.902-11.434-41.635 2.723l-14.167 20.607c-9.118 13.262-6.766 31.265 5.451 41.74l23.866 20.462a91.246 91.246 0 0 1 9.075 8.976" style="stroke-width:15;stroke-linecap:round;stroke-linejoin:round;stroke-miterlimit:10;" fill="none" stroke="#3d2b99" stroke-width="15" stroke-linecap="round" stroke-linejoin="round" stroke-miterlimit="10" data-original="#000000" opacity="1" class=""></path></g></svg>