<svg xmlns="http://www.w3.org/2000/svg" version="1.1" xmlns:xlink="http://www.w3.org/1999/xlink" width="512" height="512" x="0" y="0" viewBox="0 0 512 512" style="enable-background:new 0 0 512 512" xml:space="preserve" class=""><g><path d="m285.094 454.467 9.019 50.033M268.651 326.832c-.199 22.962 1.717 45.937 5.809 68.639l5.431 30.129M211.904 7.5l4.505 25.713a43.42 43.42 0 0 0 33.699 34.968l22.074 4.714a66.821 66.821 0 0 1 31.873 16.729M20.671 171.132c-5.762 20.136-10.037 40.806-13.005 61.979M150.632 7.5l-4.506 25.713a43.42 43.42 0 0 1-33.699 34.968l-22.074 4.714c-20.352 4.346-37.48 17.938-46.457 36.713a384.908 384.908 0 0 0-14.249 33.902M68.422 504.5l19.654-109.029c8.184-45.403 7.661-91.9-1.065-137.202-5.488-28.493-7.936-60.816-6.812-84.824l-1.825 13.384-13.906 50.128M218.131 504.5l-32.768-78.949c-1.771-4.268-7.817-4.268-9.589 0L143.007 504.5M225.045 367.706c0 12.333-17.272 32.049-28.959 28.108-13.137-4.429-6.908-16.153-11.625-27.548-6.303-15.228 8.532-24.917 18.253-22.891 12.074 2.516 22.331 9.998 22.331 22.331z" style="stroke-width:15;stroke-linecap:round;stroke-linejoin:round;stroke-miterlimit:10;" fill="none" stroke="#ffffff" stroke-width="15" stroke-linecap="round" stroke-linejoin="round" stroke-miterlimit="10" data-original="#000000" opacity="1"></path><path d="M502.973 177.651c-9.92-60.847-62.455-107.379-125.972-107.944-71.432-.635-130.005 57.397-130.004 128.832.001 21.666 5.352 42.08 14.802 59.998 5.908 11.202 5.925 24.589-.041 35.76l-17.334 32.457c-1.418 2.655 1.194 5.656 4.019 4.618l45.205-16.606a37.957 37.957 0 0 1 28.827 1.066c16.276 7.417 34.365 11.547 53.42 11.538 67.684-.033 123.727-53.054 128.439-119.718" style="stroke-width:15;stroke-linecap:round;stroke-linejoin:round;stroke-miterlimit:10;" fill="none" stroke="#ffffff" stroke-width="15" stroke-linecap="round" stroke-linejoin="round" stroke-miterlimit="10" data-original="#000000" opacity="1"></path><path d="M393.381 117.347v16.712c0 4.848 3.578 9.02 8.392 9.589 8.199.969 16.271 3.681 23.708 8.1 18.414 10.943 29.407 30.26 29.407 51.672 0 19.141-9.235 37.311-24.705 48.603-8.542 6.235-18.245 10-28.287 11.177-4.861.569-8.514 4.705-8.514 9.599v8.774" style="stroke-width:15;stroke-linecap:round;stroke-linejoin:round;stroke-miterlimit:10;" fill="none" stroke="#ffffff" stroke-width="15" stroke-linecap="round" stroke-linejoin="round" stroke-miterlimit="10" data-original="#000000" opacity="1"></path><path d="M368.381 281.571V239.94c0-4.348 4.382-7.348 8.424-5.745 2.512.996 5.025 1.896 7.537 2.7 22.541 7.214 45.546-9.81 45.546-33.476v0c0-26.574-28.43-43.551-51.772-30.847-.206.112-.413.225-.619.339-4.097 2.261-9.117-.748-9.117-5.428v-50.136" style="stroke-width:15;stroke-linecap:round;stroke-linejoin:round;stroke-miterlimit:10;" fill="none" stroke="#ffffff" stroke-width="15" stroke-linecap="round" stroke-linejoin="round" stroke-miterlimit="10" data-original="#000000" opacity="1"></path><path d="m399.135 195.604-22.33 3.232c-22.252 3.221-42.867-12.303-45.919-34.579l-3.708-27.06M379.553 199.258l7.486 11.318M376.805 234.196l-9.884-5.198a50.514 50.514 0 0 0-41.093-2.648h0" style="stroke-width:15;stroke-linecap:round;stroke-linejoin:round;stroke-miterlimit:10;" fill="none" stroke="#ffffff" stroke-width="15" stroke-linecap="round" stroke-linejoin="round" stroke-miterlimit="10" data-original="#000000" opacity="1"></path><path d="M350.603 224.116s-9.911 7.388-10.792 20.158" style="stroke-width:15;stroke-linecap:round;stroke-linejoin:round;stroke-miterlimit:10;" fill="none" stroke="#ffffff" stroke-width="15" stroke-linecap="round" stroke-linejoin="round" stroke-miterlimit="10" data-original="#000000" opacity="1"></path></g></svg>