<svg xmlns="http://www.w3.org/2000/svg" version="1.1" xmlns:xlink="http://www.w3.org/1999/xlink" width="512" height="512" x="0" y="0" viewBox="0 0 505.506 505.506" style="enable-background:new 0 0 512 512" xml:space="preserve"><g><path d="m229.201 99.898 22.68 9.735c9.986 4.286 14.606 15.856 10.32 25.841l-11.277 26.272c-6.415 14.945-23.73 21.859-38.675 15.444M180.468 163.549l-11.632 27.099 32.305 12.196 11.026-25.688" style="stroke-width:15;stroke-linecap:round;stroke-linejoin:round;stroke-miterlimit:10;" fill="none" stroke="#3d2b99" stroke-width="15" stroke-linecap="round" stroke-linejoin="round" stroke-miterlimit="10" data-original="#000000" opacity="1"></path><path d="M162.966 189.511h.01c3.88-.28 7.88.33 11.7 1.97l39.16 16.81a16.69 16.69 0 0 1 10.05 16.62l-2.04 26.17a44.17 44.17 0 0 1-7.74 21.74l-41.52 59.89-72.48-31.11 21.28-49.58M192.606 303.971l82.28-32.5 33.73-13.8c8.09-3.82 21.5-.94 27.56 5.65 4.54 4.96 18.79 23.57 33.8 43.49l.32.43c17.52 23.25 42.37 55.07 43.14 56.06l.02.02-68.88-1.32-20.04-28.73-12.29-15.85-16.89 10.02-55.23 32.73M189.952 104.498a70.599 70.599 0 0 0-41.931-8.256l-14.297 1.624c-10.251 1.164-16.084 12.313-11.195 21.398l14.066 26.138c4.767 8.859 16.862 10.343 23.629 2.899l20.7-22.77" style="stroke-width:15;stroke-linecap:round;stroke-linejoin:round;stroke-miterlimit:10;" fill="none" stroke="#3d2b99" stroke-width="15" stroke-linecap="round" stroke-linejoin="round" stroke-miterlimit="10" data-original="#000000" opacity="1"></path><path d="m413.456 363.321-68.88-1.32-20.04-28.73 45.44-26.46.32.43c17.52 23.25 42.37 55.07 43.14 56.06l.02.02zM295.348 327.434l-20.467-55.964-82.277 32.502" style="stroke-width:15;stroke-linecap:round;stroke-linejoin:round;stroke-miterlimit:10;" fill="none" stroke="#3d2b99" stroke-width="15" stroke-linecap="round" stroke-linejoin="round" stroke-miterlimit="10" data-original="#000000" opacity="1"></path><path d="M261.59 410.543H144.125c-35.023 0-61.041-32.438-53.436-66.625l9.418-42.323 72.48 31.112 24.486 19.076a37.81 37.81 0 0 0 22.563 7.995l41.954.793 99.801 1.901 97.921 1.695 30.211-24.377c3.704-2.987 9.136.141 8.419 4.834l-8.061 52.915c-1.141 7.474-7.572 13.003-15.133 13.003h-177.87" style="stroke-width:15;stroke-linecap:round;stroke-linejoin:round;stroke-miterlimit:10;" fill="none" stroke="#3d2b99" stroke-width="15" stroke-linecap="round" stroke-linejoin="round" stroke-miterlimit="10" data-original="#000000" opacity="1"></path><path d="M459.312 364.167v46.376H361.39v-48.07zM261.59 360.572v49.971H144.125c-35.023 0-61.041-32.438-53.436-66.625l9.418-42.323 72.48 31.112 24.486 19.076a37.81 37.81 0 0 0 22.563 7.995l41.954.794zM166.058 227.844l-41.943 28.603-22.411-36.359 38.804-28.396c9.929-7.268 23.867-5.041 31.047 4.943 7.267 10.102 4.78 24.202-5.497 31.209zM213.836 208.291l14.68 5.71 32.97 24.19 33.92 24.88M221.256 255.621l17.75 13.41 14.44 10.91" style="stroke-width:15;stroke-linecap:round;stroke-linejoin:round;stroke-miterlimit:10;" fill="none" stroke="#3d2b99" stroke-width="15" stroke-linecap="round" stroke-linejoin="round" stroke-miterlimit="10" data-original="#000000" opacity="1"></path><path d="m221.256 255.621 17.75 13.41 22.48-30.84-32.97-24.19-14.68-5.71M439.527 269.445l-6.867 33.096M470.672 299.062l-9.762 15.66M399.17 284.227l2.726 18.252M413.456 363.316l-11.56 16.701M262.188 135.5s-11.08 3.82-25.89 4.36c-7.85.3-16.76-.34-25.62-2.96l-30.21 26.65-2.4-15.24a41.446 41.446 0 0 1 2.86-22.78l5.99-13.97a27.342 27.342 0 0 1 11.97-13.2c7.14-3.92 15.95-4.63 24.01-1.17l28.95 12.43c10.01 4.291 14.63 15.88 10.34 25.88zM39.975 312.071l22.361-54.516a47.355 47.355 0 0 1 15.86-20.271l23.508-17.197 38.804-28.396c9.929-7.268 23.867-5.041 31.047 4.943 7.268 10.103 4.78 24.203-5.497 31.21l-41.943 28.603-21.629 14.752-53.132 91.675a23.996 23.996 0 0 1-8.473 8.571l-10.133 4.563c-8.103 3.649-17.64.215-21.557-7.762h0c-3.883-7.907-.86-17.469 6.862-21.708l12.63-6.933" style="stroke-width:15;stroke-linecap:round;stroke-linejoin:round;stroke-miterlimit:10;" fill="none" stroke="#3d2b99" stroke-width="15" stroke-linecap="round" stroke-linejoin="round" stroke-miterlimit="10" data-original="#000000" opacity="1"></path></g></svg>