<svg xmlns="http://www.w3.org/2000/svg" version="1.1" xmlns:xlink="http://www.w3.org/1999/xlink" width="512" height="512" x="0" y="0" viewBox="0 0 128 128" style="enable-background:new 0 0 512 512" xml:space="preserve" fill-rule="evenodd" class=""><g><path d="M92 62c16.557 0 30 13.443 30 30s-13.443 30-30 30-30-13.443-30-30 13.443-30 30-30zm-8 38v11a2 2 0 0 0 2 2h12a2 2 0 0 0 2-2v-11h11a2 2 0 0 0 2-2V86a2 2 0 0 0-2-2h-11V73a2 2 0 0 0-2-2H86a2 2 0 0 0-2 2v11H73a2 2 0 0 0-2 2v12a2 2 0 0 0 2 2zm4-2a2 2 0 0 0-2-2H75v-8h11a2 2 0 0 0 2-2V75h8v11a2 2 0 0 0 2 2h11v8H98a2 2 0 0 0-2 2v11h-8zM63.918 72.836C58.015 61.851 50.515 52.072 42 43.06l-14.201 4.726a2.001 2.001 0 0 1-1.547-.119c-3.062-1.577-14.657-7.548-18.618-9.63a2.994 2.994 0 0 1-1.602-2.65v-.572c0-1.013.513-1.958 1.365-2.511a3.004 3.004 0 0 1 2.853-.225l14.905 6.613a2 2 0 0 0 1.678-.025c3.55-1.707 17.507-8.415 23.459-11.272a4 4 0 0 1 4.733.96c8.056 9.23 14.742 19.637 20.111 34.121a34.215 34.215 0 0 0-11.218 10.36zM39 6c6.071 0 11 4.929 11 11s-4.929 11-11 11-11-4.929-11-11S32.929 6 39 6zm12.626 56.815a124.224 124.224 0 0 1 6.473 9.843l-9.837 5.621a2.001 2.001 0 0 0-.966 2.144c.832 3.996 3.204 15.411 4.372 21.252A3.614 3.614 0 0 1 48.123 106h-.002a3.368 3.368 0 0 1-3.254-2.5l-7.522-28.208a1.998 1.998 0 0 1 .717-2.104zm-40.041 5.599a2 2 0 0 1 2.829-2.828l5.712 5.711.976-2.93a2 2 0 0 1 3.007-1.031l6 4a2.001 2.001 0 0 1-2.219 3.328l-3.821-2.548-1.172 3.516a2 2 0 0 1-3.312.782zm23.13-1.443c.568.946.26 2.176-.686 2.744a2.001 2.001 0 0 1-2.744-.686L27 61.887l-1.285 2.142a2 2 0 0 1-3.315.171l-6-8a2 2 0 0 1 3.2-2.4l4.215 5.62 1.47-2.449a1.998 1.998 0 0 1 3.43 0zm-3.825 9.365a2.001 2.001 0 0 1 2.219 3.328l-3 2a2 2 0 0 1-2.219-3.328zm8.05-12.821a2 2 0 0 1-3.881.97l-1-4a2.001 2.001 0 0 1 3.881-.97zm-6.838 18.852c.349-1.047 1.483-1.614 2.53-1.265s1.614 1.483 1.265 2.53l-1 3a2.001 2.001 0 0 1-3.795-1.265zM59.686 27.65l11.927 2.236a2 2 0 0 1 1.046.552l12.478 12.477a2.95 2.95 0 0 1 0 4.17l-.029.028a2.899 2.899 0 0 1-3.924.163l-10.543-8.92a1.992 1.992 0 0 0-.963-.446l-2.631-.439a110.01 110.01 0 0 0-7.361-9.821z" fill="#3d2b99" opacity="1" data-original="#000000"></path></g></svg>