<svg xmlns="http://www.w3.org/2000/svg" version="1.1" xmlns:xlink="http://www.w3.org/1999/xlink" width="512" height="512" x="0" y="0" viewBox="0 0 128 128" style="enable-background:new 0 0 512 512" xml:space="preserve" fill-rule="evenodd" class=""><g><path d="M92 62c16.557 0 30 13.443 30 30s-13.443 30-30 30-30-13.443-30-30 13.443-30 30-30zm0 4c-14.35 0-26 11.65-26 26s11.65 26 26 26 26-11.65 26-26-11.65-26-26-26zm-8 34H73a2 2 0 0 1-2-2V86a2 2 0 0 1 2-2h11V73a2 2 0 0 1 2-2h12a2 2 0 0 1 2 2v11h11a2 2 0 0 1 2 2v12a2 2 0 0 1-2 2h-11v11a2 2 0 0 1-2 2H86a2 2 0 0 1-2-2zm4-2v11h8V98a2 2 0 0 1 2-2h11v-8H98a2 2 0 0 1-2-2V75h-8v11a2 2 0 0 1-2 2H75v8h11a2 2 0 0 1 2 2zM62.139 75.739a120.85 120.85 0 0 0-1.295-2.346l-11.6 6.628 3.852 19.262A5.614 5.614 0 0 1 47.589 106h-.001a5.368 5.368 0 0 1-5.187-3.985l-7.333-27.5a1.999 1.999 0 0 1 .717-2.104l16.26-12.434c-3.299-4.41-6.859-8.621-10.629-12.674l-13.784 4.594a1.994 1.994 0 0 1-1.563-.127L8.671 42.613A5 5 0 0 1 6 38.189v-.573a5 5 0 0 1 7.031-4.569l12.935 5.749c3.552-1.71 17.508-8.429 23.458-11.289 1.432-.69 3.301-.671 4.945-.473 3.49.422 16 3 16 3 .396.075.76.267 1.045.552L84.33 43.501a4.95 4.95 0 0 1 0 6.998l-.029.028a4.9 4.9 0 0 1-6.63.276l-10.543-8.921-.959-.16c3.763 5.856 7.135 12.412 10.121 20.123a33.869 33.869 0 0 0-3.482 2.093c-5.193-13.615-11.603-23.53-19.286-32.349a1.996 1.996 0 0 0-2.363-.478c-6.847 3.292-24.291 11.691-24.291 11.691a2.001 2.001 0 0 1-1.68.026l-13.782-6.126a1 1 0 0 0-1.406.914v.573c0 .371.206.712.534.885l16.643 8.759 14.191-4.73a1.997 1.997 0 0 1 2.087.525c8.119 8.607 15.325 17.906 21.134 28.263a34.09 34.09 0 0 0-2.45 3.848zm-3.325-5.793a126.55 126.55 0 0 0-4.42-6.729l-15.117 11.56 6.989 26.207A1.368 1.368 0 0 0 47.588 102h.001a1.618 1.618 0 0 0 1.585-1.933l-4.135-20.675a1.998 1.998 0 0 1 .969-2.128zm.278-37.956a108.79 108.79 0 0 1 3.96 5.158l5.277.879c.355.059.688.214.963.446l10.963 9.277a.9.9 0 0 0 1.218-.051l.028-.029c.37-.37.37-.97 0-1.34L69.023 33.852zM41 6c6.071 0 11 4.929 11 11s-4.929 11-11 11-11-4.929-11-11S34.929 6 41 6zm0 4c-3.863 0-7 3.137-7 7s3.137 7 7 7 7-3.137 7-7-3.137-7-7-7zM11.586 70.414a2 2 0 1 1 2.828-2.828l5.712 5.712.977-2.93a2 2 0 0 1 3.006-1.032l6 4a2 2 0 0 1-2.218 3.328l-3.822-2.547-1.172 3.515a1.998 1.998 0 0 1-3.311.782zm23.129-1.443a2 2 0 0 1-3.43 2.058L27 63.887l-1.285 2.142a2 2 0 0 1-3.315.171l-6-8a2.001 2.001 0 0 1 3.2-2.4l4.215 5.62 1.47-2.449a2 2 0 0 1 3.43 0zm-3.824 9.365a2 2 0 0 1 2.218 3.328l-3 2a2 2 0 0 1-2.218-3.328zm8.049-12.821a2 2 0 0 1-3.88.97l-1-4a2 2 0 0 1 3.88-.97zm-6.837 18.853a2 2 0 0 1 3.794 1.264l-1 3a2 2 0 0 1-3.794-1.264z" fill="#3d2b99" opacity="1" data-original="#000000"></path></g></svg>