<svg xmlns="http://www.w3.org/2000/svg" version="1.1" xmlns:xlink="http://www.w3.org/1999/xlink" width="512" height="512" x="0" y="0" viewBox="0 0 512 512" style="enable-background:new 0 0 512 512" xml:space="preserve"><g><path d="m349.61 246.6 1.24 1.8a19.1 19.1 0 0 0 15.75 8.27h.21c6.37-.07 12.27-3.29 15.77-8.61 4.06-6.17 6.66-13.3 7.54-20.63l3.41-28.55c1.79-14.96-3.68-30.08-14.62-40.43-7.18-6.79-18.09-7.96-26.53-2.83l-11.41 6.93c-13.84-9.5-26.32-20.82-37.07-33.74L208.12 13.76c-1.24-1.49-3.44-1.69-4.93-.45s-1.69 3.44-.45 4.93l95.77 115.05a189.501 189.501 0 0 0 41.27 36.94 32.452 32.452 0 0 1 14.61 27.16v18.56c0 21.42-17.43 38.86-38.86 38.86h-74.57c-16.83 0-30.53-13.7-30.53-30.53 0-6.27 1.89-12.3 5.48-17.45l4.13-5.94c8.95-12.84 8.34-30.33-1.48-42.52l-94.2-116.96a3.506 3.506 0 0 0-4.92-.53 3.497 3.497 0 0 0-.53 4.92l94.2 116.96c7.88 9.78 8.37 23.82 1.19 34.13l-4.13 5.94a37.374 37.374 0 0 0-6.73 21.45c0 15.05 8.91 28.05 21.73 34.03h-2.02c-6.16 0-11.15 4.99-11.15 11.15v18.92c0 5.8 4.42 10.56 10.08 11.1-11.62 5.62-19.66 17.54-19.66 31.29v25.09c0 18.64 2.64 37.17 7.84 55.07a273.987 273.987 0 0 1 10.89 76.46V496c0 1.93 1.57 3.5 3.5 3.5s3.5-1.57 3.5-3.5v-8.61c0-26.54-3.76-52.93-11.17-78.42a190.228 190.228 0 0 1-7.56-53.12v-25.09c0-15.3 12.44-27.74 27.74-27.74h87.54c10.93 0 20.82 5.85 26.27 14.9l-11.47 16.19c-9.36 13.21-24.61 21.1-40.8 21.1h-47.71c-9.41 0-18.55-2.71-26.45-7.84-1.62-1.05-3.79-.59-4.84 1.03s-.59 3.79 1.03 4.84a55.455 55.455 0 0 0 30.26 8.96h47.71c18.46 0 35.84-8.99 46.51-24.05l9.01-12.72c.01.04.03.09.04.13 8.47 30.87 7.88 63.34-1.7 93.89l-23.67 75.49c-.58 1.84.45 3.81 2.29 4.39a3.507 3.507 0 0 0 4.39-2.29l23.67-75.49c9.98-31.83 10.59-65.66 1.77-97.83-3-10.92-10.69-19.63-20.52-24.2h1.02c6.16 0 11.15-4.99 11.15-11.15v-18.92c0-6.16-4.99-11.15-11.15-11.15h-8.45a45.964 45.964 0 0 0 16.55-11.7zm-2.48-79.61 8.88-5.39c5.76-3.5 13.19-2.7 18.08 1.93a40.81 40.81 0 0 1 9.54 13.82h-.96c-9.92 0-18.39 6.27-21.61 14.93a39.418 39.418 0 0 0-13.93-25.29z" fill="#3d2b99" opacity="1" data-original="#000000"></path><path d="M251.18 176.36a70.697 70.697 0 0 0-16.72-45.47L149.44 30.4a3.492 3.492 0 0 0-4.93-.41 3.492 3.492 0 0 0-.41 4.93l85.03 100.49a63.716 63.716 0 0 1 15.06 40.97l.01 2.85v10.78a56.1 56.1 0 0 0 3.51 19.57c7.76 20.93 27.97 34.99 50.29 34.99 7.68 0 15.42-1.69 22.39-4.9l5.45-2.51a3.496 3.496 0 0 0 1.72-4.64 3.504 3.504 0 0 0-4.64-1.72l-5.45 2.51a46.899 46.899 0 0 1-19.47 4.26c-19.4 0-36.98-12.22-43.72-30.42a49.137 49.137 0 0 1-3.07-17.14v-10.79zM253.03 422.86l-4.5 72.92a3.502 3.502 0 0 0 3.28 3.71c.07 0 .15.01.22.01 1.83 0 3.38-1.43 3.49-3.28l4.5-72.92a3.502 3.502 0 0 0-3.28-3.71 3.493 3.493 0 0 0-3.71 3.27z" fill="#3d2b99" opacity="1" data-original="#000000"></path></g></svg>