<svg xmlns="http://www.w3.org/2000/svg" version="1.1" xmlns:xlink="http://www.w3.org/1999/xlink" width="512" height="512" x="0" y="0" viewBox="0 0 511.996 511.996" style="enable-background:new 0 0 512 512" xml:space="preserve" class=""><g><path d="M327.244 86.683c-4.193-2.033-8.46-3.631-12.577-4.887a165.144 165.144 0 0 1-15.118-5.456c-5.36 8.82-8.447 19.175-8.447 30.25 0 32.217 26.117 58.333 58.333 58.333 1.288 0 2.562-.057 3.829-.139.347-10.559 1.058-20.328 1.766-28.091 1.899-20.805-8.988-40.896-27.786-50.01zM219.019 35.508c-11.328-3.955-23.282-7.363-35.51-10.283-7.515 38.137-21.82 100.862-43.132 164.471a793.286 793.286 0 0 0 40.248-4.949c20.946-61.252 33.639-122.361 38.394-149.239z" style="stroke-width:15;stroke-linecap:round;stroke-linejoin:round;stroke-miterlimit:10;" fill="none" stroke="#3d2b99" stroke-width="15" stroke-linecap="round" stroke-linejoin="round" stroke-miterlimit="10" data-original="#000000" opacity="1"></path><path d="M395.75 421.729c-9.927-5.594-18.348-9.887-25.537-12.749-7.757-3.088-12.572-10.898-11.908-19.22 4.283-53.677 6.672-131.862-1.341-167.92-5.904-26.568-3.902-63.583-1.934-85.147 1.899-20.805-8.988-40.896-27.786-50.01-4.193-2.033-8.46-3.631-12.577-4.888-18.113-5.528-35.029-14.278-50.758-24.825C197.776 12.63 61.243 7.945 24.451 7.501c-5.125-.062-9.305 4.077-9.305 9.203v167.164c0 4.917 3.859 8.968 8.77 9.193 27.173 1.249 113.636 3.107 204.844-17.203 7.066-1.573 13.179 5.072 11.081 12-6.952 22.964-13.278 65.797 19.491 100.75 24.017 25.619 32.731 55.307 35.494 78.306 2.214 18.433-2.675 37.141-14.123 51.758-6.041 7.714-11.765 18.397-11.765 31.188 0 3.386.342 6.702.982 9.915 5.215 26.161 32.061 41.989 57.75 34.805 17.302-4.839 45.693-10.277 66.771-1.887 22.349 8.896 59.796 11.215 80.93 11.797a20.912 20.912 0 0 0 20.792-15.554c3-11.296-4.151-22.811-15.47-25.724-13.81-3.554-32.282-9.878-50.349-20.909-1.512-.924-2.995-1.827-4.461-2.72" style="stroke-width:15;stroke-linecap:round;stroke-linejoin:round;stroke-miterlimit:10;" fill="none" stroke="#3d2b99" stroke-width="15" stroke-linecap="round" stroke-linejoin="round" stroke-miterlimit="10" data-original="#000000" opacity="1"></path><path d="M320.96 248.42c13.262-2.16 26.484-5.527 38.608-10.623-.707-5.926-1.567-11.296-2.603-15.958-5.904-26.568-3.902-63.583-1.934-85.147 1.899-20.805-8.988-40.896-27.786-50.01-4.193-2.033-8.46-3.631-12.577-4.887-18.113-5.528-35.029-14.278-50.758-24.824-12.75-8.549-28.123-15.618-44.887-21.473-4.754 26.874-17.448 87.993-38.397 149.252 15.687-2.344 31.834-5.262 48.136-8.892 7.066-1.573 13.179 5.072 11.081 12-4.498 14.857-8.729 38.031-2.285 62.008 11.04 1.155 28.646 2.437 48.535 1.802" style="stroke-width:15;stroke-linecap:round;stroke-linejoin:round;stroke-miterlimit:10;" fill="none" stroke="#3d2b99" stroke-width="15" stroke-linecap="round" stroke-linejoin="round" stroke-miterlimit="10" data-original="#000000" opacity="1"></path></g></svg>