<svg xmlns="http://www.w3.org/2000/svg" version="1.1" xmlns:xlink="http://www.w3.org/1999/xlink" width="512" height="512" x="0" y="0" viewBox="0 0 60 60" style="enable-background:new 0 0 512 512" xml:space="preserve" class=""><g><path d="M60 30C60 14.129 47.609 1.104 31.994.074l-.009-.009-.376-.021h-.006A30.421 30.421 0 0 0 30 0c-.763 0-1.518.038-2.267.094l-.331.025C17.5.974 8.961 6.655 4.153 14.796l-.067.115a29.817 29.817 0 0 0-2.008 4.138l-.104.262c-.27.705-.514 1.422-.731 2.152-.007.024-.017.046-.024.07l-.18.611.008.007A29.983 29.983 0 0 0 0 30c0 8.337 3.421 15.888 8.93 21.33l-.003.016.4.382c.139.132.284.257.426.386l.183.166c.3.271.605.535.915.793l.162.134c.324.266.652.524.985.775l.131.098c.348.259.701.511 1.059.754l.101.068a29.164 29.164 0 0 0 2.368 1.441l.104.057c.385.209.775.408 1.168.599l.138.067c.382.183.767.357 1.156.523l.193.083c.37.155.743.302 1.119.442.089.033.177.067.266.099.353.128.709.248 1.068.362l.343.11c.336.103.674.197 1.013.288.139.037.278.076.418.112.319.081.641.153.964.223.161.035.322.073.484.105.307.061.616.114.926.166.178.03.355.063.535.09.305.045.612.081.918.117.185.022.368.048.553.066.329.032.659.054.99.076.164.011.326.027.491.035a29.316 29.316 0 0 0 2.981-.001c.173-.008.344-.025.517-.037.318-.021.636-.042.952-.073.202-.02.401-.047.602-.071.286-.034.572-.067.857-.109.203-.03.403-.066.604-.1.281-.047.562-.095.842-.151.194-.039.385-.082.578-.124a22.632 22.632 0 0 0 1.383-.338c.3-.081.599-.165.897-.255.153-.046.304-.095.456-.144a30.475 30.475 0 0 0 1.327-.461 30.6 30.6 0 0 0 2.379-1.009l.205-.098c.379-.184.754-.377 1.125-.577l.131-.07c.391-.214.777-.436 1.16-.668l.07-.042c.396-.241.787-.492 1.172-.752l.029-.019c.392-.265.778-.54 1.158-.824l.012-.009a30.71 30.71 0 0 0 1.128-.887l.002-.002c.483-.398.958-.807 1.419-1.238l.336-.314-.001-.025C56.476 46.104 60 38.458 60 30zm-9.224.02-.497 1.984c-8.389 1.495-24.689 4.404-37.475 6.706a83.378 83.378 0 0 1 1.451-3.374l8.141-2.28 4.749.805a1 1 0 0 0 .334-1.972l-3.293-.559.938-1.173a1.002 1.002 0 0 0-.156-1.406 1.003 1.003 0 0 0-1.406.156l-1.799 2.249-7.969 2.232-2.114-1.864c3.797-1.792 10.077-4.456 16.687-7.26 7.457-3.163 15.149-6.427 19.431-8.519 3.081 4.017 4.223 9.292 2.978 14.275zm-1.988 20.723a28.12 28.12 0 0 1-6.646 4.485l-.055.026c-.374.18-.753.351-1.136.515l-.204.084c-.333.139-.67.272-1.009.399-.108.04-.216.078-.324.116a28.74 28.74 0 0 1-1.33.438 30.007 30.007 0 0 1-1.329.366c-.264.066-.531.127-.798.185-.179.039-.357.078-.537.113-.257.051-.517.095-.776.139-.188.031-.375.064-.564.092-.263.039-.529.07-.795.101-.184.022-.367.046-.551.064-.294.029-.59.048-.886.068-.158.01-.315.025-.474.033a28.68 28.68 0 0 1-2.753-.002c-.152-.007-.304-.022-.456-.032a27.55 27.55 0 0 1-.912-.07c-.173-.017-.346-.04-.518-.06-.281-.033-.562-.066-.84-.107-.172-.025-.343-.056-.514-.084-.28-.047-.56-.095-.837-.15-.16-.032-.319-.067-.478-.101-.29-.063-.579-.129-.865-.2-.141-.035-.282-.073-.423-.11a29.83 29.83 0 0 1-1.266-.369c-.326-.104-.65-.214-.971-.329-.091-.033-.182-.065-.272-.099a29.376 29.376 0 0 1-1.044-.412l-.177-.074c-.377-.161-.75-.329-1.118-.506l-.084-.04a28.09 28.09 0 0 1-6.733-4.572A60.128 60.128 0 0 1 12.646 45h35.887l.255 5.743zM11.198 43c.225-.656.466-1.327.724-2.02l.032-.085c5.752-1.036 12.322-2.215 18.61-3.34L45.741 43H11.198zm38.85-8.924.377 8.479-15.908-5.707c6.037-1.079 11.571-2.066 15.531-2.772zm-3.613-19.892c-4.311 2.071-11.691 5.203-18.848 8.239L24.1 23.904 40.317 8.198l5.907 5.766c.073.071.14.147.211.22zm-27.255 11.7c-.052.051-.08.114-.119.173-3.669 1.579-6.846 2.981-9.012 4.029l-2.55-2.248 25.768-15.597L19.18 25.884zm-11.461-.517-4.394-3.875.022-.066c.209-.651.444-1.29.699-1.918l.077-.196c.26-.628.545-1.243.848-1.846l.127-.248C9.47 8.756 18.002 2.947 27.603 2.11l.324-.025A27.41 27.41 0 0 1 30 2c.38 0 .758.014 1.134.029l5.795 5.657-29.21 17.681zM2 30c0-2.188.26-4.315.737-6.36l3.189 2.812-1.793 1.085 5.599 4.937 2.589 2.282a86.718 86.718 0 0 0-1.834 4.372h-.003l-.117.308a83.298 83.298 0 0 0-.89 2.428 76.5 76.5 0 0 0-.617 1.829L8.44 45h2.113a64.5 64.5 0 0 0-1.11 3.986C4.827 43.992 2 37.321 2 30zm48.535 15h2.002l-.521-11.696.421-1.685.278-1.114c1.362-5.45.168-11.21-3.105-15.667l.041-.021-.818-.968-.031-.035c-.169-.2-.341-.398-.52-.591-.226-.248-.446-.48-.663-.692l-7.156-6.986-1.768 1.07-4.389-4.284C47.709 4.41 58 16.025 58 30c0 7.244-2.765 13.854-7.295 18.83l-.17-3.83z" fill="#3d2b99" opacity="1" data-original="#000000" class=""></path></g></svg>