<svg xmlns="http://www.w3.org/2000/svg" version="1.1" xmlns:xlink="http://www.w3.org/1999/xlink" width="512" height="512" x="0" y="0" viewBox="0 0 500 500" style="enable-background:new 0 0 512 512" xml:space="preserve" class=""><g><path fill="#ffffff" d="M253.551 337.631a6.033 6.033 0 0 0-8.314 1.92 6.033 6.033 0 0 0 1.918 8.314c.011.008 1.183.939 1.502 2.584.425 2.188-.706 5.268-3.183 8.674a6.035 6.035 0 0 0 9.76 7.099c4.598-6.323 6.371-12.403 5.271-18.071-1.326-6.829-6.381-10.163-6.954-10.52z" opacity="1" data-original="#307dc1"></path><g fill="#5dbfcc"><path d="M343.884 12.113H47.219a7.498 7.498 0 0 0-7.5 7.526l.217 62.289a7.499 7.499 0 0 0 8.919 7.337c.834-.159 84.037-16.008 139.033-11.11 25.572 2.273 59.831 1.912 92.961 1.56 9.443-.1 18.961-.199 28.259-.234zM451.074 12.113h-96.065a4.95 4.95 0 0 1-.393 1.008l-34.252 66.354c25.401.08 48.098.883 61.502 3.865 37.64 8.373 67.861 12.671 68.162 12.714a7.5 7.5 0 0 0 8.547-7.427V19.613a7.502 7.502 0 0 0-7.501-7.5z" fill="#ffffff" opacity="1" data-original="#5dbfcc" class=""></path></g><path fill="#ffffff" d="M417.827 272.905c18.123 39.05 40.263 86.757 44.242 128.8 11.669-1.619 18.906-2.809 19.167-2.854.208-.034.417-.053.625-.068-4.56-45.207-27.258-94.145-45.893-134.297-12.844-27.673-24.975-53.812-25.567-67.794-.915-21.558 7.319-60.835 14.552-90.57a1057.792 1057.792 0 0 1-19.696-3.698c-7.445 30.779-15.842 71.479-14.838 95.116.762 17.95 12.52 43.288 27.408 75.365z" opacity="1" data-original="#307dc1"></path><g fill="#5dbfcc"><path d="M101.27 491.901h345.552l-43.551-67.741c-27.619 2.318-58.104 3.644-83.459 1.692-29.472-2.269-69.043-1.905-107.313-1.554-28.451.26-57.492.525-81.098-.372zM120.691 423.413c-10.083-.599-18.798-1.487-25.531-2.782-43.458-8.357-78.332-12.646-78.679-12.688a7.5 7.5 0 0 0-8.408 7.445v69.014a7.5 7.5 0 0 0 7.5 7.5h74.759zM489.969 422.082a7.501 7.501 0 0 0-8.732-7.368c-.531.089-29.831 4.913-66.726 8.438l44.2 68.749h24.01a7.498 7.498 0 0 0 7.5-7.53z" fill="#ffffff" opacity="1" data-original="#5dbfcc" class=""></path></g><ellipse cx="254.33" cy="178.739" fill="#ffffff" rx="13.286" ry="7.641" transform="rotate(26.03 254.183 178.625)" opacity="1" data-original="#307dc1"></ellipse><path fill="#ffffff" d="m293.129 135.764-26.114-13.741c-3.352-1.764-7.536-.464-9.3 2.888l-3.738 7.104c-1.764 3.352-.465 7.537 2.887 9.301l.016.008c-.107.171-.215.342-.311.523l-6.475 12.305c-2.12 4.029-.559 9.061 3.471 11.18l1.306.688-4.865 9.246a4.999 4.999 0 0 0 5.908 7.102 4.979 4.979 0 0 0 2.942-2.446l4.865-9.245 1.333.702c4.028 2.12 9.06.558 11.18-3.471l6.475-12.306c.096-.182.175-.367.256-.553l.016.008c3.352 1.764 7.536.465 9.3-2.887l3.738-7.104c1.761-3.353.461-7.539-2.89-9.302z" opacity="1" data-original="#5dbfcc" class=""></path><path fill="#ffffff" d="M342.359 6.368a4.998 4.998 0 0 0-6.753 2.097l-60.75 117.684 8.85 4.656 60.75-117.684a5 5 0 0 0-2.097-6.753z" opacity="1" data-original="#307dc1"></path><ellipse cx="317.011" cy="265.807" fill="#ffffff" rx="13.286" ry="7.64" transform="rotate(-32 317.335 265.949)" opacity="1" data-original="#307dc1"></ellipse><path fill="#ffffff" d="m363.491 296.555-4.36-6.74c-2.058-3.18-6.342-4.1-9.521-2.042l-.015.009c-.098-.177-.193-.354-.305-.526l-7.553-11.675c-2.473-3.823-7.624-4.928-11.446-2.455l-1.475.955-6.431-9.939a5 5 0 0 0-8.395 5.432l6.43 9.939-1.029.665c-3.822 2.474-4.926 7.624-2.454 11.446l7.553 11.675c.111.173.234.333.356.494l-.015.009c-3.18 2.057-4.099 6.342-2.042 9.521l4.361 6.74c2.057 3.18 6.342 4.1 9.521 2.041l24.777-16.027c3.181-2.058 4.1-6.343 2.043-9.522z" opacity="1" data-original="#5dbfcc" class=""></path><path fill="#ffffff" d="M465.41 487.011 352.716 311.726l-8.396 5.431L457 492.42a4.994 4.994 0 0 0 6.909 1.501 5.001 5.001 0 0 0 1.501-6.91z" opacity="1" data-original="#307dc1"></path><ellipse cx="180.838" cy="271" fill="#ffffff" rx="13.286" ry="7.641" transform="rotate(21.57 181.048 271.037)" opacity="1" data-original="#307dc1"></ellipse><path fill="#ffffff" d="M181.474 268.043a5.001 5.001 0 0 0-6.598 2.545l-4.352 9.816-.602-.268c-4.162-1.844-9.077.052-10.922 4.213l-5.635 12.713c-.083.188-.15.379-.218.568l-.017-.008c-3.462-1.533-7.55.043-9.085 3.506l-3.253 7.339c-1.535 3.462.042 7.55 3.505 9.085l26.978 11.959c3.462 1.535 7.551-.043 9.085-3.505l3.253-7.339c1.535-3.462-.042-7.551-3.504-9.086l-.017-.006c.096-.18.192-.356.275-.545l5.635-12.711c1.845-4.162-.051-9.077-4.213-10.922l-2.125-.941 4.353-9.818a4.996 4.996 0 0 0-2.543-6.595z" opacity="1" data-original="#5dbfcc" class=""></path><path fill="#ffffff" d="M153.801 321.766 80.25 487.688a5 5 0 1 0 9.142 4.052l73.55-165.923zM64.909 264.486c-17.775 38.299-39.246 84.591-45.15 128.015 3.779.495 10.658 1.426 19.802 2.792 5.466-40.43 26.281-85.309 43.489-122.387 14.887-32.078 26.646-57.416 27.408-75.366 1.07-25.197-8.541-69.774-16.294-101.064a865.083 865.083 0 0 0-19.938 2.753c7.566 30.27 17.239 74.181 16.25 97.464-.592 13.981-12.723 40.12-25.567 67.793z" opacity="1" data-original="#307dc1"></path></g></svg>