<svg xmlns="http://www.w3.org/2000/svg" version="1.1" xmlns:xlink="http://www.w3.org/1999/xlink" width="512" height="512" x="0" y="0" viewBox="0 0 512 512" style="enable-background:new 0 0 512 512" xml:space="preserve" class=""><g><path d="M438.5 333.447a6.814 6.814 0 0 0-.793-.146q-3.458-.624-7.036-1.147v-.384a54.275 54.275 0 0 0 26.079-46.349v-1.86a23.344 23.344 0 0 0 14.252-11.067 23.07 23.07 0 0 0-.333-23.674 23.84 23.84 0 0 0-3.487-4.429v-4.5a64.683 64.683 0 0 0-30.039-54.583 34.672 34.672 0 0 0-69.327.019 64.679 64.679 0 0 0-30.01 54.564v4.453a23.854 23.854 0 0 0-5.892 10.307 23.06 23.06 0 0 0 11.006 26.656 23.615 23.615 0 0 0 5.317 2.195v1.914a54.279 54.279 0 0 0 26.165 46.4v.323c-24 3.461-49.339 10.7-65.034 32.972-4.938-1.413-10.113-2.588-15.5-3.576-.11-.02-.22-.045-.331-.06q-3.927-.713-8-1.3v-1.061a57.458 57.458 0 0 0 27.836-49.206v-2.342a24.405 24.405 0 0 0 15.217-11.665 24.159 24.159 0 0 0-.357-24.776 24.945 24.945 0 0 0-3.749-4.735v-21.561c0-14.109-6.179-27.423-16.529-35.617a38.409 38.409 0 0 0-33.3-7.254c-4.285 1.018-9.045-1.115-13.564-3.388-16.288-8.157-34.059-7.627-48.761 1.451a52.986 52.986 0 0 0-24.93 44.808v21.436a24.957 24.957 0 0 0-6.335 10.931 24.171 24.171 0 0 0 11.5 27.953 24.5 24.5 0 0 0 5.972 2.407v2.357a57.451 57.451 0 0 0 27.922 49.248v1.019a181.151 181.151 0 0 0-23.827 4.94c-15.675-22.277-41.023-29.514-65.04-32.975v-.357a54.276 54.276 0 0 0 26.108-46.367v-1.86a23.374 23.374 0 0 0 14.262-11.082 23.128 23.128 0 0 0-.371-23.672 23.8 23.8 0 0 0-3.488-4.427v-4.48a64.677 64.677 0 0 0-30.01-54.564 34.671 34.671 0 0 0-69.325-.019A64.678 64.678 0 0 0 44.731 239.9v4.466a23.821 23.821 0 0 0-5.86 10.226 23.041 23.041 0 0 0 10.974 26.724 23.576 23.576 0 0 0 5.346 2.2v1.907a54.278 54.278 0 0 0 26.164 46.4v.329q-3.564.52-7.007 1.142a6.912 6.912 0 0 0-.894.164C31.326 341.266 3.285 361.407.01 421.645a7 7 0 0 0 3.037 6.155 189.686 189.686 0 0 0 137.066 30.24 7 7 0 0 0 2.626 3.406 201.794 201.794 0 0 0 226.551 0 6.994 6.994 0 0 0 2.625-3.4 189.69 189.69 0 0 0 137.04-30.246 7 7 0 0 0 3.035-6.153c-3.248-60.269-31.316-80.401-73.49-88.2zm18.25-79.664a10.028 10.028 0 0 1 1.956 2.315 9.163 9.163 0 0 1 .121 9.478 9.3 9.3 0 0 1-2.077 2.471zm-143.375 21.449a11 11 0 0 1 2.9 3.177A10.238 10.238 0 0 1 316.41 289a10.54 10.54 0 0 1-3.035 3.372zM163.7 253.808a9.859 9.859 0 0 1 1.929 2.278 9.2 9.2 0 0 1 .148 9.49 9.3 9.3 0 0 1-2.077 2.474zm238.8-88.379a20.7 20.7 0 0 1 19.044 12.644 64.747 64.747 0 0 0-38.117.009 20.725 20.725 0 0 1 19.073-12.653zm-54.26 102.613a9.056 9.056 0 0 1-2.835-9.619 9.972 9.972 0 0 1 2.835-4.683zm7.316-30.547h-.014c-.133-.012-.265-.028-.4-.032a24.1 24.1 0 0 0-3.271.137 50.732 50.732 0 0 1 26.085-42.03c.175-.088.344-.184.51-.286a50.579 50.579 0 0 1 47.878-.094 7.07 7.07 0 0 0 .84.465 50.729 50.729 0 0 1 25.938 41.935 22.781 22.781 0 0 0-2.708-.129c-12.235-2.7-20.551-8.5-25.387-17.736a7 7 0 0 0-10.795-2.036c-16.518 14.355-35.721 20.811-58.676 19.811zm6.689 47.926v-33.842c20.565-.4 38.981-6.538 54.91-18.3 6.141 7.886 14.71 13.469 25.594 16.671v35.468a40.286 40.286 0 0 1-21.8 35.757 6.812 6.812 0 0 0-.816.418 40.192 40.192 0 0 1-35.039.117 6.963 6.963 0 0 0-1.067-.546 40.284 40.284 0 0 1-21.782-35.743zm64.243 60.3-23.937 50.566-23.962-50.576q1.454-.2 2.945-.386a7 7 0 0 0 5.521-4.077 15.244 15.244 0 0 0 1.082-3.51 54.005 54.005 0 0 0 28.8-.023 15.207 15.207 0 0 0 1.084 3.533 7 7 0 0 0 5.521 4.077c1.006.121 1.97.258 2.946.392zm-112.037 86.707a6 6 0 1 1-5.981 6.01 6.015 6.015 0 0 1 5.981-6.01zm-115.91-140.045a10.117 10.117 0 0 1-3.994-11.4 11.059 11.059 0 0 1 3.354-5.374 6.846 6.846 0 0 0 .64-.42zm2.864-32.962v-14.592a38.893 38.893 0 0 1 18.283-32.894c10.632-6.566 23.11-6.865 35.123-.849 4.706 2.367 13.461 6.775 23.064 4.5a24.675 24.675 0 0 1 21.39 4.606c7.024 5.561 11.217 14.771 11.217 24.637v14.63a24.419 24.419 0 0 0-4.207-.225c-.131 0-.259.023-.388.035-24.55 1.065-45.067-5.875-62.758-21.231a7 7 0 0 0-10.793 2.041c-5.223 9.978-14.227 16.244-27.489 19.158a25.411 25.411 0 0 0-3.442.184zm11.14 50.492v-38.177c11.849-3.426 21.12-9.477 27.686-18.067 17.129 12.747 36.964 19.354 59.14 19.7v36.548a43.464 43.464 0 0 1-23.473 38.56 6.891 6.891 0 0 0-1.04.534 43.354 43.354 0 0 1-37.661.06 7.022 7.022 0 0 0-1.146-.585 43.463 43.463 0 0 1-23.506-38.573zm69.726 63.95L256 429.308l-26.249-55.449c1.242-.173 2.5-.343 3.784-.5a7 7 0 0 0 5.511-4.059 15.837 15.837 0 0 0 1.206-4.157 57.12 57.12 0 0 0 31.5-.021 15.841 15.841 0 0 0 1.193 4.173 7 7 0 0 0 5.513 4.064c1.298.158 2.563.329 3.813.504zM109.419 165.429a20.724 20.724 0 0 1 19.073 12.652 64.758 64.758 0 0 0-38.117-.008 20.7 20.7 0 0 1 19.044-12.644zM55.191 268.063a9.048 9.048 0 0 1-2.844-9.667 9.965 9.965 0 0 1 2.844-4.659zm7.538-30.563c-.14-.013-.28-.031-.423-.036a24.476 24.476 0 0 0-3.513.135 50.729 50.729 0 0 1 25.935-41.942 6.9 6.9 0 0 0 .847-.47 50.584 50.584 0 0 1 47.873.1c.167.1.337.2.513.288a50.734 50.734 0 0 1 26.083 42.018 22.649 22.649 0 0 0-2.675-.127c-12.255-2.7-20.582-8.5-25.42-17.737a7 7 0 0 0-10.8-2.036C104.691 232 85.579 238.487 62.729 237.5zm6.466 47.921v-33.842c20.552-.4 38.954-6.538 54.882-18.3 6.146 7.889 14.724 13.472 25.622 16.674v35.465a40.282 40.282 0 0 1-21.731 35.72 6.943 6.943 0 0 0-1.068.549 40.218 40.218 0 0 1-34.857.023 6.872 6.872 0 0 0-1.067-.546 40.284 40.284 0 0 1-21.781-35.743zm64.244 60.286-23.963 50.581-23.959-50.568c.983-.135 1.956-.273 2.967-.4a7 7 0 0 0 5.578-4.207 16.014 16.014 0 0 0 1.007-3.385 54.007 54.007 0 0 0 28.817-.017 15.516 15.516 0 0 0 1.09 3.537 7 7 0 0 0 5.519 4.072q1.493.187 2.944.387zm7.228 98.04a175.668 175.668 0 0 1-126.417-25.3c1.909-25.306 8.595-42.435 20.907-53.7 8.442-7.726 19.889-13.03 36.04-16.542l31.951 67.44a7 7 0 0 0 12.655 0l31.955-67.449c19.445 4.216 32.257 11.059 41.043 21.828-26.061 11.29-43.417 32.464-48.134 73.723zm13.271 8.348c2.009-27.275 9.189-45.731 22.465-57.883a61.033 61.033 0 0 1 14.144-9.578v24.007a22.373 22.373 0 0 0-15.335 21.208v16.98a7 7 0 0 0 14 0v-16.98a8.444 8.444 0 0 1 8.333-8.334 8.343 8.343 0 0 1 8.334 8.334v16.98a7 7 0 0 0 14 0v-16.98a22.373 22.373 0 0 0-15.336-21.208v-29.488q5.088-1.548 10.893-2.794l34.228 72.3a7 7 0 0 0 6.336 4.01 7 7 0 0 0 6.327-4l34.255-72.3q5.8 1.248 10.867 2.786v40.569a20.009 20.009 0 1 0 14 0v-35.1a61.059 61.059 0 0 1 14.17 9.589c13.277 12.149 20.459 30.608 22.468 57.881-61.562 40.22-142.606 40.223-204.149.006zm217.425-8.344c-4.718-41.264-22.081-62.439-48.153-73.733 8.8-10.771 21.618-17.615 41.06-21.829l31.957 67.451a7 7 0 0 0 12.655 0l31.925-67.44c16.156 3.512 27.606 8.817 36.05 16.545 12.316 11.271 19 28.4 20.895 53.7a175.6 175.6 0 0 1-126.389 25.306zm-157.656-320.7h18.368v18.4a7 7 0 0 0 7 7h33.846a7 7 0 0 0 7-7v-18.4h18.4a7 7 0 0 0 7-7V82.2a7 7 0 0 0-7-7h-18.4V56.832a7 7 0 0 0-7-7h-33.844a7 7 0 0 0-7 7V75.2h-18.37a7 7 0 0 0-7 7v33.846a7 7 0 0 0 7 7.005zm7-33.846h18.369a7 7 0 0 0 7-7V63.834h19.842V82.2a7 7 0 0 0 7 7h18.4v19.842h-18.4a7 7 0 0 0-7 7v18.4h-19.839v-18.4a7 7 0 0 0-7-7h-18.371zM256 182.494a83.368 83.368 0 1 0-83.368-83.368A83.463 83.463 0 0 0 256 182.494zm0-152.732a69.364 69.364 0 1 1-69.364 69.364A69.442 69.442 0 0 1 256 29.762z" fill="#3d2b99" opacity="1" data-original="#000000" class=""></path></g></svg>