<svg xmlns="http://www.w3.org/2000/svg" version="1.1" xmlns:xlink="http://www.w3.org/1999/xlink" width="512" height="512" x="0" y="0" viewBox="0 0 128 128" style="enable-background:new 0 0 512 512" xml:space="preserve" class=""><g><path d="M112.091 125.469c-4.319-14.738-10.37-24.34-20.229-32.105a1 1 0 0 0-1.238 1.571c9.636 7.588 15.299 16.598 19.548 31.097a1.001 1.001 0 0 0 1.92-.563z" fill="#3d2b99" opacity="1" data-original="#000000"></path><path d="M94.793 77.31c0-7.275-4.938-13.403-11.634-15.25a95.605 95.605 0 0 0 5.989-12.148c8.438-20.628-2.977-28.757-5.137-30.071C76.465 2.558 56.113 1.09 47.672 1.263c-11.527.239-21.793 3.722-23.371 7.929-2.669 7.114.19 11.659 1.315 13.076l-4.591 14.538A10.148 10.148 0 0 0 22 45.082a1.744 1.744 0 0 1-.028 1.851l-5.109 7.948a6.184 6.184 0 0 0-.819 4.837 6.187 6.187 0 0 0 2.927 3.936l2.416 1.408 1.387 6.922c.39 1.441.504 3.836.33 6.925a7.73 7.73 0 0 0 2.175 5.819 7.631 7.631 0 0 0 5.454 2.303c.077 0 .153 0 .229-.003 2.868-.088 6.025-.802 9.054-1.831a12.688 12.688 0 0 1 .928 5.577c-.135 2.23-.939 4.486-2.325 6.522-3.312 4.863-11.182 17.356-12.748 28.312a1 1 0 0 0 1.981.283c1.506-10.542 9.188-22.723 12.42-27.47 1.59-2.335 2.513-4.938 2.669-7.528a14.667 14.667 0 0 0-1.022-6.387c2.749-1.071 5.31-2.362 7.344-3.633 1.586-.991 2.898-2.298 4.001-3.756a84.395 84.395 0 0 1-.039 2.209c-.066 2.173-.124 4.049.399 5.219a6.11 6.11 0 0 0 1.952 2.409c.004.036-.006.07.002.107.242 1.114.414 2.261.58 3.37.322 2.15.601 4.007 1.323 5.066a6.152 6.152 0 0 0 4.252 2.617c.369.707.717 1.422 1.047 2.106.938 1.945 1.747 3.624 2.751 4.413a6.165 6.165 0 0 0 3.829 1.328c.031 0 .062-.005.093-.005.869.882 1.687 1.853 2.479 2.795 1.397 1.664 2.604 3.101 3.774 3.625a6.172 6.172 0 0 0 6.611-1.025c2.24-1.99 3.74-4.269 4.459-6.774a6.058 6.058 0 0 0-.546-4.674 6 6 0 0 0-3.66-2.87c-.91-.25-2.247-.637-3.611-1.088a6.211 6.211 0 0 0-.151-.79 6.065 6.065 0 0 0-1.01-2.073c.385.028.77.059 1.163.059 8.73 0 15.833-7.103 15.833-15.833zm-2 0c0 7.628-6.205 13.833-13.833 13.833S65.127 84.937 65.127 77.31s6.205-13.833 13.833-13.833 13.833 6.206 13.833 13.833zm-37.85-2.8c2.034-3.725 2.999-7.841 3.437-10.462l1.538 2.416a21.223 21.223 0 0 0 4.364 4.934 15.717 15.717 0 0 0-.897 3.135 4.126 4.126 0 0 1-.304.127c-2.085.761-4.437.865-6.988.31a4.202 4.202 0 0 1-1.151-.46zM26.174 9.894c1.105-2.948 10.224-6.397 21.539-6.631 8.075-.178 27.63 1.217 34.589 17.667.092.217.261.396.471.503.536.272 13.037 6.91 4.523 27.721a92.803 92.803 0 0 1-6.112 12.324c-.031.052-.036.109-.057.164-.71-.098-1.43-.166-2.167-.166-5.905 0-11.056 3.255-13.778 8.059a19.28 19.28 0 0 1-3.576-4.145l-1.677-2.635c2.254-.053 4.54-1.41 6.449-3.96 3.183-4.249 4.732-10.972 1.688-14.423-1.431-1.622-3.093-2.481-4.94-2.555-3.298-.144-5.979 2.389-6.091 2.498-.036.035-.07.073-.101.113l-3.266 4.279a2.192 2.192 0 0 1-3.937-1.33v-1.398c0-1.41-.498-2.712-1.402-3.668-3.307-3.493-2.617-8.066-2.601-8.183.232-2.559-.493-4.83-2.157-6.751-4.423-5.105-14.171-6.136-16.356-6.306-.825-1.013-3.405-4.874-1.041-11.176zm22.027 69.284c-5.271 3.294-12.386 5.7-17.301 5.851a5.522 5.522 0 0 1-4.19-1.696 5.729 5.729 0 0 1-1.611-4.312c.189-3.347.056-5.891-.381-7.494l-1.459-7.298a.996.996 0 0 0-.477-.668l-2.805-1.635c-1.01-.589-1.717-1.539-1.99-2.676s-.075-2.305.557-3.289l5.109-7.948a3.73 3.73 0 0 0 .062-3.961 8.153 8.153 0 0 1-.783-6.644L27.451 23.1c2.573.245 10.942 1.352 14.608 5.585 1.313 1.516 1.862 3.236 1.688 5.187-.038.226-.877 5.58 3.13 9.813.552.583.855 1.397.855 2.293v1.398a4.192 4.192 0 0 0 3.429 4.123 4.169 4.169 0 0 0 4.098-1.579l3.214-4.212c.331-.298 2.296-1.984 4.574-1.893 1.28.051 2.465.684 3.52 1.88 2.271 2.574.88 8.338-1.788 11.901-.984 1.314-3.6 4.219-6.625 2.804a.999.999 0 0 0-1.421.833c-.01.132-1.062 13.277-8.53 17.944zM72.705 91.85c.818.509 1.606.968 2.269 1.349a4.023 4.023 0 0 1 1.901 2.476 4.07 4.07 0 0 1-.416 3.128 11.036 11.036 0 0 1-1.581 2.064 1 1 0 0 0 1.437 1.392 13.022 13.022 0 0 0 1.868-2.443c.33-.565.559-1.168.694-1.79 1.207.386 2.35.715 3.163.939a4.003 4.003 0 0 1 2.445 1.92c.542.966.673 2.082.368 3.144-.613 2.134-1.914 4.096-3.865 5.831a4.163 4.163 0 0 1-4.465.694c-.751-.337-1.926-1.735-3.062-3.087a74.388 74.388 0 0 0-1.729-1.986c.154-.064.31-.125.46-.202.319-.167.625-.337.918-.512a1 1 0 1 0-1.025-1.717c-.26.155-.532.308-.812.453a4.184 4.184 0 0 1-4.505-.437c-.643-.505-1.429-2.135-2.188-3.712-.21-.434-.427-.88-.651-1.33 2.825-.549 5.203-1.683 7.067-3.387.179-.164.346-.336.5-.517a.999.999 0 1 0-1.517-1.302 4.167 4.167 0 0 1-.334.344c-1.639 1.499-3.773 2.492-6.344 2.951a4.175 4.175 0 0 1-4.169-1.742c-.465-.681-.735-2.487-.997-4.234a89.166 89.166 0 0 0-.346-2.138c.469.115.951.19 1.448.191h.045a16.76 16.76 0 0 0 3.439-.344 1 1 0 0 0-.413-1.957c-.949.2-1.968.301-3.027.301h-.04a4.164 4.164 0 0 1-3.792-2.458c-.336-.752-.28-2.577-.227-4.342a72.71 72.71 0 0 0 .037-2.576c.135.039.269.082.408.112 1.219.265 2.401.397 3.543.397 1.38 0 2.695-.205 3.945-.59-.007.193-.029.383-.029.578 0 6.509 3.951 12.109 9.578 14.54z" fill="#3d2b99" opacity="1" data-original="#000000"></path><path d="M70.46 77.31c0 4.687 3.813 8.5 8.5 8.5s8.5-3.813 8.5-8.5-3.813-8.5-8.5-8.5-8.5 3.813-8.5 8.5zm15 0c0 3.584-2.916 6.5-6.5 6.5s-6.5-2.916-6.5-6.5 2.916-6.5 6.5-6.5 6.5 2.916 6.5 6.5z" fill="#3d2b99" opacity="1" data-original="#000000"></path></g></svg>