<svg xmlns="http://www.w3.org/2000/svg" version="1.1" xmlns:xlink="http://www.w3.org/1999/xlink" width="512" height="512" x="0" y="0" viewBox="0 0 512 512" style="enable-background:new 0 0 512 512" xml:space="preserve" class=""><g><path d="m208.969 225.33-1.675 21.638M183.469 194.373l-22.527-1.759M190.038 215.278l-18.397 15.736M205.337 386.007C223.156 331.93 233.632 275.666 233.805 218c.02-6.29.86-23.86 13.06-41.21 7.488-10.647 17.876-19.293 30.296-24.743 3.725-1.635 7.463-3.238 11.139-4.982l78.048-37.026c21.289-10.1 51.728-18.32 51.728-47.08V7.499M153.655 504.5c2.27-4.19 4.5-8.41 6.69-12.64 12.235-23.576 23.316-47.738 32.948-72.406M255.275 504.5c13.16-15.61 29.5-38.95 41.26-70.26a237.806 237.806 0 0 0 12.84-50.33M450.425 326.113c-7.896 6.145-26.876 19.212-54.756 22.675-28.599 3.552-50.674-4.975-59.775-9.096M377.761 313.529c-1.764.686-5.52 1.861-10.155 1.059a18.736 18.736 0 0 1-6.191-2.255" style="stroke-width:15;stroke-linecap:round;stroke-linejoin:round;stroke-miterlimit:10;" fill="none" stroke="#3d2b99" stroke-width="15" stroke-linecap="round" stroke-linejoin="round" stroke-miterlimit="10" data-original="#000000" class="" opacity="1"></path><path d="M439.435 176.217a177.338 177.338 0 0 0-33.163-10.544c-22.747-4.834-42.536-4.342-56.772-2.77M283.715 306.47a344.02 344.02 0 0 1 22.09 61.81c5.31 21 10.38 41.08 10.38 73.95v62.27M210.452 45.646a80.781 80.781 0 0 0-10.805-13.807C168.171-.48 116.161-.703 84.416 31.71c-30.294 30.932-30.47 80.986-.427 112.162 25.558 26.521 64.851 31.689 95.769 15.238a4.283 4.283 0 0 1 3.286-.327l32.486 10.12c3.224 1.005 6.277-1.969 5.358-5.219l-9.257-32.738a4.287 4.287 0 0 1 .415-3.284c8.572-15.132 11.868-32.47 9.851-49.306" style="stroke-width:15;stroke-linecap:round;stroke-linejoin:round;stroke-miterlimit:10;" fill="none" stroke="#3d2b99" stroke-width="15" stroke-linecap="round" stroke-linejoin="round" stroke-miterlimit="10" data-original="#000000" class="" opacity="1"></path><path d="m157.509 43.366-28.813 39.649c-.983 1.352-.181 3.265 1.472 3.512l23.711 3.547c1.653.247 2.455 2.16 1.472 3.512l-28.813 39.649" style="stroke-width:15;stroke-linecap:round;stroke-linejoin:round;stroke-miterlimit:10;" fill="none" stroke="#3d2b99" stroke-width="15" stroke-linecap="round" stroke-linejoin="round" stroke-miterlimit="10" data-original="#000000" class="" opacity="1"></path></g></svg>