<svg xmlns="http://www.w3.org/2000/svg" version="1.1" xmlns:xlink="http://www.w3.org/1999/xlink" width="512" height="512" x="0" y="0" viewBox="0 0 128 128" style="enable-background:new 0 0 512 512" xml:space="preserve" class=""><g><path d="M57.259 29.415c2.758-.5 5.596-1.306 8.433-2.397l21.018-8.084a1 1 0 0 0 .557-.532l7-16a1 1 0 1 0-1.832-.802l-6.833 15.618-20.628 7.934c-2.721 1.046-5.436 1.819-8.071 2.296-7.896 1.429-33.666 8.791-33.716 43.518-.005 3.374-.49 6.638-1.442 9.703-3.017 9.713-7.858 28.529-6.389 45.419a1 1 0 0 0 .995.914c.029 0 .058 0 .087-.004a1 1 0 0 0 .91-1.083c-1.439-16.55 3.334-35.08 6.307-44.653 1.012-3.256 1.527-6.72 1.532-10.293.046-32.273 22.445-39.81 32.073-41.553zM67.634 94.586c-1.844-7.485-2.283-12.617-2.287-12.668a1 1 0 1 0-1.994.164c.018.214.453 5.328 2.338 12.982 1.986 8.06 5.898 20.063 13.265 31.478a1 1 0 1 0 1.681-1.085c-7.217-11.182-11.055-22.96-13.003-30.872zM65.422 100.577a1.001 1.001 0 0 0-1.214.725c-1.771 7.02-4.894 16.906-9.708 24.144a1 1 0 1 0 1.665 1.107c4.971-7.474 8.172-17.591 9.982-24.762a1 1 0 0 0-.725-1.214z" fill="#3d2b99" opacity="1" data-original="#000000"></path><path d="M110.476 53.328c-2.809-8.199-7.767-13.282-13.96-14.314-6.372-1.062-12.379-.153-17.476 1.452a26.299 26.299 0 0 0-15.438-4.965c-2.27 0-4.527.29-6.71.862a2.756 2.756 0 0 0-1.996 2.078 2.792 2.792 0 0 0 .939 2.765l1.437 1.197-.162.971a2.62 2.62 0 0 0 3.147 2.991 15.86 15.86 0 0 1 6.501-.043 10.422 10.422 0 0 0-4.137 6.694c-.09-.003-.178-.014-.269-.014-3.251 0-6.171 2.025-7.387 4.992a14.76 14.76 0 0 0-6.347-1.583 16.024 16.024 0 0 1 4.328-6.322 2.61 2.61 0 0 0 .798-2.58 2.619 2.619 0 0 0-1.911-1.917l-1.504-.376-.02-.708a2.749 2.749 0 0 0-1.697-2.486 2.795 2.795 0 0 0-3.015.539 26.581 26.581 0 0 0-8.496 19.441c0 .092.029.174.052.259a15.062 15.062 0 0 0-1.742 3.4c-2.35 6.462-.137 11.615 2.134 14.8 2.178 3.055 2.893 6.777 1.961 10.211l-9.51 35.069a1 1 0 1 0 1.931.523l9.51-35.069c1.089-4.015.264-8.351-2.263-11.896-1.992-2.794-3.936-7.31-1.883-12.955.953-2.623 2.543-4.674 4.726-6.099 4.557-2.975 10.883-2.295 15.054 1.623a12.503 12.503 0 0 1 3.143 13.578l-18.993 50.202a.998.998 0 0 0 .935 1.354c.404 0 .784-.247.936-.646l18.63-49.244a7.98 7.98 0 0 0 3.63.89 8.021 8.021 0 0 0 4.418-1.334c1.19 2.039 2.799 4.116 4.989 6.078 1.965 1.761 3.946 4.04 5.861 6.244 4.559 5.244 9.273 10.667 14.934 10.752h.137c3.177 0 6.252-1.658 9.396-5.063 7.732-8.376 10.201-27.312 5.39-41.35zm-69.553 5.24c-.616.402-1.19.849-1.724 1.334a24.586 24.586 0 0 1 7.757-15.876.814.814 0 0 1 .88-.162c.138.058.46.242.473.698l.042 1.466a1 1 0 0 0 .757.942l2.24.56a.613.613 0 0 1 .455.455.606.606 0 0 1-.189.609 18.023 18.023 0 0 0-5.14 7.861c-.008.025-.003.051-.009.076a13.357 13.357 0 0 0-5.542 2.036zm18.905-14.159a.614.614 0 0 1-.564-.156.614.614 0 0 1-.183-.551l.256-1.537a.998.998 0 0 0-.346-.933l-1.877-1.564a.799.799 0 0 1-.267-.793.75.75 0 0 1 .55-.578 24.52 24.52 0 0 1 6.204-.796c4.678 0 9.161 1.311 13.07 3.787a51.497 51.497 0 0 0-7.601 3.593c-.045-.022-.08-.056-.129-.071a17.907 17.907 0 0 0-9.112-.4zM65.351 76a5.982 5.982 0 0 1-2.952-.785 14.497 14.497 0 0 0-5.694-16.198C57.541 56.643 59.814 55 62.352 55c.041 0 .081.006.122.007.031 1.308.302 2.624.853 3.874.29.658.625 1.329.996 1.996a20.699 20.699 0 0 1 2.427 7.136 23.933 23.933 0 0 0 2.071 6.861 5.915 5.915 0 0 1-3.468 1.127zm38.265 17.322c-2.781 3.013-5.435 4.462-8.033 4.419-4.768-.071-9.184-5.151-13.454-10.064-1.956-2.25-3.979-4.577-6.036-6.421-5.146-4.613-6.846-9.902-7.366-13.527a22.677 22.677 0 0 0-2.658-7.824 22.453 22.453 0 0 1-.914-1.831c-1.654-3.755-.273-8.244 3.211-10.442 5.286-3.332 15.927-8.63 27.819-6.646 5.435.906 9.838 5.519 12.398 12.99 4.521 13.194 2.2 31.58-4.968 39.345z" fill="#3d2b99" opacity="1" data-original="#000000"></path><path d="M104.806 61.117a1.007 1.007 0 0 0-1.344.425c-.113.212-2.887 5.155-14.146 1.507-11.23-3.639-8.673-12.809-8.559-13.198a1 1 0 0 0-1.916-.573c-.034.114-3.264 11.42 9.859 15.673 3.191 1.034 5.803 1.427 7.932 1.427 6.55 0 8.51-3.723 8.615-3.931a.996.996 0 0 0-.439-1.331zM48.856 16.146l6.519-.578-4.021 7.806a1 1 0 1 0 1.778.916l4.852-9.421a1.001 1.001 0 0 0-.977-1.454l-6.519.578 3.803-7.383a1 1 0 1 0-1.778-.916l-4.634 8.998a1.001 1.001 0 0 0 .977 1.454zM22.146 30.397l6.69 3.803a1 1 0 0 0 1.493-.916l-.215-4.535 5.426 3.084a1 1 0 1 0 .988-1.738l-7.005-3.982a.999.999 0 0 0-1.018.018.999.999 0 0 0-.476.899l.215 4.535-5.111-2.905a1 1 0 0 0-.988 1.738zM32.431 20.426c.345.115.727.033.995-.214l6.136-5.665 1.998 10.89a1 1 0 1 0 1.966-.361L41.201 12.4a1 1 0 0 0-1.662-.555l-6.136 5.665L31.51 7.19a1 1 0 0 0-1.967.361l2.22 12.106a1 1 0 0 0 .667.769z" fill="#3d2b99" opacity="1" data-original="#000000"></path></g></svg>