<svg xmlns="http://www.w3.org/2000/svg" version="1.1" xmlns:xlink="http://www.w3.org/1999/xlink" width="512" height="512" x="0" y="0" viewBox="0 0 512 512" style="enable-background:new 0 0 512 512" xml:space="preserve"><g><path d="M113 512a4.2 4.2 0 0 1-4.11-5.06c.1-.49 10.2-49 8.4-64.23-.57-4.89-1.46-19.11-2.7-38.8-2.88-46-7.69-122.93-14.36-172.93a4.2 4.2 0 1 1 8.32-1.11c6.7 50.28 11.53 127.42 14.42 173.51 1.22 19.55 2.11 33.68 2.66 38.34 2 16.63-8.1 64.88-8.53 66.93A4.2 4.2 0 0 1 113 512Z" fill="#3d2b99" opacity="1" data-original="#000000"></path><path d="M19.28 362.72a4.2 4.2 0 0 1-4.17-3.72C3.62 257.57 7.69 194.87 28.33 155.69c20.05-38.07 54.42-50.76 94-62.34 82.22-24.08 85.78-49.59 81.86-88.73a4.2 4.2 0 0 1 8.35-.83c2.29 22.85 1.2 41.37-11.51 57.42s-36.26 28.46-76.35 40.2c-37.68 11-70.38 23-88.9 58.2-19.53 37.09-23.44 100.15-12.3 198.45a4.2 4.2 0 0 1-3.7 4.64ZM492.72 362.72h-.48a4.2 4.2 0 0 1-3.7-4.64c11.14-98.3 7.23-161.36-12.3-198.45-18.52-35.17-51.22-47.16-88.9-58.2C347.26 89.66 323.71 77.26 311 61.2s-13.79-34.56-11.51-57.42a4.2 4.2 0 0 1 8.35.83c-3.91 39.14-.36 64.65 81.86 88.73 39.55 11.58 73.91 24.27 94 62.34 20.63 39.18 24.71 101.88 13.21 203.31a4.2 4.2 0 0 1-4.19 3.73Z" fill="#3d2b99" opacity="1" data-original="#000000"></path><path d="M399 512a4.2 4.2 0 0 1-4.1-3.34c-.43-2-10.48-50.3-8.53-66.93.55-4.66 1.43-18.79 2.66-38.34 2.88-46.09 7.71-123.23 14.42-173.51a4.2 4.2 0 1 1 8.32 1.11c-6.67 50-11.48 126.95-14.36 172.93-1.23 19.69-2.12 33.91-2.7 38.8-1.8 15.28 8.3 63.74 8.4 64.23A4.2 4.2 0 0 1 399 512ZM256 181.36a57.5 57.5 0 0 1-29.69-8.36c-4.29-2.57-6.93-8.49-7.13-13h-4.66c-8.57 0-15.55-7.92-15.55-17.65s7-17.65 15.55-17.65h4.65v-3.42c0-4.45 2.26-6.39 3.61-7.15 2.27-1.29 5.13-1.1 7.85.53a48.54 48.54 0 0 0 50.74 0c2.72-1.63 5.59-1.82 7.86-.53 1.35.76 3.61 2.71 3.61 7.15v3.42h4.65c8.57 0 15.55 7.92 15.55 17.65s-7 17.65-15.55 17.65h-4.66c-.2 4.49-2.84 10.41-7.14 13a57.47 57.47 0 0 1-29.69 8.36Zm-41.48-48.26c-3.95 0-7.16 4.15-7.16 9.26s3.21 9.26 7.16 9.26h8.85a4.2 4.2 0 0 1 4.2 4.2v3.66c0 2.41 1.69 5.49 3.07 6.31a48.54 48.54 0 0 0 50.74 0c1.39-.83 3.07-3.9 3.07-6.32v-3.66a4.2 4.2 0 0 1 4.2-4.2h8.84c3.95 0 7.16-4.15 7.16-9.26s-3.21-9.26-7.16-9.26h-8.84a4.2 4.2 0 0 1-4.2-4.2v-6.29a56.73 56.73 0 0 1-56.88 0v6.31a4.2 4.2 0 0 1-4.2 4.2Z" fill="#3d2b99" opacity="1" data-original="#000000"></path><path d="M256 114.71a55.87 55.87 0 0 1-24.23-5.49A12.12 12.12 0 0 1 225.24 99V70.67a12.12 12.12 0 0 1 6.54-10.26 56.25 56.25 0 0 1 48.45 0 12.12 12.12 0 0 1 6.53 10.25V99a12.12 12.12 0 0 1-6.54 10.26 55.83 55.83 0 0 1-24.22 5.45Zm0-51.39A47.45 47.45 0 0 0 235.41 68a4 4 0 0 0-1.78 2.69V99a4 4 0 0 0 1.78 2.69 47.79 47.79 0 0 0 41.18 0 4 4 0 0 0 1.78-2.69V70.67a4 4 0 0 0-1.78-2.67A47.48 47.48 0 0 0 256 63.32ZM256 250.9a57.5 57.5 0 0 1-29.69-8.38c-4.29-2.57-6.93-8.49-7.13-13h-4.66c-8.57 0-15.55-7.92-15.55-17.65s7-17.65 15.55-17.65h4.65v-3.42c0-4.45 2.26-6.39 3.61-7.15 2.27-1.29 5.13-1.1 7.85.53a48.54 48.54 0 0 0 50.74 0c2.72-1.63 5.58-1.82 7.86-.53 1.35.76 3.61 2.71 3.61 7.15v3.42h4.65c8.57 0 15.55 7.92 15.55 17.65s-7 17.65-15.55 17.65h-4.66c-.2 4.49-2.84 10.41-7.14 13A57.47 57.47 0 0 1 256 250.9Zm-41.48-48.26c-3.95 0-7.16 4.15-7.16 9.26s3.21 9.26 7.16 9.26h8.85a4.2 4.2 0 0 1 4.2 4.2V229c0 2.41 1.69 5.49 3.06 6.31a48.54 48.54 0 0 0 50.74 0c1.39-.83 3.07-3.9 3.07-6.32v-3.66a4.2 4.2 0 0 1 4.2-4.2h8.84c3.95 0 7.16-4.15 7.16-9.26s-3.21-9.26-7.16-9.26h-8.84a4.2 4.2 0 0 1-4.2-4.2v-6.32a56.73 56.73 0 0 1-56.88 0v6.31a4.2 4.2 0 0 1-4.2 4.2ZM256 320.44a57.5 57.5 0 0 1-29.69-8.38c-4.29-2.57-6.93-8.49-7.13-13h-4.66c-8.57 0-15.55-7.92-15.55-17.65s7-17.65 15.55-17.65h4.65v-3.42c0-4.44 2.26-6.39 3.61-7.15 2.27-1.29 5.13-1.1 7.85.53a48.54 48.54 0 0 0 50.74 0c2.72-1.63 5.58-1.82 7.86-.53 1.35.76 3.61 2.71 3.61 7.15v3.42h4.65c8.57 0 15.55 7.92 15.55 17.65s-7 17.65-15.55 17.65h-4.66c-.2 4.49-2.84 10.41-7.14 13a57.47 57.47 0 0 1-29.69 8.38Zm-41.48-48.25c-3.95 0-7.16 4.15-7.16 9.25s3.21 9.26 7.16 9.26h8.85a4.2 4.2 0 0 1 4.2 4.2v3.66c0 2.41 1.69 5.49 3.06 6.31a48.54 48.54 0 0 0 50.74 0c1.39-.83 3.07-3.9 3.07-6.31v-3.66a4.2 4.2 0 0 1 4.2-4.2h8.84c3.95 0 7.16-4.15 7.16-9.26s-3.21-9.25-7.16-9.25h-8.84a4.2 4.2 0 0 1-4.2-4.2v-6.32a56.73 56.73 0 0 1-56.88 0V268a4.2 4.2 0 0 1-4.2 4.2ZM256 390a57.5 57.5 0 0 1-29.69-8.38c-4.29-2.57-6.93-8.49-7.13-13h-4.66c-8.57 0-15.55-7.92-15.55-17.65s7-17.65 15.55-17.65h4.65v-3.42c0-4.45 2.26-6.39 3.61-7.15 2.27-1.29 5.13-1.1 7.85.53a48.54 48.54 0 0 0 50.74 0c2.72-1.63 5.59-1.82 7.86-.53 1.35.76 3.61 2.71 3.61 7.15v3.42h4.65c8.57 0 15.55 7.92 15.55 17.65s-7 17.65-15.55 17.65h-4.66c-.2 4.49-2.84 10.41-7.14 13A57.47 57.47 0 0 1 256 390Zm-41.48-48.26c-3.95 0-7.16 4.15-7.16 9.26s3.21 9.26 7.16 9.26h8.85a4.2 4.2 0 0 1 4.2 4.2v3.66c0 2.41 1.69 5.49 3.07 6.31a48.54 48.54 0 0 0 50.74 0c1.39-.83 3.07-3.9 3.07-6.32v-3.66a4.2 4.2 0 0 1 4.2-4.2h8.84c3.95 0 7.16-4.15 7.16-9.26s-3.21-9.26-7.16-9.26h-8.84a4.2 4.2 0 0 1-4.2-4.2v-6.32a56.73 56.73 0 0 1-56.88 0v6.31a4.2 4.2 0 0 1-4.2 4.2ZM256 459.51a57.5 57.5 0 0 1-29.69-8.38c-4.29-2.57-6.93-8.49-7.13-13h-4.66c-8.57 0-15.55-7.92-15.55-17.65s7-17.65 15.55-17.65h4.65v-3.42c0-4.45 2.26-6.39 3.61-7.15 2.27-1.29 5.13-1.1 7.85.53a48.54 48.54 0 0 0 50.74 0c2.72-1.63 5.58-1.82 7.86-.53 1.35.76 3.61 2.71 3.61 7.15v3.42h4.65c8.57 0 15.55 7.92 15.55 17.65s-7 17.65-15.55 17.65h-4.66c-.2 4.49-2.84 10.41-7.14 13a57.47 57.47 0 0 1-29.69 8.38Zm-41.48-48.26c-3.95 0-7.16 4.15-7.16 9.26s3.21 9.26 7.16 9.26h8.85a4.2 4.2 0 0 1 4.2 4.2v3.66c0 2.41 1.69 5.49 3.06 6.31a48.54 48.54 0 0 0 50.74 0c1.39-.83 3.07-3.9 3.07-6.31V434a4.2 4.2 0 0 1 4.2-4.2h8.84c3.95 0 7.16-4.15 7.16-9.26s-3.21-9.26-7.16-9.26h-8.84a4.2 4.2 0 0 1-4.2-4.2v-6.32a56.73 56.73 0 0 1-56.88 0v6.31a4.2 4.2 0 0 1-4.2 4.2ZM256 512a52.54 52.54 0 0 1-24.36-6 12.88 12.88 0 0 1-6.41-10.74v-27.07a6.76 6.76 0 0 1 3.08-6 7.24 7.24 0 0 1 7.21.13 44.17 44.17 0 0 0 40.93 0 7.25 7.25 0 0 1 7.21-.13 6.76 6.76 0 0 1 3.08 6v27.07a12.88 12.88 0 0 1-6.39 10.74 52.5 52.5 0 0 1-24.35 6Zm-22.37-41.23v24.51a4.78 4.78 0 0 0 1.9 3.3 44.17 44.17 0 0 0 40.93 0 4.78 4.78 0 0 0 1.91-3.31v-24.52a52.57 52.57 0 0 1-44.74 0Z" fill="#3d2b99" opacity="1" data-original="#000000"></path></g></svg>