<svg xmlns="http://www.w3.org/2000/svg" version="1.1" xmlns:xlink="http://www.w3.org/1999/xlink" width="512" height="512" x="0" y="0" viewBox="0 0 512 512" style="enable-background:new 0 0 512 512" xml:space="preserve"><g><path d="M491.353 344.736a528.858 528.858 0 0 0-148.324-43.58v-9.843l81.657-81.656a24.971 24.971 0 1 0-35.314-35.314L211.715 352H184v16h103.029a8 8 0 0 0 5.658-2.343l48-48a8.49 8.49 0 0 0 .541-.6q17.514 2.472 34.772 6.136V416H136v-96.287A513.294 513.294 0 0 1 224.832 312v-16A527.529 527.529 0 0 0 34.75 331.294l-13.622 5.239A8 8 0 0 0 16 344v144a8 8 0 0 0 8 8h464a8 8 0 0 0 8-8V352a8 8 0 0 0-4.647-7.264ZM327.029 288v20.687L283.716 352h-49.373l166.343-166.343a8.97 8.97 0 1 1 12.686 12.686l-84 84a8 8 0 0 0-2.343 5.657ZM480 480H32V349.494l8.494-3.266A513.7 513.7 0 0 1 120 322.784V424a8 8 0 0 0 8 8h256a8 8 0 0 0 8-8v-97.156a512.838 512.838 0 0 1 88 30.3Z" fill="#ffffff" opacity="1" data-original="#000000"></path><path d="M152 352h16v16h-16zM397.617 110.214A18.2 18.2 0 0 0 408 93.808V82.192A18.213 18.213 0 0 0 389.808 64h-2.551a170.7 170.7 0 0 0-119.139-48h-24.236a170.7 170.7 0 0 0-119.138 48h-2.551A18.213 18.213 0 0 0 104 82.192v11.616a18.2 18.2 0 0 0 10.383 16.406A53.757 53.757 0 0 0 204.462 112h7.076a53.765 53.765 0 0 0 88.924 0h7.076a53.757 53.757 0 0 0 90.079-1.786ZM243.882 32h24.236a154.7 154.7 0 0 1 94.643 32H149.239a154.7 154.7 0 0 1 94.643-32ZM120 82.192A2.195 2.195 0 0 1 122.193 80h267.615A2.194 2.194 0 0 1 392 82.192v11.616A2.194 2.194 0 0 1 389.808 96H122.193A2.195 2.195 0 0 1 120 93.808Zm40 37.344A37.42 37.42 0 0 1 137.278 112h45.444A37.42 37.42 0 0 1 160 119.536Zm96 0A37.42 37.42 0 0 1 233.278 112h45.444A37.42 37.42 0 0 1 256 119.536ZM374.722 112a38.023 38.023 0 0 1-45.444 0ZM49.49 179.351l40.001-56 13.019 9.3-40 56zM168.238 214.06l16.002-64 15.521 3.88-16.002 64zM304.238 153.94l15.521-3.88 16.002 64-15.52 3.88zM409.49 132.648l13.018-9.299 40 56-13.018 9.3z" fill="#ffffff" opacity="1" data-original="#000000"></path></g></svg>