<svg xmlns="http://www.w3.org/2000/svg" version="1.1" xmlns:xlink="http://www.w3.org/1999/xlink" width="512" height="512" x="0" y="0" viewBox="0 0 512 512" style="enable-background:new 0 0 512 512" xml:space="preserve"><g><path d="M322.206 98.971h-33.585V65.386a7 7 0 0 0-7-7h-51.242a7 7 0 0 0-7 7V98.97h-33.584a7 7 0 0 0-7 7v51.243a7 7 0 0 0 7 7h33.584v33.584a7 7 0 0 0 7 7h51.242a7 7 0 0 0 7-7v-33.584h33.585a7 7 0 0 0 7-7V105.97a7 7 0 0 0-7-6.999zm-7 51.242h-33.585a7 7 0 0 0-7 7v33.584h-37.242v-33.584a7 7 0 0 0-7-7h-33.584V112.97h33.584a7 7 0 0 0 7-7V72.386h37.242v33.584a7 7 0 0 0 7 7h33.585zm134.771-31.812c-7.25-7.25-16.922-11.243-27.233-11.243s-19.983 3.993-27.233 11.243l-16.944 16.944c.038-1.251.063-2.502.063-3.753C378.629 63.974 323.618 8.963 256 8.963S133.371 63.974 133.371 131.592 188.382 254.221 256 254.221c1.251 0 2.503-.026 3.753-.064l-66.575 66.575a6.999 6.999 0 0 0 0 9.899l4.254 4.254-144.599 144.6a6.998 6.998 0 0 0 0 9.898c8.851 8.851 24.979 13.654 42.263 13.653 19.699-.002 40.897-6.243 54.5-19.847l48.481-48.48c2.526-2.524 2.615-4.895 3.194-20.318.156-4.181.329-8.789.549-11.775l31.672-31.671 4.254 4.254a7 7 0 0 0 9.898 0l202.331-202.331c7.25-7.25 11.242-16.921 11.242-27.234s-3.991-19.984-11.24-27.233zM256 240.221c-59.898 0-108.629-48.73-108.629-108.629S196.102 22.963 256 22.963s108.629 48.73 108.629 108.629c0 6.528-.587 13.051-1.736 19.426l-87.466 87.466A109.7 109.7 0 0 1 256 240.221zm-65.847 154.265a7 7 0 0 0-1.983 3.984c-.426 3.059-.65 9.052-.889 15.396-.15 3.994-.362 9.663-.607 12.447l-46.977 46.978c-18.144 18.143-54.121 18.973-71.145 10.271l138.779-138.779 16.262 16.262zm52.542-34.136-34.668-34.668 16.491-16.491 34.668 34.668zm197.382-197.381L269.086 333.96l-34.668-34.668L405.408 128.3c4.606-4.605 10.763-7.142 17.335-7.142s12.729 2.537 17.334 7.142 7.142 10.761 7.142 17.334-2.537 12.729-7.142 17.335zm-13.523-21.146a6.999 6.999 0 0 1 0 9.899l-70.268 70.268c-1.366 1.367-3.158 2.05-4.949 2.05s-3.583-.684-4.949-2.05a6.999 6.999 0 0 1 0-9.899l70.268-70.268a6.998 6.998 0 0 1 9.898 0z" fill="#3d2b99" opacity="1" data-original="#000000"></path></g></svg>