<svg xmlns="http://www.w3.org/2000/svg" version="1.1" xmlns:xlink="http://www.w3.org/1999/xlink" width="512" height="512" x="0" y="0" viewBox="0 0 128 128" style="enable-background:new 0 0 512 512" xml:space="preserve" class=""><g><path d="M70.401 37.434a.998.998 0 0 0-1.275.611c-.347.986-.705 1.978-1.07 2.967-1.157 3.127-2.074 6.476-2.727 9.952a.998.998 0 0 0 .984 1.185.998.998 0 0 0 .981-.815 59.479 59.479 0 0 1 2.638-9.628c.368-.999.73-2 1.081-2.996a1 1 0 0 0-.611-1.275zM82.568 59.842h.025c.552-.015.988-.473.975-1.025-.158-6.268-.589-12.185-1.28-17.585a409.9 409.9 0 0 1-.917-7.69 1.001 1.001 0 0 0-1.989.217c.257 2.354.566 4.954.921 7.728.684 5.333 1.108 11.182 1.265 17.382.014.543.459.975 1 .975zM75.996 32.655a.995.995 0 0 0-1.103.886 410.31 410.31 0 0 1-.917 7.69 163.033 163.033 0 0 0-1.008 11.058 1 1 0 0 0 .939 1.057l.06.002a1 1 0 0 0 .997-.941c.225-3.837.56-7.512.996-10.921.36-2.82.671-5.421.921-7.728a1 1 0 0 0-.886-1.103z" fill="#3d2b99" opacity="1" data-original="#000000"></path><path d="M87.069 115.177c-.441-.303-3.007-2.376-1.765-8.947.002-.009 0-.017 0-.026.399-2.094 1.154-4.446 2.246-6.992 1.438-3.354 3.595-7.409 6.408-12.052 8.654-14.286 8.654-32.034 0-46.32-2.816-4.649-4.973-8.704-6.408-12.052-1.091-2.539-1.845-4.887-2.244-6.979v-.026c-1.255-6.62 1.351-8.681 1.759-8.958C97.512 9.149 97.632 1.811 97.632 1.5a.997.997 0 0 0-.993-.997h-.007c-.547 0-.993.443-1 .99-.003.256-.188 6.305-9.328 9.479a1.047 1.047 0 0 0-.153.068c-.162.089-3.546 2.034-3.146 8.498-3.043-2.025-6.703-2.025-9.746 0 .4-6.464-2.983-8.409-3.146-8.498a.991.991 0 0 0-.153-.068c-9.127-3.17-9.324-9.205-9.328-9.478a1 1 0 0 0-2 .005c0 .312.12 7.647 10.563 11.324.442.303 3.01 2.377 1.763 8.959v.021c-.399 2.093-1.154 4.442-2.245 6.984-1.436 3.348-3.592 7.402-6.408 12.052-8.654 14.286-8.654 32.034 0 46.319 2.816 4.65 4.973 8.705 6.408 12.053 1.093 2.546 1.848 4.898 2.246 6.992v.026c1.25 6.61-1.353 8.668-1.761 8.945-10.447 3.676-10.567 11.014-10.567 11.325 0 .55.443.993.993.997h.007c.547 0 .993-.443 1-.99.003-.256.188-6.305 9.328-9.479.053-.019.104-.041.153-.068.162-.088 3.544-2.032 3.146-8.491 3.037 2.018 6.707 2.018 9.744 0-.397 6.458 2.984 8.402 3.146 8.491.049.027.101.05.153.068 9.127 3.17 9.324 9.205 9.328 9.478a1 1 0 0 0 2-.005c0-.312-.12-7.647-10.563-11.323zM78.133 108c-1.865 0-3.681-.854-5.273-2.458-.438-2.164-1.206-4.552-2.308-7.119-1.473-3.433-3.671-7.57-6.535-12.3-5.19-8.566-7.118-18.436-5.792-27.973l4.133 2.661a1 1 0 0 0 1.354-.258l2.303-3.205 3.313 3.328a1 1 0 0 0 1.309.094l2.535-1.9 6.057 5.131-6.057 5.131-2.535-1.9a1 1 0 0 0-1.309.094l-3.313 3.328-2.303-3.205a1 1 0 0 0-1.354-.258l-1.753 1.128a1 1 0 1 0 1.082 1.682l.954-.613 2.437 3.392a.999.999 0 0 0 1.521.123l3.533-3.549 2.478 1.857c.372.28.89.267 1.246-.037l7.565-6.409a.996.996 0 0 0 0-1.526l-7.565-6.409a.999.999 0 0 0-1.246-.037l-2.478 1.857-3.533-3.549a.997.997 0 0 0-1.521.123l-2.437 3.392-4.05-2.607a42.763 42.763 0 0 1 5.426-14.131c2.864-4.729 5.062-8.866 6.535-12.299 1.099-2.561 1.866-4.945 2.305-7.105 1.596-1.613 3.414-2.472 5.276-2.472s3.679.859 5.275 2.471c.439 2.161 1.207 4.546 2.306 7.106 1.473 3.433 3.671 7.57 6.535 12.3 8.268 13.646 8.268 30.601 0 44.246-2.861 4.723-5.061 8.861-6.535 12.3-1.102 2.567-1.87 4.955-2.308 7.119-1.592 1.604-3.408 2.458-5.273 2.458z" fill="#3d2b99" opacity="1" data-original="#000000"></path><path d="M85.253 89.291a1 1 0 1 0 1.886.664c.347-.986.705-1.978 1.07-2.967 2.566-6.939 3.923-14.889 3.923-22.988s-1.356-16.049-3.922-22.988c-.366-.989-.725-1.98-1.071-2.967a1 1 0 1 0-1.886.664c.351.996.713 1.997 1.082 2.996 2.484 6.72 3.798 14.43 3.798 22.295s-1.313 15.575-3.799 22.295c-.368.999-.73 2-1.081 2.996zM69.931 86.295a59.552 59.552 0 0 1-2.637-9.628 1 1 0 1 0-1.965.369c.652 3.477 1.569 6.825 2.726 9.952.366.989.725 1.98 1.071 2.967a1 1 0 0 0 1.886-.664c-.351-.996-.713-1.997-1.082-2.996zM83.568 69.184a1 1 0 0 0-.975-1.025h-.025c-.541 0-.986.432-1 .975-.156 6.2-.581 12.049-1.265 17.382a430.21 430.21 0 0 0-.921 7.728 1 1 0 0 0 1.988.217c.255-2.343.563-4.93.917-7.69.691-5.4 1.122-11.317 1.28-17.585zM74.965 75.594a.985.985 0 0 0-1.057-.939.999.999 0 0 0-.939 1.057c.227 3.883.566 7.603 1.008 11.058.359 2.808.668 5.396.917 7.69a1 1 0 0 0 1.988-.217c-.25-2.307-.561-4.907-.921-7.728a160.272 160.272 0 0 1-.996-10.921zM46.944 46.324a.99.99 0 0 0-.948-.368 1 1 0 0 0-.78.652l-2.206 6.227-5.18-6.589a1 1 0 1 0-1.572 1.236l6.302 8.017a.99.99 0 0 0 .948.368 1 1 0 0 0 .78-.652l2.206-6.227 5.476 6.967a.997.997 0 0 0 1.404.168 1 1 0 0 0 .168-1.404zM51.91 72.362l-6.584 4.75a1 1 0 0 0 .212 1.739l4.258 1.709-4.814 3.474a1 1 0 1 0 1.17 1.622l6.287-4.535a1 1 0 0 0-.212-1.739l-4.258-1.709 5.111-3.688a1 1 0 1 0-1.17-1.623zM38.923 63.053 49.75 65.79a1.007 1.007 0 0 0 1.215-.725 1.001 1.001 0 0 0-.725-1.215l-12.588-3.183a1.006 1.006 0 0 0-.977.287 1.003 1.003 0 0 0-.219.994l2.621 8.007-10.261-2.595a1 1 0 1 0-.49 1.94l12.021 3.04a1.002 1.002 0 0 0 .976-.287c.248-.267.332-.647.219-.994l-2.621-8.007z" fill="#3d2b99" opacity="1" data-original="#000000"></path></g></svg>